<svg width="53" height="55" viewBox="0 0 53 55" fill="none" xmlns="http://www.w3.org/2000/svg">
<path fill-rule="evenodd" clip-rule="evenodd" d="M16.0893 27.0138L11.1553 28.3358L14.5025 40.828C14.681 41.4942 15.37 41.892 16.0362 41.7135L18.5511 41.0396C19.2173 40.8611 19.6152 40.172 19.4366 39.5058L16.0893 27.0138Z" fill="#B4D2D7"/>
<path fill-rule="evenodd" clip-rule="evenodd" d="M16.0893 27.0138L14.443 27.4549L17.3492 38.3007C17.5277 38.9669 17.1298 39.6559 16.4637 39.8345L14.3856 40.3913L14.5026 40.828C14.6811 41.4942 15.3702 41.8921 16.0364 41.7135L18.5512 41.0396C19.2174 40.8611 19.6152 40.172 19.4367 39.5058L16.0893 27.0138Z" fill="#9BB9C3"/>
<path fill-rule="evenodd" clip-rule="evenodd" d="M22.1709 18.8321C22.9409 21.7059 21.2196 24.6873 18.3458 25.4574L6.80895 28.5486C3.93512 29.3186 0.953773 27.5973 0.183773 24.7235C-0.586227 21.8497 1.13501 18.8683 4.00883 18.0983L15.5457 15.0071C18.4195 14.2369 21.4008 15.9583 22.1709 18.8321Z" fill="#64B5F6"/>
<path fill-rule="evenodd" clip-rule="evenodd" d="M22.1108 21.8235C21.5769 23.5409 20.202 24.9608 18.3458 25.4582L6.80891 28.5495C3.93508 29.3195 0.953735 27.5983 0.183735 24.7244C-0.313593 22.8683 0.228578 20.9676 1.44898 19.6465C1.14593 20.6175 1.12507 21.6546 1.38883 22.637C2.15883 25.5108 5.14017 27.2322 8.014 26.4621L19.5509 23.3708C20.5336 23.108 21.4214 22.5714 22.1108 21.8235Z" fill="#42A5F5"/>
<path fill-rule="evenodd" clip-rule="evenodd" d="M38.367 9.3247C41.442 10.1486 43.267 13.3095 42.4429 16.3845C41.619 19.4596 38.4582 21.2845 35.3831 20.4606C32.308 19.6367 30.4831 16.4759 31.307 13.4007C32.131 10.3256 35.2919 8.50067 38.367 9.3247Z" fill="#64B5F6"/>
<path fill-rule="evenodd" clip-rule="evenodd" d="M38.6526 9.40918C41.5541 10.3469 43.2415 13.4061 42.4434 16.3848C41.6193 19.46 38.4586 21.2848 35.3834 20.4609C34.47 20.2161 33.6669 19.7651 33.0107 19.1714C33.1046 19.2017 33.1996 19.2299 33.296 19.2557C36.3711 20.0796 39.5319 18.2548 40.3559 15.1796C40.9351 13.018 40.2053 10.814 38.6526 9.40918Z" fill="#42A5F5"/>
<path fill-rule="evenodd" clip-rule="evenodd" d="M13.7457 12.6641L6.54597 14.5932C5.16424 14.9635 4.33922 16.3923 4.70945 17.7742L7.57803 28.4799C7.94827 29.8616 9.37725 30.6867 10.759 30.3164L17.9587 28.3873L38.5901 29.3081C39.1355 29.289 39.5968 29.046 39.9213 28.6074C40.2458 28.1687 40.3431 27.6565 40.2019 27.1295L33.6376 2.63176C33.4964 2.10468 33.1561 1.70972 32.6558 1.49207C32.1554 1.27452 31.6344 1.29487 31.1526 1.55091L13.7457 12.6641Z" fill="#64B5F6"/>
<path fill-rule="evenodd" clip-rule="evenodd" d="M4.70898 17.7705L4.70986 17.7741L7.57844 28.4799C7.94867 29.8616 9.37755 30.6866 10.7594 30.3164L17.959 28.3872L38.5904 29.308C39.1358 29.2889 39.5971 29.046 39.9216 28.6074C40.2461 28.1688 40.3434 27.6566 40.2022 27.1295L39.7632 25.4914C39.9013 26.0156 39.8035 26.5248 39.4806 26.9611C39.1561 27.3997 38.6948 27.6426 38.1494 27.6617L17.518 26.7409L10.3184 28.6701C8.93666 29.0403 7.50767 28.2153 7.13744 26.8335L4.70898 17.7705Z" fill="#42A5F5"/>
<path fill-rule="evenodd" clip-rule="evenodd" d="M17.2524 25.7508L14.4523 15.3004L13.7458 12.6641L6.54621 14.5932C5.16448 14.9635 4.33946 16.3923 4.7097 17.7742L4.74393 17.9019L7.54393 28.3522L7.57817 28.4798C7.9484 29.8616 9.37739 30.6865 10.7591 30.3163L11.6239 30.0845L16.558 28.7624L17.9588 28.387C17.7232 27.5084 17.4879 26.6296 17.2524 25.7508Z" fill="#FFDA2D"/>
<path fill-rule="evenodd" clip-rule="evenodd" d="M5.82865 14.9082C4.8959 15.5007 4.40918 16.6531 4.70963 17.7745L4.74387 17.9022L7.54409 28.3525L7.57832 28.4801C7.94856 29.862 9.37754 30.6869 10.7593 30.3166L11.6241 30.0849L16.5581 28.7627L17.959 28.3874L17.5179 26.741L11.9645 28.2291C10.5827 28.5993 9.15376 27.7743 8.78352 26.3926L5.91495 15.6868C5.84679 15.4332 5.81769 15.1706 5.82865 14.9082Z" fill="#FFC700"/>
<path fill-rule="evenodd" clip-rule="evenodd" d="M30.1825 0.101126C31.764 -0.322593 33.4046 0.624595 33.8283 2.20605L40.5798 27.4028C41.0035 28.9842 40.0564 30.6248 38.4749 31.0486C36.8935 31.4723 35.2528 30.5251 34.8291 28.9436L28.0776 3.74692C27.6538 2.16547 28.601 0.524844 30.1825 0.101126Z" fill="#FFDA2D"/>
<path fill-rule="evenodd" clip-rule="evenodd" d="M31.2697 0.0177002C32.4555 0.147747 33.5023 0.98895 33.8284 2.20597L40.5799 27.4028C41.0036 28.9842 40.0565 30.6249 38.4749 31.0486H38.4748C37.2578 31.3747 36.0059 30.8888 35.3003 29.9268C35.6555 29.9658 36.023 29.9411 36.3874 29.8434C37.969 29.4197 38.9161 27.779 38.4923 26.1976L31.7409 1.00087C31.6463 0.646726 31.4864 0.313316 31.2697 0.0177002Z" fill="#FFC700"/>
<path fill-rule="evenodd" clip-rule="evenodd" d="M50.4869 10.3409C50.7097 10.2845 50.9457 10.3181 51.1438 10.4344C51.342 10.5508 51.4864 10.7405 51.5457 10.9625C51.605 11.1845 51.5745 11.4209 51.4608 11.6206C51.3471 11.8203 51.1593 11.9671 50.9381 12.0293L47.2567 13.0159C47.034 13.0723 46.7979 13.0387 46.5998 12.9224C46.4016 12.806 46.2572 12.6163 46.1979 12.3943C46.1386 12.1723 46.1691 11.9359 46.2828 11.7362C46.3965 11.5366 46.5843 11.3897 46.8056 11.3275L50.4869 10.3409ZM50.938 17.5801C51.1592 17.6423 51.347 17.7892 51.4607 17.9889C51.5744 18.1885 51.6049 18.425 51.5456 18.647C51.4863 18.869 51.3419 19.0587 51.1437 19.175C50.9456 19.2914 50.7095 19.325 50.4868 19.2685L46.8056 18.2822C46.5843 18.22 46.3965 18.0731 46.2828 17.8735C46.1691 17.6738 46.1386 17.4373 46.1979 17.2153C46.2572 16.9933 46.4016 16.8036 46.5998 16.6873C46.7979 16.571 47.034 16.5374 47.2567 16.5938L50.938 17.5801ZM46.4743 4.29729C46.5555 4.21605 46.6519 4.15159 46.7581 4.10762C46.8642 4.06365 46.978 4.04102 47.0929 4.04102C47.2078 4.04102 47.3215 4.06365 47.4277 4.10762C47.5338 4.15159 47.6303 4.21605 47.7115 4.29729C47.7928 4.37853 47.8572 4.47497 47.9012 4.58112C47.9452 4.68726 47.9678 4.80103 47.9678 4.91592C47.9678 5.03081 47.9452 5.14458 47.9012 5.25072C47.8572 5.35687 47.7928 5.45331 47.7115 5.53454L45.0166 8.22943C44.9354 8.31068 44.8389 8.37514 44.7328 8.41911C44.6266 8.46308 44.5129 8.48571 44.398 8.48571C44.2831 8.48571 44.1693 8.46308 44.0632 8.41911C43.957 8.37514 43.8606 8.31068 43.7794 8.22943C43.6981 8.1482 43.6337 8.05176 43.5897 7.94561C43.5457 7.83947 43.5231 7.7257 43.5231 7.61081C43.5231 7.49592 43.5457 7.38215 43.5897 7.27601C43.6337 7.16986 43.6981 7.07342 43.7794 6.99219L46.4743 4.29729ZM39.7369 43.8725L33.9601 53.878C33.8295 54.1043 33.4949 54.0744 33.4062 53.8287L31.851 49.5167L27.3391 50.3259C27.082 50.372 26.8889 50.0971 27.0195 49.8709L33.5917 38.4874L40.7448 40.9113L45.0828 37.103L52.4542 49.8709C52.5848 50.0971 52.3918 50.372 52.1346 50.3259L47.6226 49.5167L46.0674 53.8287C45.9788 54.0744 45.6441 54.1043 45.5135 53.878L39.7369 43.8725Z" fill="#FFDA2D"/>
<path fill-rule="evenodd" clip-rule="evenodd" d="M39.7369 43.8717L33.9601 53.8772C33.8295 54.1035 33.4949 54.0736 33.4062 53.828L31.851 49.516L27.3391 50.3251C27.082 50.3712 26.8889 50.0963 27.0195 49.8701L28.1026 47.9941L31.8511 47.3219L33.4063 51.634C33.495 51.8797 33.8296 51.9095 33.9602 51.6832L39.737 41.6777L45.5136 51.6832C45.6442 51.9094 45.9788 51.8797 46.0675 51.634L47.6227 47.3219L51.3712 47.9941L52.4542 49.8701C52.5848 50.0963 52.3918 50.3712 52.1346 50.3251L47.6226 49.516L46.0674 53.828C45.9788 54.0736 45.6441 54.1035 45.5135 53.8772L39.7369 43.8717Z" fill="#FFC700"/>
<path fill-rule="evenodd" clip-rule="evenodd" d="M49.3288 41.5281C51.0896 40.9184 51.8964 38.4357 50.8302 36.9074C50.3815 36.2645 50.3815 35.4502 50.8301 34.8073C51.8964 33.2791 51.0897 30.7963 49.3288 30.1867C48.588 29.9302 48.1093 29.2715 48.0943 28.4876C48.0587 26.6246 45.9467 25.09 44.1638 25.6319C43.4137 25.8598 42.6392 25.6082 42.1665 24.9829C41.0426 23.4966 38.432 23.4965 37.3079 24.9828C36.8351 25.6081 36.0607 25.8599 35.3106 25.6319C33.5277 25.09 31.4157 26.6244 31.3799 28.4875C31.3649 29.2713 30.8864 29.9302 30.1455 30.1866C28.3847 30.7961 27.5778 33.279 28.644 34.8072C29.0926 35.4501 29.0927 36.2644 28.6441 36.9073C27.5778 38.4355 28.3845 40.9184 30.1454 41.5281C30.8862 41.7846 31.3649 42.4432 31.3799 43.227C31.4155 45.0901 33.5275 46.6246 35.3104 46.0828C36.0605 45.8549 36.835 46.1064 37.3078 46.7317C38.4318 48.2181 41.0424 48.2181 42.1664 46.7317C42.6392 46.1064 43.4136 45.8548 44.1637 46.0828C45.9466 46.6246 48.0586 45.0901 48.0943 43.227C48.1093 42.4432 48.5879 41.7845 49.3288 41.5281Z" fill="#FC685B"/>
<path fill-rule="evenodd" clip-rule="evenodd" d="M49.3285 41.5285C51.0893 40.9188 51.8961 38.4361 50.8299 36.9078C50.3813 36.2649 50.3813 35.4506 50.8298 34.8077C51.8039 33.4117 51.2147 31.2191 49.7631 30.3856C50.2747 31.3795 50.31 32.6413 49.6698 33.5591C49.2211 34.202 49.2212 35.0163 49.6699 35.6592C50.7361 37.1875 49.9293 39.6702 48.1685 40.2799C47.4276 40.5364 46.9491 41.1951 46.9341 41.9789C46.8984 43.842 44.7864 45.3765 43.0035 44.8347C42.2534 44.6066 41.479 44.8583 41.0062 45.4836C39.8822 46.9699 37.2716 46.9699 36.1476 45.4835C35.6748 44.8582 34.9003 44.6066 34.1502 44.8346C33.3227 45.086 32.4244 44.89 31.6955 44.4216C32.3549 45.6785 33.9309 46.5022 35.3103 46.0831C36.0603 45.8552 36.8348 46.1067 37.3077 46.732C38.4316 48.2184 41.0423 48.2184 42.1662 46.732C42.639 46.1067 43.4134 45.855 44.1635 46.0831C45.9464 46.6249 48.0585 45.0904 48.0941 43.2273C48.109 42.4436 48.5876 41.7849 49.3285 41.5285ZM48.1551 28.9336C48.1172 28.788 48.0967 28.6384 48.094 28.4879C48.075 27.4896 47.4595 26.5858 46.6182 26.045C46.8111 26.4129 46.9259 26.8176 46.934 27.2393C46.9488 28.0185 47.4219 28.674 48.1551 28.9336ZM28.5507 40.0812C28.891 40.7423 29.4418 41.2849 30.1452 41.5284L30.1585 41.5331C30.0062 40.9515 29.5803 40.4858 28.9851 40.2798C28.8344 40.2274 28.6889 40.161 28.5507 40.0812Z" fill="#F35244"/>
<path d="M40.3907 43.4822C44.6142 43.1305 47.753 39.4216 47.4013 35.198C47.0496 30.9745 43.3407 27.8357 39.1171 28.1874C34.8936 28.5391 31.7548 32.2481 32.1065 36.4716C32.4582 40.6952 36.1672 43.8339 40.3907 43.4822Z" fill="#EFF4F7"/>
<path fill-rule="evenodd" clip-rule="evenodd" d="M39.7372 28.1836C41.6577 28.1836 43.4135 28.8892 44.7595 30.0551C43.6379 29.4133 42.3388 29.0463 40.9539 29.0463C36.7157 29.0463 33.2801 32.482 33.2801 36.7202C33.2801 39.0379 34.3074 41.1154 35.9317 42.5225C33.6208 41.2002 32.0635 38.7108 32.0635 35.8575C32.0634 31.6193 35.4991 28.1836 39.7372 28.1836Z" fill="#E2E3E3"/>
<path fill-rule="evenodd" clip-rule="evenodd" d="M39.7372 31.1885L41.0094 34.3015L44.3631 34.5494L41.7956 36.7213L42.5962 39.9876L39.7372 38.2168L36.8783 39.9876L37.6788 36.7213L35.1113 34.5494L38.4651 34.3015L39.7372 31.1885Z" fill="#FFDA2D"/>
<path fill-rule="evenodd" clip-rule="evenodd" d="M39.7373 31.1885L40.1554 32.2116L39.0694 34.8692L35.777 35.1125L35.1113 34.5495L38.4652 34.3016L39.7373 31.1885ZM41.0095 34.3015L44.3634 34.5494L43.7948 35.0303L41.2299 34.8407L41.0095 34.3015ZM37.7547 39.4448L36.8783 39.9876L37.6789 36.7213L38.2946 37.2422L37.7547 39.4448Z" fill="#FFC700"/>
</svg>
