<svg width="56" height="56" viewBox="0 0 56 56" fill="none" xmlns="http://www.w3.org/2000/svg">
<path d="M16.0841 12.7278C11.5625 24.118 11.2568 36.9875 16.815 47.5157H49.2122C52.9613 47.5157 56.0001 44.477 56.0001 40.7278V12.7278C55.1321 10.2894 17.2428 10.2386 16.0841 12.7278Z" fill="#DEF5FF"/>
<path d="M16.084 12.7276C10.5545 10.4161 5.17092 10.1114 0 12.7276V40.7276C0 44.4768 3.03866 47.5155 6.78792 47.5155H16.815C14.4942 36.4904 14.1834 23.7172 16.084 12.7276Z" fill="#C4E8FE"/>
<path d="M49.2126 0H19.6931C15.6651 3.57766 14.0413 7.89436 16.0845 12.7273H56.0005V6.78792C56.0005 3.03866 52.9617 0 49.2126 0Z" fill="#565F85"/>
<path d="M6.78792 0C3.03866 0 0 3.03866 0 6.78792V12.7273H16.084C16.9199 7.89414 18.1507 3.57744 19.6926 0H6.78792Z" fill="#3D3E65"/>
<path d="M35.6635 51.8797V21.0899C35.6635 18.8137 33.8194 16.9696 31.5432 16.9696H15.4688C11.0532 29.2828 11.609 44.0979 19.1238 56H31.5433C33.8195 56 35.6635 54.1559 35.6635 51.8797Z" fill="#7ADDFF"/>
<path d="M15.4692 16.9697H10.9357C8.65949 16.9697 6.81543 18.8138 6.81543 21.09V51.8798C6.81543 54.1559 8.65949 56 10.9357 56H19.1242C15.055 44.1142 14.0106 29.2962 15.4692 16.9697Z" fill="#21CBFC"/>
<path d="M31.4214 23.7575C31.4214 22.8208 30.6611 22.0605 29.7244 22.0605H16.5457C14.7074 22.0605 14.2549 22.8208 14.2549 23.7575C14.2549 24.6942 14.2549 25.4545 16.5457 25.4545H29.7244C30.6596 25.4545 31.4214 24.6943 31.4214 23.7575Z" fill="#FAE27A"/>
<path d="M14.8485 23.7576C14.8485 22.8207 15.6088 22.0607 16.5455 22.0607H12.7544C11.8174 22.0607 11.0575 22.8209 11.0575 23.7576C11.0575 24.6943 11.8166 25.4546 12.7544 25.4546H16.5455C15.6076 25.4546 14.8485 24.6944 14.8485 23.7576Z" fill="#FFD05C"/>
<path d="M7.86209 7.86321C8.69048 7.03482 8.69048 5.69174 7.86209 4.86335C7.0337 4.03497 5.69062 4.03497 4.86223 4.86335C4.03385 5.69174 4.03385 7.03482 4.86223 7.86321C5.69062 8.6916 7.0337 8.6916 7.86209 7.86321Z" fill="#55E579"/>
<path d="M16.9145 6.85696C17.184 5.71686 16.4782 4.57416 15.3381 4.30465C14.1981 4.03514 13.0553 4.74089 12.7858 5.88099C12.5163 7.02108 13.2221 8.16379 14.3622 8.4333C15.5023 8.70281 16.645 7.99705 16.9145 6.85696Z" fill="#FAE27A"/>
<path d="M24.1818 8.48462C25.3533 8.48462 26.303 7.53492 26.303 6.36341C26.303 5.19189 25.3533 4.24219 24.1818 4.24219C23.0102 4.24219 22.0605 5.19189 22.0605 6.36341C22.0605 7.53492 23.0102 8.48462 24.1818 8.48462Z" fill="#FF8B8B"/>
<path d="M51.7575 6.36341C51.7575 5.19134 50.8084 4.24219 49.6363 4.24219H36.9179C34.4626 4.24219 34.334 5.19134 34.334 6.36341C34.334 7.53547 34.392 8.48462 36.9179 8.48462H49.6364C50.8082 8.48462 51.7575 7.53547 51.7575 6.36341Z" fill="#DEF5FF"/>
<path d="M34.7971 6.36341C34.7971 5.19156 35.7462 4.24219 36.9183 4.24219H32.6671C31.4953 4.24219 30.5459 5.19134 30.5459 6.36341C30.5459 7.53547 31.4951 8.48462 32.6671 8.48462H36.9183C35.7462 8.48462 34.7971 7.53547 34.7971 6.36341Z" fill="#C4E8FE"/>
<path d="M31.4214 31.3943C31.6465 31.3943 31.8623 31.3049 32.0214 31.1458C32.1806 30.9867 32.27 30.7708 32.27 30.5458C32.27 30.3208 32.1806 30.1049 32.0214 29.9458C31.8623 29.7867 31.6465 29.6973 31.4214 29.6973H14.8595C14.2096 30.2592 14.221 30.8251 14.905 31.3942H31.4214V31.3943Z" fill="#21CBFC"/>
<path d="M11.0575 30.5454C11.0575 30.7705 11.1469 30.9863 11.306 31.1454C11.4652 31.3046 11.681 31.394 11.906 31.394H14.9048C14.8849 30.8285 14.8697 30.2628 14.8593 29.697H11.9059C11.7945 29.697 11.6842 29.7189 11.5812 29.7616C11.4783 29.8042 11.3847 29.8667 11.306 29.9455C11.2272 30.0243 11.1647 30.1178 11.122 30.2208C11.0794 30.3237 11.0575 30.434 11.0575 30.5454Z" fill="#21B8FC"/>
<path d="M32.9763 34.7881H15.079C13.9393 35.3502 13.9753 35.9157 15.2095 36.485H32.9763C33.1997 36.4825 33.4131 36.392 33.5701 36.2331C33.7272 36.0743 33.8152 35.8599 33.8152 35.6366C33.8152 35.4132 33.7272 35.1988 33.5701 35.04C33.4131 34.8811 33.1997 34.7906 32.9763 34.7881Z" fill="#21CBFC"/>
<path d="M11.9059 34.788C11.6809 34.788 11.465 34.8774 11.3059 35.0365C11.1468 35.1956 11.0574 35.4115 11.0574 35.6365C11.0574 35.8615 11.1468 36.0774 11.3059 36.2365C11.465 36.3956 11.6809 36.485 11.9059 36.485H15.2098C15.1617 35.9228 15.1181 35.3572 15.0793 34.7881H11.9059V34.788Z" fill="#21B8FC"/>
<path d="M28.957 41.5757C29.1804 41.5732 29.3938 41.4827 29.5508 41.3238C29.7079 41.165 29.7959 40.9506 29.7959 40.7273C29.7959 40.5039 29.7079 40.2895 29.5508 40.1307C29.3938 39.9718 29.1804 39.8813 28.957 39.8788H15.5598C14.8541 40.4893 14.985 41.0523 15.7806 41.5757H28.957Z" fill="#21CBFC"/>
<path d="M11.0575 40.7273C11.0575 40.9524 11.1469 41.1682 11.306 41.3273C11.4652 41.4865 11.681 41.5759 11.906 41.5759H15.7807C15.702 41.0109 15.6284 40.4452 15.5599 39.8789H11.906C11.7946 39.8789 11.6843 39.9008 11.5813 39.9434C11.4783 39.9861 11.3848 40.0485 11.306 40.1273C11.2272 40.2061 11.1647 40.2997 11.1221 40.4026C11.0794 40.5056 11.0575 40.6159 11.0575 40.7273Z" fill="#21B8FC"/>
<path d="M28.0137 46.6667L28.9612 45.1818L28.2315 44.9697H16.3204C15.2124 45.6905 15.5838 46.2236 16.6416 46.6667H28.0137Z" fill="#21CBFC"/>
<path d="M11.0575 45.8181C11.0575 46.0432 11.1469 46.259 11.306 46.4182C11.4652 46.5773 11.681 46.6667 11.906 46.6667H16.6421C16.5294 46.1021 16.4223 45.5364 16.3209 44.9697H11.906C11.7946 44.9697 11.6843 44.9916 11.5813 45.0342C11.4783 45.0769 11.3848 45.1394 11.306 45.2182C11.2272 45.2969 11.1647 45.3905 11.1221 45.4934C11.0794 45.5964 11.0575 45.7067 11.0575 45.8181Z" fill="#21B8FC"/>
<path d="M22.0877 51.7576C22.3128 51.7576 22.5286 51.6682 22.6877 51.5091C22.8469 51.3499 22.9363 51.1341 22.9363 50.9091C22.9363 50.684 22.8469 50.4682 22.6877 50.3091C22.5286 50.1499 22.3128 50.0605 22.0877 50.0605H17.3947C16.4703 50.6343 16.6312 51.1999 17.8316 51.7575H22.0877V51.7576Z" fill="#21CBFC"/>
<path d="M11.0575 50.9091C11.0575 51.1341 11.1469 51.35 11.306 51.5091C11.4652 51.6682 11.681 51.7576 11.906 51.7576H17.8317C17.6795 51.1937 17.5338 50.628 17.3948 50.0607H11.906C11.7946 50.0607 11.6843 50.0826 11.5813 50.1252C11.4784 50.1679 11.3848 50.2303 11.306 50.3091C11.2272 50.3879 11.1647 50.4814 11.1221 50.5844C11.0794 50.6873 11.0575 50.7977 11.0575 50.9091Z" fill="#21B8FC"/>
<path d="M44.9702 29.8126L47.5734 26.4617L46.3672 24.064L44.2156 23.8525C42.4746 24.6852 42.0495 25.4838 41.6123 27.2027L42.4988 29.1327L44.9702 29.8126Z" fill="#7ADDFF"/>
<path d="M42.2145 22.297L39.6113 25.6469L40.1803 27.2801L41.6125 27.2024L44.2158 23.8522L43.8283 22.29L42.2145 22.297Z" fill="#21CBFC"/>
<path d="M48.8657 21.328C47.0666 20.2091 45.7656 19.6452 44.5353 21.906L44.2158 23.8521L47.5735 26.4613L48.6154 25.1218C49.4819 24.0063 49.5523 22.5052 48.8657 21.328Z" fill="#FF8B8B"/>
<path d="M48.8654 21.3283C48.6474 20.9541 48.3597 20.6251 48.0177 20.3594C46.5368 19.2099 44.4054 19.4769 43.2549 20.9579L42.2141 22.2974L44.2154 23.8526L45.2576 22.5113C46.1323 21.3854 47.5738 20.962 48.8654 21.3283Z" fill="#FD5E5E"/>
<path d="M41.6121 27.2021L35.7735 32.9787L31.2012 40.6005L34.5598 43.2098C34.6154 43.1381 34.1494 43.7376 44.97 29.8122L41.6121 27.2021Z" fill="#FAE27A"/>
<path d="M39.6109 25.6475L29.1982 39.0479L31.2011 40.6013L41.6121 27.203L39.6109 25.6475Z" fill="#FFD05C"/>
<path d="M34.5567 43.2107L28.1635 46.6291C27.8598 46.7915 27.5057 46.5218 27.5817 46.1858L29.1965 39.0464C32.2889 38.645 34.1036 39.9948 34.5567 43.2107Z" fill="#565F85"/>
</svg>
