<svg width="21" height="21" viewBox="0 0 21 21" fill="none" xmlns="http://www.w3.org/2000/svg">
<g clip-path="url(#clip0_6040_337)">
<g clip-path="url(#clip1_6040_337)">
<path d="M3.38389 11.8419C3.22383 11.8424 3.06689 11.7976 2.93132 11.7125C2.79575 11.6274 2.68711 11.5055 2.61802 11.3612C2.54892 11.2168 2.52222 11.0557 2.541 10.8968C2.55978 10.7378 2.62329 10.5875 2.72413 10.4632L11.098 1.83548C11.1609 1.76298 11.2465 1.71398 11.3408 1.69654C11.4351 1.67909 11.5326 1.69423 11.6172 1.73948C11.7018 1.78473 11.7685 1.85739 11.8063 1.94553C11.8442 2.03368 11.8509 2.13208 11.8255 2.22457L10.2014 7.31659C10.1536 7.44476 10.1375 7.58263 10.1546 7.71838C10.1717 7.85413 10.2215 7.9837 10.2996 8.09598C10.3778 8.20827 10.4821 8.29991 10.6035 8.36305C10.7248 8.42618 10.8597 8.45894 10.9965 8.45849H16.9175C17.0776 8.45795 17.2345 8.50283 17.3701 8.58793C17.5056 8.67302 17.6143 8.79484 17.6834 8.93922C17.7525 9.08361 17.7792 9.24464 17.7604 9.4036C17.7416 9.56256 17.6781 9.71292 17.5773 9.83723L9.20334 18.4649C9.14053 18.5374 9.05493 18.5864 8.9606 18.6038C8.86627 18.6213 8.76881 18.6062 8.68422 18.5609C8.59963 18.5157 8.53293 18.443 8.49508 18.3549C8.45723 18.2667 8.45047 18.1683 8.47591 18.0758L10.0999 12.9838C10.1478 12.8556 10.1639 12.7178 10.1468 12.582C10.1297 12.4463 10.0799 12.3167 10.0018 12.2044C9.92357 12.0921 9.81931 12.0005 9.69793 11.9373C9.57655 11.8742 9.44167 11.8414 9.30485 11.8419H3.38389Z" stroke="#2685EE" stroke-width="2" stroke-linecap="round" stroke-linejoin="round"/>
</g>
</g>
<defs>
<clipPath id="clip0_6040_337">
<rect width="20.3004" height="20.3005" fill="white"/>
</clipPath>
<clipPath id="clip1_6040_337">
<rect width="20.3004" height="20.3004" fill="white"/>
</clipPath>
</defs>
</svg>
