<svg width="51" height="52" viewBox="0 0 51 52" fill="none" xmlns="http://www.w3.org/2000/svg">
<path d="M2.625 27.125H27.125V46.375H2.625V27.125Z" fill="#AAE1F9"/>
<path d="M0 46.375H29.75V48.125C29.75 49.0533 29.3813 49.9435 28.7249 50.5999C28.0685 51.2563 27.1783 51.625 26.25 51.625H3.5C2.57174 51.625 1.6815 51.2563 1.02513 50.5999C0.368749 49.9435 0 49.0533 0 48.125V46.375Z" fill="#F9E109"/>
<path d="M6.125 34.125V27.125H2.625V46.375H27.125V42.875H14.875C12.5544 42.875 10.3288 41.9531 8.68782 40.3122C7.04687 38.6712 6.125 36.4456 6.125 34.125Z" fill="#57B7EB"/>
<path d="M5.25 49C4.55381 49 3.88613 48.7234 3.39384 48.2312C2.90156 47.7389 2.625 47.0712 2.625 46.375H0V48.125C0 49.0533 0.368749 49.9435 1.02513 50.5999C1.6815 51.2563 2.57174 51.625 3.5 51.625H26.25C27.024 51.6225 27.7753 51.3635 28.3864 50.8885C28.9976 50.4136 29.434 49.7494 29.6275 49H5.25Z" fill="#FCBC04"/>
<path d="M49 28H38.5C37.5335 28 36.75 28.7835 36.75 29.75V40.25C36.75 41.2165 37.5335 42 38.5 42H49C49.9665 42 50.75 41.2165 50.75 40.25V29.75C50.75 28.7835 49.9665 28 49 28Z" fill="#36AAF2"/>
<path d="M43.75 37.625C45.1997 37.625 46.375 36.4497 46.375 35C46.375 33.5503 45.1997 32.375 43.75 32.375C42.3003 32.375 41.125 33.5503 41.125 35C41.125 36.4497 42.3003 37.625 43.75 37.625Z" fill="#57B7EB"/>
<path d="M39.375 32.375V28H38.5C38.0359 28 37.5908 28.1844 37.2626 28.5126C36.9344 28.8408 36.75 29.2859 36.75 29.75V40.25C36.75 40.7141 36.9344 41.1592 37.2626 41.4874C37.5908 41.8156 38.0359 42 38.5 42H49C49.4641 42 49.9092 41.8156 50.2374 41.4874C50.5656 41.1592 50.75 40.7141 50.75 40.25V39.375H46.375C44.5185 39.375 42.738 38.6375 41.4253 37.3247C40.1125 36.012 39.375 34.2315 39.375 32.375Z" fill="#4999E9"/>
<path d="M44.625 35C45.1082 35 45.5 34.6082 45.5 34.125C45.5 33.6418 45.1082 33.25 44.625 33.25C44.1418 33.25 43.75 33.6418 43.75 34.125C43.75 34.6082 44.1418 35 44.625 35Z" fill="#AAE1F9"/>
<path d="M0 8.75H10.5V22.75H0V8.75Z" fill="#36AAF2"/>
<path d="M21 14C24.866 14 28 10.866 28 7C28 3.13401 24.866 0 21 0C17.134 0 14 3.13401 14 7C14 10.866 17.134 14 21 14Z" fill="#F89C8D"/>
<path d="M19.25 9.625V4.375L24.5 7L19.25 9.625Z" fill="#AAE1F9"/>
<path d="M23.6254 11.3752C21.7689 11.3752 19.9884 10.6377 18.6757 9.32494C17.3629 8.01219 16.6254 6.23171 16.6254 4.3752C16.6232 3.16247 16.94 1.97049 17.5442 0.918945C16.6222 1.46055 15.8366 2.20615 15.2476 3.09855C14.6586 3.99095 14.2819 5.00642 14.1463 6.06705C14.0108 7.12767 14.12 8.20525 14.4656 9.21711C14.8112 10.229 15.384 11.1482 16.1401 11.9043C16.8962 12.6603 17.8154 13.2332 18.8273 13.5788C19.8391 13.9244 20.9167 14.0336 21.9773 13.898C23.0379 13.7625 24.0534 13.3857 24.9458 12.7967C25.8382 12.2077 26.5838 11.4221 27.1254 10.5002C26.0568 11.0965 24.849 11.3985 23.6254 11.3752Z" fill="#F8664F"/>
<path d="M2.625 14.875V8.75H0V22.75H10.5V20.125H7.875C6.48261 20.125 5.14726 19.5719 4.16269 18.5873C3.17812 17.6027 2.625 16.2674 2.625 14.875Z" fill="#4999E9"/>
<path d="M14.0547 36.0195L17.0857 34.2695L20.5857 40.3315C20.8177 40.7335 20.8806 41.2111 20.7605 41.6594C20.6404 42.1077 20.3471 42.49 19.9452 42.722C19.5432 42.9541 19.0656 43.017 18.6173 42.8969C18.169 42.7767 17.7868 42.4835 17.5547 42.0815L14.0547 36.0195Z" fill="#F8664F"/>
<path d="M19.3027 38.1059L17.089 34.2646L14.0527 36.0146L16.1265 39.6021L17.6402 38.7271L19.3027 38.1059Z" fill="#CC5144"/>
<path d="M32.5934 31.3775L17.6396 36.9775L13.2646 29.4L25.5934 19.25L32.5934 31.3775Z" fill="#36AAF2"/>
<path d="M9.47942 31.5879L13.2682 29.4004L17.6432 36.9779L13.8544 39.1654C13.2515 39.5135 12.535 39.6078 11.8626 39.4276C11.1901 39.2474 10.6168 38.8075 10.2687 38.2046L8.51867 35.1736C8.17059 34.5707 8.07626 33.8542 8.25643 33.1818C8.43661 32.5093 8.87653 31.936 9.47942 31.5879Z" fill="#F89C8D"/>
<path d="M6.99702 36.0479L8.51252 35.1729L10.2625 38.2039L8.74702 39.0789C8.34508 39.3109 7.86743 39.3738 7.41912 39.2537C6.97082 39.1336 6.58859 38.8403 6.35652 38.4384C6.12447 38.0364 6.06158 37.5588 6.1817 37.1105C6.30181 36.6622 6.59509 36.2799 6.99702 36.0479Z" fill="#CC5144"/>
<path d="M18.6554 34.2998C18.5648 34.3336 18.4771 34.3746 18.3929 34.4223L16.7217 35.3848L17.6404 36.9773L32.5942 31.3773L31.5004 29.4873L18.6554 34.2998Z" fill="#4999E9"/>
<path d="M16.2404 35.6648C15.544 36.0632 14.7516 36.2625 13.9497 36.2408C13.1477 36.2192 12.3672 35.9775 11.6934 35.5421C11.0195 35.1068 10.4784 34.4945 10.1291 33.7723C9.77981 33.0501 9.63581 32.2458 9.71285 31.4473L9.4766 31.5873C9.1777 31.7595 8.91568 31.9889 8.70551 32.2625C8.49535 32.536 8.34116 32.8483 8.25177 33.1815C8.16238 33.5147 8.13954 33.8622 8.18455 34.2043C8.22956 34.5463 8.34155 34.8761 8.5141 35.1748L10.2641 38.2023C10.4363 38.5012 10.6658 38.7632 10.9393 38.9734C11.2129 39.1835 11.5252 39.3377 11.8584 39.4271C12.1915 39.5165 12.5391 39.5393 12.8811 39.4943C13.2231 39.4493 13.5529 39.3373 13.8516 39.1648L17.6404 36.9773L16.7216 35.3848L16.2404 35.6648Z" fill="#F8664F"/>
<path d="M5.25 51.625V49.875C5.25 49.6429 5.34219 49.4204 5.50628 49.2563C5.67038 49.0922 5.89294 49 6.125 49C6.35706 49 6.57962 49.0922 6.74372 49.2563C6.90781 49.4204 7 49.6429 7 49.875V51.625H5.25ZM22.75 51.625V49.875C22.75 49.6429 22.8422 49.4204 23.0063 49.2563C23.1704 49.0922 23.3929 49 23.625 49C23.8571 49 24.0796 49.0922 24.2437 49.2563C24.4078 49.4204 24.5 49.6429 24.5 49.875V51.625H22.75Z" fill="#57B7EB"/>
<path d="M29.75 18.375C29.5607 18.375 29.3765 18.3136 29.225 18.2C29.0394 18.0608 28.9166 17.8535 28.8838 17.6237C28.851 17.394 28.9108 17.1607 29.05 16.975L31.675 13.475C31.8142 13.2894 32.0215 13.1666 32.2513 13.1338C32.481 13.101 32.7143 13.1608 32.9 13.3C33.0857 13.4392 33.2084 13.6465 33.2412 13.8763C33.274 14.106 33.2142 14.3394 33.075 14.525L30.45 18.025C30.3685 18.1337 30.2628 18.2219 30.1413 18.2826C30.0198 18.3434 29.8858 18.375 29.75 18.375ZM32.375 21.875C32.2392 21.875 32.1052 21.8434 31.9837 21.7826C31.8622 21.7219 31.7565 21.6337 31.675 21.525C31.5358 21.3394 31.476 21.106 31.5088 20.8763C31.5416 20.6465 31.6644 20.4392 31.85 20.3L35.35 17.675C35.4419 17.6061 35.5465 17.5559 35.6578 17.5274C35.7692 17.4989 35.885 17.4925 35.9987 17.5088C36.1125 17.525 36.2219 17.5635 36.3208 17.6221C36.4197 17.6806 36.5061 17.7581 36.575 17.85C36.6439 17.9419 36.6941 18.0465 36.7226 18.1578C36.7511 18.2692 36.7575 18.385 36.7412 18.4987C36.725 18.6125 36.6865 18.7219 36.6279 18.8208C36.5694 18.9197 36.4919 19.0061 36.4 19.075L32.9 21.7C32.7485 21.8136 32.5643 21.875 32.375 21.875ZM35 25.375C34.7679 25.3982 34.5362 25.3283 34.3557 25.1806C34.1752 25.0329 34.0607 24.8196 34.0375 24.5875C34.0143 24.3554 34.0842 24.1237 34.2319 23.9432C34.3796 23.7627 34.5929 23.6482 34.825 23.625L39.2 22.75C39.4321 22.7036 39.6731 22.7513 39.87 22.8825C40.0669 23.0138 40.2036 23.2179 40.25 23.45C40.2964 23.6821 40.2487 23.9231 40.1175 24.12C39.9862 24.3169 39.7821 24.4536 39.55 24.5L35.175 25.375H35Z" fill="#F9E109"/>
<path d="M7 13.125H5.25C5.01794 13.125 4.79538 13.0328 4.63128 12.8687C4.46719 12.7046 4.375 12.4821 4.375 12.25C4.375 12.0179 4.46719 11.7954 4.63128 11.6313C4.79538 11.4672 5.01794 11.375 5.25 11.375H7C7.23206 11.375 7.45462 11.4672 7.61872 11.6313C7.78281 11.7954 7.875 12.0179 7.875 12.25C7.875 12.4821 7.78281 12.7046 7.61872 12.8687C7.45462 13.0328 7.23206 13.125 7 13.125ZM7 16.625H3.5C3.26794 16.625 3.04538 16.5328 2.88128 16.3687C2.71719 16.2046 2.625 15.9821 2.625 15.75C2.625 15.5179 2.71719 15.2954 2.88128 15.1313C3.04538 14.9672 3.26794 14.875 3.5 14.875H7C7.23206 14.875 7.45462 14.9672 7.61872 15.1313C7.78281 15.2954 7.875 15.5179 7.875 15.75C7.875 15.9821 7.78281 16.2046 7.61872 16.3687C7.45462 16.5328 7.23206 16.625 7 16.625ZM7 20.125H3.5C3.26794 20.125 3.04538 20.0328 2.88128 19.8687C2.71719 19.7046 2.625 19.4821 2.625 19.25C2.625 19.0179 2.71719 18.7954 2.88128 18.6313C3.04538 18.4672 3.26794 18.375 3.5 18.375H7C7.23206 18.375 7.45462 18.4672 7.61872 18.6313C7.78281 18.7954 7.875 19.0179 7.875 19.25C7.875 19.4821 7.78281 19.7046 7.61872 19.8687C7.45462 20.0328 7.23206 20.125 7 20.125Z" fill="#FCBC04"/>
</svg>
