<svg width="56" height="56" viewBox="0 0 56 56" fill="none" xmlns="http://www.w3.org/2000/svg">
<path d="M20.8506 51.4138C18.7641 54.8427 14.5959 56.3733 10.7969 55.1059L10.7823 55.101L10.7824 55.0921C10.8297 49.7754 9.259 44.5707 6.28036 40.1734L4.37793 37.3649L14.4463 33.6777L14.7834 37.0815C15.3068 42.3668 17.4232 47.3664 20.8506 51.4138Z" fill="#EEEEEE"/>
<path d="M20.8503 51.4147C17.423 47.3672 15.3066 42.3677 14.7831 37.0825L14.446 33.6787L12.2402 34.4865L12.4974 37.0825C13.0209 42.3678 15.1373 47.3674 18.5647 51.4147L19.5529 53.0573C20.0505 52.5645 20.4862 52.0129 20.8503 51.4147Z" fill="#E0E0E0"/>
<path d="M4.88327 43.9711L11.5874 41.5226L7.33955 29.8113L0.635562 32.2598L0.579338 32.4136C-1.02663 36.8041 0.801658 41.7135 4.88327 43.9711Z" fill="#00B0FF"/>
<path d="M10.7872 39.4658L2.7832 42.3891C3.40574 43.0122 4.11259 43.5448 4.88309 43.9715L11.5871 41.5229L10.7872 39.4658Z" fill="#00A4DD"/>
<path d="M37.3131 31.1792L36.0335 31.6465L32.3926 21.6083L33.6724 21.1409C36.4347 20.132 39.4889 21.5613 40.4943 24.3332C41.4996 27.1052 40.0754 30.1703 37.3131 31.1792Z" fill="#EEEEEE"/>
<path d="M40.4941 24.3333C39.5568 21.7489 36.8384 20.3327 34.2363 20.9703C35.9061 21.3796 37.3478 22.5908 37.9798 24.3333C38.8682 26.7826 37.8589 29.4596 35.7066 30.7459L36.0333 31.6467L37.3129 31.1793C40.0753 30.1704 41.4995 27.1053 40.4941 24.3333Z" fill="#E0E0E0"/>
<path d="M18.542 38.9827L11.5877 41.5227L7.33984 29.8114L14.2943 27.2715L18.542 38.9827Z" fill="white"/>
<path d="M17.7829 36.8916L10.7871 39.4657L11.5871 41.5229L18.5414 38.9829L17.7829 36.8916Z" fill="#EEEEEE"/>
<path d="M39.6518 41.62L18.5417 38.9823L14.3076 27.2869L28.7756 11.6338L39.6518 41.62Z" fill="#00B0FF"/>
<path d="M38.7921 39.256L17.7832 36.8916L18.5418 38.9829L39.6519 41.6206L38.7921 39.256Z" fill="#00A4DD"/>
<path d="M53.2345 22.2227C52.6343 21.9414 51.9621 21.8269 51.3024 21.8269C49.0066 21.8269 47.139 23.7002 47.139 26.0029C47.139 27.4843 48.1146 28.2594 49.0785 28.2594C50.095 28.2594 50.888 27.79 51.4985 26.8259C51.5077 27.2552 51.637 27.6118 51.8767 27.8644C52.1185 28.1192 52.4655 28.2595 52.854 28.2595C54.4174 28.2595 56.0002 26.8192 56.0002 24.0663C56.0002 21.0781 53.9055 18.9912 50.9061 18.9912C47.2745 18.9912 44.5361 21.8792 44.5361 25.7091C44.5361 28.8802 46.7655 31.1818 49.8371 31.1818C50.9473 31.1818 52.0167 30.9734 53.0023 30.4495L52.671 29.5571C51.8615 30.0121 50.9505 30.1967 50.0269 30.1967C47.4232 30.1967 45.6738 28.3515 45.6738 25.6053C45.6738 22.3237 47.8164 19.9419 50.7684 19.9419C53.294 19.9419 54.8628 21.5621 54.8628 24.17C54.8628 25.3115 54.5364 26.2871 53.9674 26.8466C53.6863 27.1231 53.0342 27.4971 52.7051 27.082C52.4942 26.8165 52.4713 26.255 52.6373 25.4121L53.2345 22.2227ZM51.8687 22.9974L51.5196 24.8825C51.3284 25.9624 50.4209 27.1702 49.4926 27.1702C48.8286 27.1702 48.4323 26.7079 48.4323 25.9336C48.4323 24.2886 49.652 22.8987 51.0956 22.8987C51.3681 22.8988 51.6279 22.9319 51.8687 22.9974Z" fill="#00B0FF"/>
<path d="M16.6934 15.6025H3.07984C1.84269 15.6025 0.839844 14.5997 0.839844 13.3625V3.84254C0.839844 2.60539 1.84269 1.60254 3.07984 1.60254H16.6934C17.9306 1.60254 18.9334 2.60539 18.9334 3.84254V13.3625C18.9334 14.5996 17.9306 15.6025 16.6934 15.6025Z" fill="#FF5477"/>
<path d="M16.6474 1.60254H16.5332V15.6025H16.6474C17.9098 15.6025 18.9331 14.5792 18.9331 13.3168V3.88835C18.9331 2.62588 17.9098 1.60254 16.6474 1.60254Z" fill="#EA5075"/>
<path d="M7.2373 12.5621V4.51953L13.2543 8.54089L7.2373 12.5621Z" fill="white"/>
<g clip-path="url(#clip0_6040_530)">
<path d="M45.5939 0.514554C44.6315 -0.0421105 43.401 0.288229 42.8453 1.2524L37.8578 9.90752C37.3022 10.8717 37.6319 12.1046 38.5942 12.6612C39.5566 13.2179 40.7871 12.8875 41.3427 11.9234L46.3303 3.26826C46.8859 2.30409 46.5562 1.07122 45.5939 0.514554Z" fill="#FFC107"/>
<path d="M45.5935 0.514464C45.144 0.254452 44.636 0.188062 44.1655 0.289316C44.3704 0.333483 44.567 0.409452 44.7484 0.514464C45.7107 1.07113 46.0405 2.304 45.4849 3.26817L40.4973 11.9233C40.2012 12.4371 39.7135 12.7708 39.1768 12.8863C40.0078 13.0655 40.8944 12.7006 41.3424 11.9233L46.3299 3.26817C46.8856 2.304 46.5558 1.07113 45.5935 0.514464Z" fill="#FFB300"/>
<path d="M39.5978 12.9316C40.7079 12.9316 41.6077 12.0301 41.6077 10.9179C41.6077 9.80575 40.7079 8.90417 39.5978 8.90417C38.4878 8.90417 37.5879 9.80575 37.5879 10.9179C37.5879 12.0301 38.4878 12.9316 39.5978 12.9316Z" fill="#4CAF50"/>
<path d="M39.177 12.8867L39.1768 12.8874C39.3151 12.917 39.4562 12.9319 39.5977 12.9319C40.7077 12.9319 41.6076 12.0304 41.6076 10.9182C41.6078 10.6784 41.5652 10.4406 41.4817 10.2158L40.4976 11.9237C40.2015 12.4375 39.7137 12.7711 39.177 12.8867Z" fill="#43A047"/>
<path d="M51.3176 9.90749L46.3301 1.2524C45.7745 0.288229 44.5439 -0.0421105 43.5816 0.514554C42.6192 1.07122 42.2895 2.30409 42.8451 3.26826L47.8327 11.9234C48.3883 12.8875 49.6188 13.2179 50.5812 12.6612C51.5435 12.1046 51.8732 10.8717 51.3176 9.90749Z" fill="#2196F3"/>
<path d="M51.3182 9.90713L46.3306 1.25204C45.8827 0.474736 44.9961 0.109752 44.165 0.289045C44.7017 0.404545 45.1895 0.738248 45.4856 1.25204L50.4732 9.90715C51.0288 10.8713 50.699 12.1042 49.7367 12.6609C49.5554 12.7659 49.3587 12.8418 49.1538 12.886C49.6242 12.9873 50.1323 12.9209 50.5818 12.6609C51.5441 12.1042 51.8738 10.8713 51.3182 9.90713Z" fill="#1E88E5"/>
</g>
<g clip-path="url(#clip1_6040_530)">
<path fill-rule="evenodd" clip-rule="evenodd" d="M50.458 55.6309H43.458C42.5298 55.6309 41.6395 55.2621 40.9831 54.6057C40.3268 53.9494 39.958 53.0591 39.958 52.1309V45.1309C39.958 44.2026 40.3268 43.3124 40.9831 42.656C41.6395 41.9996 42.5298 41.6309 43.458 41.6309H50.458C51.3863 41.6309 52.2765 41.9996 52.9329 42.656C53.5893 43.3124 53.958 44.2026 53.958 45.1309V52.1309C53.958 53.0591 53.5893 53.9494 52.9329 54.6057C52.2765 55.2621 51.3863 55.6309 50.458 55.6309Z" fill="#DEEBF5"/>
<path fill-rule="evenodd" clip-rule="evenodd" d="M46.5205 45.5684H50.458C50.9631 45.569 51.4492 45.3754 51.8156 45.0278C52.182 44.6801 52.4008 44.2048 52.4266 43.7004C52.4525 43.1959 52.2835 42.7008 51.9545 42.3175C51.6255 41.9341 51.1618 41.6919 50.6593 41.6409C50.5923 41.6372 50.526 41.6309 50.458 41.6309H43.458C42.5298 41.6309 41.6395 41.9996 40.9831 42.656C40.3268 43.3124 39.958 44.2026 39.958 45.1309V52.1309C39.958 50.3904 40.6494 48.7212 41.8801 47.4905C43.1108 46.2598 44.78 45.5684 46.5205 45.5684Z" fill="#E6F7FF"/>
<path fill-rule="evenodd" clip-rule="evenodd" d="M50.458 48.6309C49.7658 48.6309 49.0891 48.8361 48.5135 49.2207C47.9379 49.6053 47.4893 50.1519 47.2244 50.7915C46.9595 51.431 46.8902 52.1347 47.0253 52.8137C47.1603 53.4926 47.4937 54.1162 47.9831 54.6057C48.4726 55.0952 49.0963 55.4286 49.7752 55.5636C50.4541 55.6987 51.1579 55.6293 51.7974 55.3644C52.4369 55.0995 52.9836 54.6509 53.3682 54.0754C53.7527 53.4998 53.958 52.8231 53.958 52.1309V45.1309C53.958 46.0591 53.5893 46.9494 52.9329 47.6057C52.2765 48.2621 51.3863 48.6309 50.458 48.6309Z" fill="#CDDCEB"/>
<path d="M51.3327 48.7331C51.3327 48.5627 51.3249 48.3916 51.3089 48.2217C51.2985 48.1136 51.2481 48.0133 51.1677 47.9403C51.0873 47.8674 50.9826 47.827 50.874 47.827C50.092 47.8262 48.3107 47.8262 47.4834 47.8262C47.3674 47.8262 47.2561 47.8723 47.174 47.9543C47.092 48.0364 47.0459 48.1476 47.0459 48.2637V49.1074C47.0459 49.2234 47.092 49.3347 47.174 49.4168C47.2561 49.4988 47.3674 49.5449 47.4834 49.5449H49.4565C49.4072 49.8195 49.3027 50.0812 49.1494 50.3143C48.996 50.5475 48.7971 50.7471 48.5645 50.9011V50.9016C48.5645 51.1972 48.6819 51.4808 48.891 51.6898C49.1 51.8989 49.3836 52.0163 49.6792 52.0163H50.0027C50.8473 51.2391 51.3327 50.0911 51.3327 48.7331Z" fill="#1E78FF"/>
<path d="M47.0462 53.0943C48.1336 53.1249 49.1916 52.7395 50.0046 52.0167L48.5665 50.9015C48.2202 51.1232 47.8279 51.2631 47.4194 51.3105C47.0109 51.3579 46.597 51.3117 46.2091 51.1753C45.8212 51.0388 45.4694 50.8158 45.1806 50.5232C44.8917 50.2305 44.6733 49.8759 44.542 49.4862H44.2071C43.9023 49.4863 43.61 49.6074 43.3944 49.8229C43.1789 50.0384 43.0578 50.3307 43.0577 50.6355V50.636C43.4295 51.375 43.9993 51.9963 44.7036 52.4304C45.4079 52.8644 46.2189 53.0943 47.0462 53.0943Z" fill="#00B450"/>
<path d="M44.5404 49.4862C44.3534 48.932 44.3534 48.3318 44.5404 47.7776V47.7771C44.5404 47.4723 44.4193 47.18 44.2037 46.9645C43.9882 46.749 43.6959 46.6279 43.3911 46.6278H43.0578C42.7457 47.2498 42.5831 47.936 42.5831 48.6319C42.5831 49.3278 42.7457 50.014 43.0578 50.636L44.5404 49.4862Z" fill="#FFB400"/>
<path d="M47.0461 45.9344C47.5544 45.9264 48.0524 46.078 48.4699 46.368C48.5528 46.4283 48.6545 46.457 48.7567 46.449C48.8589 46.441 48.9549 46.3967 49.0273 46.3242C49.2275 46.1343 49.4906 45.8712 49.698 45.6638C49.742 45.6199 49.7761 45.567 49.798 45.5088C49.82 45.4507 49.8293 45.3885 49.8253 45.3264C49.8213 45.2644 49.8042 45.2039 49.775 45.1489C49.7458 45.094 49.7052 45.046 49.656 45.008C48.9 44.4528 47.9841 44.1581 47.0461 44.1682C46.2186 44.1681 45.4073 44.3981 44.703 44.8325C43.9987 45.2669 43.429 45.8886 43.0576 46.6281L44.5403 47.7778C44.7129 47.2472 45.0474 46.784 45.4969 46.4533C45.9464 46.1227 46.4881 45.9412 47.0461 45.9344Z" fill="#E60014"/>
</g>
<defs>
<clipPath id="clip0_6040_530">
<rect width="14" height="14" fill="white" transform="translate(37.5879 -0.412109)"/>
</clipPath>
<clipPath id="clip1_6040_530">
<rect width="14" height="14" fill="white" transform="translate(39.958 41.6309)"/>
</clipPath>
</defs>
</svg>
