<svg width="56" height="55" viewBox="0 0 56 55" fill="none" xmlns="http://www.w3.org/2000/svg">
<path d="M23.1152 44.1074H32.8855V52.0009H23.1152V44.1074Z" fill="#A2C7F8"/>
<path d="M23.1152 44.1074H26.6483V52.0009H23.1152V44.1074Z" fill="#8DB3DF"/>
<path d="M37.8028 54.9856H18.1971C17.5747 54.9856 17.0703 54.4812 17.0703 53.8589V53.0145C17.0703 52.3921 17.5747 51.8877 18.1971 51.8877H37.8028C38.4251 51.8877 38.9296 52.3921 38.9296 53.0145V53.8589C38.9296 54.4812 38.425 54.9856 37.8028 54.9856Z" fill="#D8ECFE"/>
<path d="M22.7041 53.8589V53.0145C22.7041 52.3921 23.2085 51.8877 23.8309 51.8877H18.1971C17.5747 51.8877 17.0703 52.3921 17.0703 53.0145V53.8589C17.0703 54.4812 17.5747 54.9856 18.1971 54.9856H23.8309C23.2087 54.9856 22.7041 54.4812 22.7041 53.8589Z" fill="#C4E2FF"/>
<path d="M0 41.9663C0 43.2109 1.00898 44.2199 2.25356 44.2199H53.7465C54.9911 44.2199 56.0001 43.2109 56.0001 41.9663V38.6199H0V41.9663Z" fill="#D8ECFE"/>
<path d="M5.69012 41.9663V38.6199H0V41.9663C0 43.2109 1.00898 44.2199 2.25356 44.2199H7.94369C6.69911 44.2199 5.69012 43.2109 5.69012 41.9663Z" fill="#C4E2FF"/>
<path d="M30.0281 42.1718H25.9718C25.5187 42.1718 25.1515 41.8045 25.1515 41.3514C25.1515 40.8984 25.5187 40.5311 25.9718 40.5311H30.0281C30.4812 40.5311 30.8484 40.8984 30.8484 41.3514C30.8484 41.8045 30.4812 42.1718 30.0281 42.1718Z" fill="#A2C7F8"/>
<path d="M56 38.6199H0V6.87181C0 5.93841 0.756656 5.18164 1.69017 5.18164H54.3099C55.2433 5.18164 56.0001 5.9383 56.0001 6.87181L56 38.6199Z" fill="#647FA0"/>
<path d="M3.54211 35.6412C3.46812 35.6412 3.39485 35.6266 3.32649 35.5983C3.25813 35.57 3.19602 35.5285 3.1437 35.4762C3.09138 35.4239 3.04988 35.3617 3.02158 35.2934C2.99327 35.225 2.9787 35.1518 2.97872 35.0778V8.72375C2.9787 8.64976 2.99327 8.57649 3.02158 8.50813C3.04988 8.43977 3.09138 8.37766 3.1437 8.32534C3.19602 8.27302 3.25813 8.23152 3.32649 8.20322C3.39485 8.17491 3.46812 8.16035 3.54211 8.16036H5.69012V6.87181C5.69012 5.9383 6.44678 5.18164 7.3803 5.18164H1.69017C0.756656 5.18164 0 5.9383 0 6.87181V38.6199H5.69012V35.6412H3.54211Z" fill="#5E6F90"/>
<path d="M52.4577 8.16016H3.54191C3.46792 8.16014 3.39465 8.1747 3.32629 8.20301C3.25793 8.23132 3.19582 8.27282 3.1435 8.32514C3.09118 8.37746 3.04968 8.43957 3.02137 8.50793C2.99306 8.57629 2.9785 8.64956 2.97852 8.72355V35.0776C2.9785 35.1516 2.99306 35.2248 3.02137 35.2932C3.04968 35.3615 3.09118 35.4237 3.1435 35.476C3.19582 35.5283 3.25793 35.5698 3.32629 35.5981C3.39465 35.6264 3.46792 35.641 3.54191 35.641H17.0542L17.2436 35.5316L19.4128 31.7744H22.6665C22.9771 31.7744 23.2297 31.5217 23.2297 31.2111V25.1633L26.807 18.9674C26.9033 18.8004 27.076 18.7007 27.2688 18.7007C27.4617 18.7007 27.6344 18.8004 27.7307 18.9674L35.6877 32.7493L35.7295 32.7427L35.7707 32.7504L42.1459 21.7081C42.2423 21.5412 42.415 21.4415 42.6078 21.4415C42.8006 21.4415 42.9733 21.5412 43.0697 21.7081L51.0507 35.5316L51.2402 35.641H52.4577C52.5317 35.641 52.6049 35.6264 52.6733 35.5981C52.7417 35.5698 52.8038 35.5283 52.8561 35.476C52.9084 35.4237 52.9499 35.3615 52.9782 35.2932C53.0065 35.2248 53.0211 35.1516 53.0211 35.0776V8.72355C53.0211 8.64956 53.0065 8.57629 52.9782 8.50793C52.9499 8.43957 52.9084 8.37746 52.8561 8.32514C52.8038 8.27282 52.7417 8.23132 52.6733 8.20301C52.6049 8.1747 52.5317 8.16014 52.4577 8.16016Z" fill="#FED2A4"/>
<path d="M45.0136 18.3661C46.6316 18.3661 47.9432 17.0544 47.9432 15.4364C47.9432 13.8185 46.6316 12.5068 45.0136 12.5068C43.3956 12.5068 42.084 13.8185 42.084 15.4364C42.084 17.0544 43.3956 18.3661 45.0136 18.3661Z" fill="#FE9901"/>
<path d="M44.3375 15.4364C44.3375 14.2178 45.0817 13.1733 46.1404 12.7317C45.7834 12.5829 45.4004 12.5064 45.0136 12.5068C43.3956 12.5068 42.084 13.8185 42.084 15.4364C42.084 17.0544 43.3956 18.3661 45.0136 18.3661C45.4129 18.3661 45.7934 18.2859 46.1404 18.1412C45.0818 17.6996 44.3375 16.655 44.3375 15.4364Z" fill="#FB8801"/>
<path d="M7.70373 35.0776V31.7743H7.04213C6.96814 31.7743 6.89487 31.7598 6.82651 31.7315C6.75815 31.7032 6.69603 31.6617 6.64372 31.6093C6.5914 31.557 6.5499 31.4949 6.52159 31.4266C6.49328 31.3582 6.47872 31.2849 6.47873 31.2109V12.732C6.47873 12.1097 6.98317 11.6052 7.60552 11.6052H7.70384V8.72355C7.70383 8.64956 7.71839 8.57629 7.7467 8.50793C7.77501 8.43957 7.81651 8.37746 7.86882 8.32514C7.92114 8.27282 7.98326 8.23132 8.05162 8.20301C8.11998 8.1747 8.19324 8.16014 8.26723 8.16016H3.54191C3.46792 8.16014 3.39465 8.1747 3.32629 8.20301C3.25793 8.23132 3.19582 8.27282 3.1435 8.32514C3.09118 8.37746 3.04968 8.43957 3.02137 8.50793C2.99306 8.57629 2.9785 8.64956 2.97852 8.72355V35.0777C2.9785 35.1517 2.99306 35.2249 3.02137 35.2933C3.04968 35.3617 3.09118 35.4238 3.1435 35.4761C3.19582 35.5284 3.25793 35.5699 3.32629 35.5982C3.39465 35.6265 3.46792 35.6411 3.54191 35.6411H8.26713C8.11769 35.641 7.97439 35.5817 7.86874 35.476C7.76309 35.3703 7.70373 35.227 7.70373 35.0776Z" fill="#FFBD86"/>
<path d="M42.0513 21.6533L33.9756 35.6409H51.2402L43.1645 21.6533C42.9171 21.2249 42.2987 21.2249 42.0513 21.6533Z" fill="#0182FC"/>
<path d="M37.4447 35.5737L44.3231 23.6602L43.1645 21.6533C42.9171 21.2249 42.2987 21.2249 42.0513 21.6533L35.7295 32.6029L37.4447 35.5737Z" fill="#0172FB"/>
<path d="M31.7748 25.7532H31.6486L30.7282 27.3473C30.6724 27.4452 30.5916 27.5265 30.494 27.5829C30.3964 27.6392 30.2856 27.6685 30.1729 27.6679C30.0602 27.6686 29.9493 27.6392 29.8517 27.5829C29.7541 27.5266 29.6733 27.4452 29.6175 27.3473L28.7309 25.8115C28.5254 25.4556 28.1573 25.243 27.7463 25.243C27.3353 25.243 26.9673 25.4556 26.7618 25.8115L25.3236 28.3025C25.2077 28.5032 25.0001 28.6232 24.7683 28.6232C24.5366 28.6232 24.3289 28.5033 24.2131 28.3025L23.1207 26.4104V31.2113C23.1206 31.3317 23.0728 31.4471 22.9877 31.5322C22.9026 31.6173 22.7872 31.6652 22.6668 31.6653H19.35L17.0546 35.6412H37.484L31.7748 25.7532Z" fill="#0593FC"/>
<path d="M23.121 31.2111L23.1208 31.2118L24.5683 28.7047C24.4741 28.6793 24.3859 28.6355 24.3087 28.5758C24.2315 28.5161 24.1669 28.4417 24.1186 28.3569L23.121 26.6289V31.2111ZM22.6669 31.6651H19.3501L17.0547 35.641H20.5637L22.8964 31.6005C22.8271 31.6424 22.7478 31.6647 22.6669 31.6651Z" fill="#0182FC"/>
<path d="M46.5092 4.52008L46.2653 4.43094L35.1384 15.5577L35.1518 15.7078L38.2137 18.7698L38.3578 18.777L49.4846 7.65028L49.28 7.29099L46.5092 4.52008ZM53.6318 2.13352L51.782 0.28366C51.6921 0.19373 51.5854 0.122392 51.4679 0.0737215C51.3504 0.0250507 51.2245 0 51.0973 0C50.9701 0 50.8442 0.0250507 50.7267 0.0737215C50.6092 0.122392 50.5025 0.19373 50.4125 0.28366L48.0498 2.64638L48.235 2.98621L51.0405 5.79168L51.2692 5.86572L53.6319 3.503C53.8135 3.32138 53.9155 3.07506 53.9154 2.81824C53.9154 2.56141 53.8134 2.31511 53.6318 2.13352Z" fill="#8DB3DF"/>
<path d="M27.8252 18.9132C27.5778 18.4847 26.9594 18.4847 26.712 18.9132L23.1201 25.1344V26.6294L24.1177 28.3574C24.4067 28.8578 25.1289 28.8578 25.4179 28.3574L26.856 25.8664C27.2515 25.1815 28.2402 25.1815 28.6357 25.8664L29.5224 27.4022C29.8112 27.9026 30.5336 27.9026 30.8225 27.4022L31.7744 25.7534L27.8252 18.9132Z" fill="white"/>
<path d="M27.8252 18.9132C27.5778 18.4847 26.9594 18.4847 26.712 18.9132L23.1201 25.1344V26.6294L24.1177 28.3574C24.166 28.4422 24.2306 28.5166 24.3078 28.5763C24.385 28.636 24.4733 28.6798 24.5675 28.7052L29.023 20.988L27.8252 18.9132Z" fill="#EAF6FF"/>
<path d="M22.103 11.6055H7.6053C6.98295 11.6055 6.47852 12.1099 6.47852 12.7322V16.5675L6.74769 16.6801H22.9404L23.2296 16.5675V12.7322C23.2297 12.11 22.7253 11.6055 22.103 11.6055Z" fill="#FE646F"/>
<path d="M10.009 12.7322C10.009 12.1099 10.5135 11.6055 11.1358 11.6055H7.6053C6.98295 11.6055 6.47852 12.1099 6.47852 12.7322V16.5675L6.74769 16.6801H10.2782L10.009 16.5675V12.7322Z" fill="#FD4755"/>
<path d="M22.6663 31.7744H7.04191C6.96792 31.7745 6.89465 31.7599 6.82629 31.7316C6.75793 31.7033 6.69582 31.6618 6.6435 31.6095C6.59118 31.5571 6.54968 31.495 6.52137 31.4267C6.49306 31.3583 6.4785 31.285 6.47852 31.2111V16.5674H23.2297V31.2111C23.2297 31.285 23.2152 31.3583 23.1869 31.4267C23.1586 31.495 23.1171 31.5571 23.0648 31.6095C23.0124 31.6618 22.9503 31.7033 22.882 31.7316C22.8136 31.7599 22.7403 31.7745 22.6663 31.7744Z" fill="white"/>
<path d="M10.009 31.2111V16.5674H6.47852V31.2111C6.4785 31.285 6.49306 31.3583 6.52137 31.4267C6.54968 31.495 6.59118 31.5571 6.6435 31.6095C6.69582 31.6618 6.75793 31.7033 6.82629 31.7316C6.89465 31.7599 6.96792 31.7745 7.04191 31.7744H10.5724C10.423 31.7744 10.2797 31.7151 10.174 31.6094C10.0684 31.5038 10.009 31.3605 10.009 31.2111Z" fill="#EAF6FF"/>
<path d="M20.4133 27.3594H9.2959C8.84276 27.3594 8.47559 26.9921 8.47559 26.5391C8.47559 26.086 8.84276 25.7188 9.2959 25.7188H20.4133C20.6309 25.7188 20.8395 25.8052 20.9934 25.959C21.1472 26.1129 21.2336 26.3215 21.2336 26.5391C21.2336 26.7566 21.1472 26.9653 20.9934 27.1191C20.8395 27.2729 20.6309 27.3594 20.4133 27.3594Z" fill="#8DB3DF"/>
<path d="M17.0889 28.2891C18.0554 28.2891 18.8389 27.5056 18.8389 26.5391C18.8389 25.5726 18.0554 24.7891 17.0889 24.7891C16.1224 24.7891 15.3389 25.5726 15.3389 26.5391C15.3389 27.5056 16.1224 28.2891 17.0889 28.2891Z" fill="#0593FC"/>
<path d="M20.4132 22.5146H9.29578C8.84264 22.5146 8.47546 22.1474 8.47546 21.6943C8.47546 21.2413 8.84264 20.874 9.29578 20.874H20.4132C20.6308 20.874 20.8394 20.9604 20.9932 21.1143C21.1471 21.2681 21.2335 21.4768 21.2335 21.6943C21.2335 21.9119 21.1471 22.1205 20.9932 22.2744C20.8394 22.4282 20.6308 22.5146 20.4132 22.5146Z" fill="#8DB3DF"/>
<path d="M12.5822 23.4443C13.5487 23.4443 14.3322 22.6608 14.3322 21.6943C14.3322 20.7278 13.5487 19.9443 12.5822 19.9443C11.6157 19.9443 10.8322 20.7278 10.8322 21.6943C10.8322 22.6608 11.6157 23.4443 12.5822 23.4443Z" fill="#0593FC"/>
<path d="M20.5137 14.7402C20.9667 14.7402 21.334 14.373 21.334 13.9199C21.334 13.4669 20.9667 13.0996 20.5137 13.0996C20.0606 13.0996 19.6934 13.4669 19.6934 13.9199C19.6934 14.373 20.0606 14.7402 20.5137 14.7402Z" fill="#FFBD86"/>
<path d="M18.2539 14.7402C18.707 14.7402 19.0742 14.373 19.0742 13.9199C19.0742 13.4669 18.707 13.0996 18.2539 13.0996C17.8009 13.0996 17.4336 13.4669 17.4336 13.9199C17.4336 14.373 17.8009 14.7402 18.2539 14.7402Z" fill="#FFBD86"/>
<path d="M15.9932 14.7401C16.4462 14.7401 16.8135 14.3728 16.8135 13.9198C16.8135 13.4668 16.4462 13.0995 15.9932 13.0995C15.5401 13.0995 15.1729 13.4668 15.1729 13.9198C15.1729 14.3728 15.5401 14.7401 15.9932 14.7401Z" fill="#FFBD86"/>
<path d="M52.562 1.06374L51.7819 0.283783C51.692 0.193852 51.5853 0.122514 51.4678 0.0738436C51.3503 0.0251727 51.2244 0.00012207 51.0972 0.00012207C50.97 0.00012207 50.8441 0.0251727 50.7266 0.0738436C50.6091 0.122514 50.5024 0.193852 50.4124 0.283783L48.0497 2.6465L49.5145 4.11125L52.562 1.06374ZM38.4664 15.1593L47.73 5.8957L46.2653 4.43095L35.1385 15.5577L35.1518 15.7078L38.2137 18.7698L38.3579 18.777L39.8226 17.3123L38.4665 15.9561C38.3608 15.8505 38.3015 15.7072 38.3015 15.5577C38.3014 15.4083 38.3608 15.265 38.4664 15.1593Z" fill="#799FCA"/>
<path d="M35.1384 15.5576C35.0474 15.6487 34.9754 15.757 34.9267 15.8762L33.0391 20.4974C32.9417 20.7358 33.1795 20.9735 33.4179 20.8762L38.0391 18.9886C38.1583 18.9399 38.2666 18.8679 38.3577 18.7769L35.1384 15.5576Z" fill="#647FA0"/>
<path d="M46.2598 4.43559L48.0441 2.65125L51.263 5.87015L49.4787 7.65439L46.2598 4.43559Z" fill="#C4E2FF"/>
<path d="M46.2598 4.4356L48.044 2.65137L49.5085 4.1159L47.7244 5.90024L46.2598 4.4356Z" fill="#B3DAFE"/>
</svg>
