<svg width="750" height="376" viewBox="0 0 750 376" fill="none" xmlns="http://www.w3.org/2000/svg">
<g opacity="0.05">
<path d="M265.478 210.796H223.446C217.733 210.796 212.41 207.814 209.556 203.016L188.541 167.704C185.684 162.906 185.684 156.943 188.541 152.145L209.556 116.832C212.412 112.034 217.735 109.053 223.446 109.053H265.478C271.191 109.053 276.513 112.034 279.368 116.832L300.383 152.145C303.239 156.943 303.239 162.906 300.383 167.704L279.368 203.016C276.511 207.814 271.189 210.796 265.478 210.796ZM223.448 110.065C218.107 110.065 213.131 112.852 210.462 117.338L189.447 152.651C186.777 157.137 186.777 162.711 189.447 167.198L210.462 202.51C213.133 206.997 218.109 209.784 223.448 209.784H265.48C270.82 209.784 275.797 206.997 278.465 202.51L299.48 167.198C302.15 162.711 302.15 157.137 299.48 152.651L278.465 117.338C275.795 112.852 270.818 110.065 265.48 110.065H223.448Z" fill="white"/>
<path opacity="0.3" d="M167.317 265.575H125.285C119.574 265.575 114.249 262.594 111.395 257.796L90.3797 222.483C87.5232 217.683 87.5232 211.722 90.3797 206.922L111.395 171.61C114.251 166.812 119.574 163.83 125.285 163.83H167.317C173.028 163.83 178.352 166.812 181.206 171.61L202.221 206.922C205.078 211.72 205.078 217.683 202.221 222.483L181.206 257.796C178.35 262.596 173.028 265.575 167.317 265.575ZM125.285 164.844C119.944 164.844 114.967 167.632 112.299 172.118L91.2842 207.43C88.6138 211.917 88.6138 217.491 91.2842 221.977L112.299 257.29C114.969 261.776 119.946 264.563 125.285 264.563H167.317C172.657 264.563 177.634 261.776 180.302 257.29L201.317 221.977C203.987 217.491 203.987 211.917 201.317 207.43L180.302 172.118C177.632 167.632 172.655 164.844 167.317 164.844H125.285Z" fill="white"/>
<path d="M167.317 156.015H125.285C119.574 156.015 114.249 153.033 111.395 148.235L90.3797 112.923C87.5232 108.125 87.5232 102.162 90.3797 97.3617L111.395 62.0491C114.251 57.2511 119.574 54.2695 125.285 54.2695H167.317C173.028 54.2695 178.352 57.2511 181.206 62.0491L202.221 97.3617C205.078 102.16 205.078 108.123 202.221 112.923L181.206 148.235C178.35 153.033 173.028 156.015 167.317 156.015ZM125.285 55.2839C119.944 55.2839 114.967 58.071 112.299 62.5572L91.2842 97.8698C88.6138 102.356 88.6138 107.93 91.2842 112.416L112.299 147.729C114.969 152.215 119.946 155.002 125.285 155.002H167.317C172.657 155.002 177.634 152.215 180.302 147.729L201.317 112.416C203.987 107.93 203.987 102.356 201.317 97.8698L180.302 62.5572C177.632 58.071 172.655 55.2839 167.317 55.2839H125.285Z" fill="white"/>
<path opacity="0.3" d="M363.138 265.575H321.106C315.395 265.575 310.071 262.594 307.216 257.796L286.201 222.483C283.344 217.683 283.344 211.722 286.201 206.922L307.216 171.61C310.073 166.812 315.395 163.83 321.106 163.83H363.138C368.849 163.83 374.173 166.812 377.028 171.61L398.043 206.922C400.899 211.72 400.899 217.683 398.043 222.483L377.028 257.796C374.171 262.596 368.849 265.575 363.138 265.575ZM321.106 164.844C315.765 164.844 310.789 167.632 308.12 172.118L287.105 207.43C284.435 211.917 284.435 217.491 287.105 221.977L308.12 257.29C310.791 261.776 315.767 264.563 321.106 264.563H363.138C368.479 264.563 373.453 261.776 376.123 257.29L397.138 221.977C399.809 217.491 399.809 211.917 397.138 207.43L376.123 172.118C373.453 167.632 368.477 164.844 363.138 164.844H321.106Z" fill="white"/>
<path d="M363.138 156.015H321.106C315.395 156.015 310.071 153.033 307.216 148.235L286.201 112.923C283.344 108.125 283.344 102.162 286.201 97.3617L307.216 62.0491C310.073 57.2511 315.395 54.2695 321.106 54.2695H363.138C368.849 54.2695 374.173 57.2511 377.028 62.0491L398.043 97.3617C400.899 102.16 400.899 108.123 398.043 112.923L377.028 148.235C374.171 153.033 368.849 156.015 363.138 156.015ZM321.106 55.2839C315.765 55.2839 310.789 58.071 308.12 62.5572L287.105 97.8698C284.435 102.356 284.435 107.93 287.105 112.416L308.12 147.729C310.791 152.215 315.767 155.002 321.106 155.002H363.138C368.479 155.002 373.453 152.215 376.123 147.729L397.138 112.416C399.809 107.93 399.809 102.356 397.138 97.8698L376.123 62.5572C373.453 58.071 368.477 55.2839 363.138 55.2839H321.106Z" fill="white"/>
<path d="M-29.3807 265.575H-71.4127C-77.1238 265.575 -82.4481 262.594 -85.3026 257.796L-106.318 222.483C-109.174 217.683 -109.174 211.722 -106.318 206.922L-85.3026 171.61C-82.446 166.812 -77.1238 163.83 -71.4127 163.83H-29.3807C-23.6696 163.83 -18.3453 166.812 -15.4908 171.61L5.52412 206.922C8.38068 211.72 8.38068 217.683 5.52412 222.483L-15.4908 257.796C-18.3474 262.596 -23.6696 265.575 -29.3807 265.575ZM-71.4107 164.844C-76.7514 164.844 -81.7278 167.632 -84.3961 172.118L-105.411 207.43C-108.081 211.917 -108.081 217.491 -105.411 221.977L-84.3961 257.29C-81.7258 261.776 -76.7493 264.563 -71.4107 264.563H-29.3787C-24.038 264.563 -19.0615 261.776 -16.3932 257.29L4.62174 221.977C7.2921 217.491 7.2921 211.917 4.62174 207.43L-16.3932 172.118C-19.0635 167.632 -24.04 164.844 -29.3787 164.844H-71.4107Z" fill="white"/>
<path d="M68.9679 320.359H26.936C21.2249 320.359 15.9005 317.377 13.046 312.579L-7.96891 277.266C-10.8255 272.468 -10.8255 266.505 -7.96891 261.707L13.046 226.395C15.9026 221.597 21.2249 218.615 26.936 218.615H68.9679C74.679 218.615 80.0034 221.597 82.8579 226.395L103.873 261.707C106.729 266.505 106.729 272.468 103.873 277.266L82.8579 312.579C80.0013 317.377 74.679 320.359 68.9679 320.359ZM26.936 219.626C21.5953 219.626 16.6188 222.413 13.9505 226.899L-7.06448 262.212C-9.73483 266.698 -9.73483 272.272 -7.06448 276.758L13.9505 312.071C16.6209 316.557 21.5973 319.344 26.936 319.344H68.9679C74.3086 319.344 79.2851 316.557 81.9534 312.071L102.968 276.758C105.639 272.272 105.639 266.698 102.968 262.212L81.9534 226.899C79.283 222.413 74.3066 219.626 68.9679 219.626H26.936Z" fill="white"/>
<path opacity="0.3" d="M68.9679 210.796H26.936C21.2249 210.796 15.9005 207.814 13.046 203.016L-7.96891 167.704C-10.8255 162.906 -10.8255 156.943 -7.96891 152.145L13.046 116.832C15.9026 112.034 21.2249 109.053 26.936 109.053H68.9679C74.679 109.053 80.0034 112.034 82.8579 116.832L103.873 152.145C106.729 156.943 106.729 162.906 103.873 167.704L82.8579 203.016C80.0013 207.814 74.679 210.796 68.9679 210.796ZM26.936 110.065C21.5953 110.065 16.6188 112.852 13.9505 117.338L-7.06448 152.651C-9.73483 157.137 -9.73483 162.711 -7.06448 167.198L13.9505 202.51C16.6209 206.997 21.5973 209.784 26.936 209.784H68.9679C74.3086 209.784 79.2851 206.997 81.9534 202.51L102.968 167.198C105.639 162.711 105.639 157.137 102.968 152.651L81.9534 117.338C79.283 112.852 74.3066 110.065 68.9679 110.065H26.936Z" fill="white"/>
<path d="M656.372 210.796H614.34C608.627 210.796 603.305 207.814 600.45 203.016L579.435 167.704C576.579 162.906 576.579 156.943 579.435 152.145L600.45 116.832C603.307 112.034 608.629 109.053 614.34 109.053H656.372C662.085 109.053 667.408 112.034 670.262 116.832L691.277 152.145C694.134 156.943 694.134 162.906 691.277 167.704L670.262 203.016C667.406 207.814 662.083 210.796 656.372 210.796ZM614.342 110.065C609.002 110.065 604.025 112.852 601.357 117.338L580.342 152.651C577.671 157.137 577.671 162.711 580.342 167.198L601.357 202.51C604.027 206.997 609.004 209.784 614.342 209.784H656.374C661.715 209.784 666.691 206.997 669.36 202.51L690.375 167.198C693.045 162.711 693.045 157.137 690.375 152.651L669.36 117.338C666.689 112.852 661.713 110.065 656.374 110.065H614.342Z" fill="white"/>
<path opacity="0.3" d="M558.211 265.575H516.179C510.468 265.575 505.144 262.594 502.289 257.796L481.274 222.483C478.418 217.683 478.418 211.722 481.274 206.922L502.289 171.61C505.146 166.812 510.468 163.83 516.179 163.83H558.211C563.922 163.83 569.246 166.812 572.101 171.61L593.116 206.922C595.972 211.72 595.972 217.683 593.116 222.483L572.101 257.796C569.244 262.596 563.922 265.575 558.211 265.575ZM516.179 164.844C510.838 164.844 505.862 167.632 503.194 172.118L482.179 207.43C479.508 211.917 479.508 217.491 482.179 221.977L503.194 257.29C505.864 261.776 510.84 264.563 516.179 264.563H558.211C563.552 264.563 568.526 261.776 571.197 257.29L592.211 221.977C594.882 217.491 594.882 211.917 592.211 207.43L571.197 172.118C568.526 167.632 563.55 164.844 558.211 164.844H516.179Z" fill="white"/>
<path d="M558.211 156.015H516.179C510.468 156.015 505.144 153.033 502.289 148.235L481.274 112.923C478.418 108.125 478.418 102.162 481.274 97.3617L502.289 62.0491C505.146 57.2511 510.468 54.2695 516.179 54.2695H558.211C563.922 54.2695 569.246 57.2511 572.101 62.0491L593.116 97.3617C595.972 102.16 595.972 108.123 593.116 112.923L572.101 148.235C569.244 153.033 563.922 156.015 558.211 156.015ZM516.179 55.2839C510.838 55.2839 505.862 58.071 503.194 62.5572L482.179 97.8698C479.508 102.356 479.508 107.93 482.179 112.416L503.194 147.729C505.864 152.215 510.84 155.002 516.179 155.002H558.211C563.552 155.002 568.526 152.215 571.197 147.729L592.211 112.416C594.882 107.93 594.882 102.356 592.211 97.8698L571.197 62.5572C568.526 58.071 563.55 55.2839 558.211 55.2839H516.179Z" fill="white"/>
<path opacity="0.3" d="M459.863 210.796H417.831C412.119 210.796 406.795 207.814 403.941 203.016L382.926 167.704C380.069 162.906 380.069 156.943 382.926 152.145L403.941 116.832C406.797 112.034 412.119 109.053 417.831 109.053H459.863C465.574 109.053 470.898 112.034 473.752 116.832L494.767 152.145C497.624 156.943 497.624 162.906 494.767 167.704L473.752 203.016C470.896 207.814 465.574 210.796 459.863 210.796ZM417.831 110.065C412.49 110.065 407.513 112.852 404.845 117.338L383.83 152.651C381.16 157.137 381.16 162.711 383.83 167.198L404.845 202.51C407.515 206.997 412.492 209.784 417.831 209.784H459.863C465.203 209.784 470.18 206.997 472.848 202.51L493.863 167.198C496.533 162.711 496.533 157.137 493.863 152.651L472.848 117.338C470.178 112.852 465.201 110.065 459.863 110.065H417.831Z" fill="white"/>
<path opacity="0.3" d="M656.304 320.359H614.272C608.561 320.359 603.236 317.377 600.382 312.579L579.367 277.266C576.51 272.468 576.51 266.505 579.367 261.707L600.382 226.395C603.238 221.597 608.561 218.615 614.272 218.615H656.304C662.015 218.615 667.339 221.597 670.194 226.395L691.209 261.707C694.065 266.505 694.065 272.468 691.209 277.266L670.194 312.579C667.337 317.377 662.015 320.359 656.304 320.359ZM614.272 219.626C608.931 219.626 603.957 222.413 601.286 226.899L580.271 262.212C577.601 266.698 577.601 272.272 580.271 276.758L601.286 312.071C603.957 316.557 608.933 319.344 614.272 319.344H656.304C661.645 319.344 666.621 316.557 669.289 312.071L690.304 276.758C692.975 272.272 692.975 266.698 690.304 262.212L669.289 226.899C666.619 222.413 661.642 219.626 656.304 219.626H614.272Z" fill="white"/>
<path d="M556.19 375.751H514.158C508.447 375.751 503.122 372.769 500.268 367.972L479.253 332.659C476.396 327.861 476.396 321.898 479.253 317.1L500.268 281.787C503.124 276.989 508.447 274.008 514.158 274.008H556.19C561.903 274.008 567.225 276.989 570.08 281.787L591.095 317.1C593.951 321.898 593.951 327.861 591.095 332.659L570.08 367.972C567.223 372.769 561.901 375.751 556.19 375.751ZM514.16 275.02C508.819 275.02 503.843 277.807 501.174 282.294L480.159 317.606C477.489 322.092 477.489 327.666 480.159 332.153L501.174 367.465C503.845 371.952 508.821 374.739 514.16 374.739H556.192C561.532 374.739 566.509 371.952 569.177 367.465L590.192 332.153C592.862 327.666 592.862 322.092 590.192 317.606L569.177 282.294C566.507 277.807 561.53 275.02 556.192 275.02H514.16Z" fill="white"/>
<path opacity="0.3" d="M66.9298 101.745H24.8979C19.1868 101.745 13.8625 98.7637 11.0079 93.9658L-10.007 58.6532C-12.8636 53.8552 -12.8636 47.8921 -10.007 43.0921L11.0079 7.77954C13.8645 2.9816 19.1868 0 24.8979 0H66.9298C72.6409 0 77.9652 2.9816 80.8197 7.77954L101.835 43.0921C104.691 47.8901 104.691 53.8532 101.835 58.6532L80.8197 93.9658C77.9632 98.7637 72.6409 101.745 66.9298 101.745ZM24.8979 1.0144C19.5572 1.0144 14.5807 3.80143 11.9124 8.28771L-9.10257 43.6003C-11.7729 48.0866 -11.7729 53.6607 -9.10257 58.147L11.9124 93.4596C14.5827 97.9458 19.5592 100.733 24.8979 100.733H66.9298C72.2705 100.733 77.247 97.9458 79.9153 93.4596L100.93 58.147C103.601 53.6607 103.601 48.0866 100.93 43.6003L79.9153 8.28771C77.245 3.80143 72.2685 1.0144 66.9298 1.0144H24.8979Z" fill="white"/>
<path d="M174.217 75.0527H118.385C116.673 75.0527 115.283 76.4006 115.283 78.0621V132.225C115.283 133.887 116.673 135.234 118.385 135.234H174.217C175.93 135.234 177.319 133.887 177.319 132.225V78.0621C177.319 76.4006 175.93 75.0527 174.217 75.0527ZM118.385 79.0666C118.385 78.5127 118.848 78.0641 119.419 78.0641H144.749V83.9161C144.749 84.5037 145.013 85.0595 145.474 85.4406C145.936 85.8218 146.546 85.9885 147.147 85.8933C147.196 85.8853 147.244 85.8853 147.293 85.8793C147.362 85.8714 147.434 85.8655 147.503 85.8595C147.679 85.8456 147.853 85.8377 148.025 85.8456C148.05 85.8456 148.072 85.8456 148.097 85.8456C148.541 85.8714 148.977 85.9647 149.408 86.1275C151.197 86.8044 152.427 88.4282 152.496 90.181C152.496 90.2366 152.5 90.2922 152.5 90.3497C152.5 90.4073 152.498 90.4609 152.496 90.5185C152.427 92.2733 151.197 93.8951 149.408 94.572C148.874 94.7745 148.338 94.8678 147.79 94.8599C147.694 94.8599 147.593 94.8479 147.495 94.84C147.403 94.8321 147.311 94.8281 147.217 94.8142C147.194 94.8102 147.172 94.8122 147.149 94.8083C146.548 94.713 145.938 94.8797 145.476 95.2628C145.015 95.644 144.751 96.1978 144.751 96.7854V103.672C144.004 103.687 143.065 103.709 142.126 103.733C141.086 103.759 140.047 103.789 139.265 103.817C137.833 103.868 136.478 103.916 136.478 105.395C136.478 107.709 134.671 109.621 132.355 109.877C132.347 109.877 132.337 109.881 132.328 109.881C132.242 109.891 132.155 109.893 132.069 109.897C131.995 109.901 131.921 109.907 131.848 109.907C131.815 109.907 131.782 109.905 131.747 109.905C130.37 109.883 129.138 109.278 128.299 108.331C127.6 107.541 127.174 106.516 127.174 105.395C127.174 103.912 125.844 103.868 124.303 103.817C123.474 103.789 122.371 103.761 121.266 103.733C120.229 103.709 119.192 103.686 118.385 103.67V79.0646V79.0666ZM144.751 132.225H119.421C118.85 132.225 118.387 131.776 118.387 131.223V106.679C120.653 106.725 122.887 106.78 124.215 106.824C124.479 108.15 125.105 109.351 125.985 110.332C126.13 110.5 126.282 110.663 126.441 110.816C127.8 112.122 129.617 112.865 131.6 112.908C131.676 112.91 131.751 112.918 131.829 112.918C131.841 112.918 131.852 112.918 131.864 112.918C131.876 112.918 131.891 112.918 131.903 112.918C132.001 112.918 132.097 112.906 132.195 112.902C132.322 112.896 132.449 112.894 132.574 112.882C132.619 112.878 132.662 112.87 132.707 112.865C136.083 112.493 138.811 110.018 139.445 106.822C140.681 106.78 142.701 106.729 144.755 106.683V112.069C144.612 112.041 144.465 112.025 144.319 112.005C143.929 111.949 143.534 111.91 143.137 111.916C142.881 111.918 142.627 111.932 142.375 111.959C142.075 111.991 141.778 112.041 141.487 112.108C140.616 112.307 139.795 112.652 139.056 113.115C139.018 113.138 138.977 113.158 138.938 113.184C138.6 113.402 138.285 113.653 137.986 113.919C137.927 113.972 137.863 114.02 137.806 114.073C137.771 114.107 137.739 114.145 137.704 114.179C137.544 114.335 137.389 114.498 137.243 114.669C136.908 115.06 136.613 115.483 136.362 115.933C136.028 116.533 135.776 117.18 135.623 117.859C135.584 118.03 135.551 118.2 135.527 118.375C135.486 118.641 135.459 118.911 135.449 119.185C135.431 119.699 135.465 120.207 135.551 120.704C135.807 122.19 136.519 123.562 137.624 124.672C137.669 124.717 137.72 124.757 137.765 124.801C138.659 125.654 139.724 126.28 140.89 126.629C140.968 126.653 141.048 126.667 141.125 126.687C141.792 126.865 142.484 126.965 143.196 126.965C143.722 126.965 144.24 126.913 144.747 126.812V132.229L144.751 132.225ZM174.217 131.223C174.217 131.776 173.755 132.225 173.184 132.225H147.853V125.428C147.853 124.761 147.512 124.144 146.941 123.775C146.362 123.401 145.633 123.336 144.991 123.6C144.987 123.6 144.984 123.602 144.98 123.604C144.974 123.606 144.97 123.608 144.964 123.61C144.796 123.677 144.626 123.731 144.452 123.778C144.409 123.79 144.366 123.8 144.321 123.81C144.18 123.844 144.037 123.872 143.894 123.894C143.849 123.9 143.802 123.908 143.757 123.913C143.573 123.935 143.388 123.949 143.202 123.949C143.016 123.949 142.836 123.939 142.656 123.917C142.116 123.856 141.6 123.703 141.121 123.469C140.933 123.378 140.749 123.278 140.575 123.161C140.571 123.159 140.569 123.155 140.565 123.153C140.419 123.056 140.282 122.949 140.147 122.836C140.049 122.752 139.951 122.665 139.857 122.572C139.746 122.46 139.642 122.345 139.546 122.226C138.864 121.39 138.514 120.36 138.551 119.278C138.629 117.045 140.45 115.187 142.705 114.947C142.856 114.931 143.008 114.921 143.161 114.921C143.329 114.915 143.499 114.929 143.667 114.945C143.771 114.955 143.873 114.971 143.976 114.989C144.051 115 144.125 115.014 144.199 115.03C144.295 115.052 144.391 115.074 144.487 115.1C144.598 115.131 144.708 115.169 144.817 115.209C144.872 115.229 144.927 115.245 144.98 115.266H144.984C145.629 115.527 146.36 115.459 146.937 115.086C147.51 114.717 147.851 114.095 147.851 113.426V106.641H153.749C153.536 107.495 153.483 108.388 153.591 109.291C153.773 110.8 154.428 112.178 155.404 113.281C155.682 113.597 155.987 113.891 156.317 114.157C156.644 114.425 156.996 114.665 157.364 114.879C157.735 115.092 158.123 115.276 158.529 115.427C158.934 115.578 159.353 115.697 159.787 115.779C160.004 115.82 160.223 115.852 160.446 115.876C160.72 115.904 160.996 115.918 161.271 115.92C161.273 115.92 161.275 115.92 161.279 115.92C161.537 115.92 161.792 115.906 162.048 115.88C162.122 115.872 162.193 115.86 162.265 115.85C162.447 115.828 162.629 115.802 162.807 115.767C162.897 115.749 162.985 115.727 163.073 115.707C163.233 115.669 163.392 115.63 163.55 115.584C163.644 115.556 163.736 115.527 163.828 115.495C163.98 115.445 164.129 115.39 164.276 115.33C164.369 115.292 164.459 115.257 164.547 115.217C164.694 115.151 164.837 115.08 164.98 115.004C165.064 114.961 165.148 114.919 165.23 114.871C165.381 114.786 165.527 114.691 165.672 114.596C165.74 114.552 165.809 114.51 165.875 114.463C166.081 114.316 166.284 114.159 166.476 113.992C168.111 112.567 169.048 110.526 169.048 108.396C169.048 107.799 168.977 107.211 168.836 106.641H174.219V131.215L174.217 131.223ZM167.379 103.64C166.671 103.64 166.02 103.985 165.641 104.563C165.257 105.149 165.21 105.875 165.512 106.508C165.514 106.512 165.517 106.518 165.519 106.522C165.525 106.538 165.531 106.552 165.537 106.568C165.613 106.733 165.678 106.901 165.733 107.074C165.75 107.124 165.762 107.173 165.776 107.223C165.817 107.368 165.85 107.515 165.877 107.664C165.885 107.713 165.895 107.765 165.903 107.814C165.93 108.009 165.946 108.206 165.946 108.402C165.946 109.68 165.383 110.905 164.403 111.761C163.409 112.628 162.122 113.027 160.777 112.89C158.649 112.67 156.924 111.012 156.677 108.948C156.654 108.755 156.646 108.561 156.648 108.37C156.648 108.339 156.648 108.307 156.648 108.275C156.654 108.082 156.671 107.892 156.701 107.701C156.703 107.689 156.707 107.676 156.709 107.664C156.742 107.475 156.787 107.286 156.844 107.104C156.849 107.094 156.851 107.082 156.855 107.07C156.912 106.889 156.984 106.715 157.065 106.542C157.072 106.526 157.076 106.51 157.084 106.496C157.385 105.877 157.338 105.16 156.957 104.579C156.572 103.991 155.915 103.64 155.197 103.64H147.855V97.8732C147.943 97.8732 148.027 97.8633 148.115 97.8613C148.258 97.8554 148.404 97.8533 148.545 97.8414C148.715 97.8256 148.885 97.8037 149.052 97.7759C150.696 97.5318 152.206 96.7913 153.392 95.6162C154.604 94.4172 155.341 92.8986 155.543 91.2629C155.553 91.1855 155.566 91.1081 155.574 91.0287C155.58 90.9512 155.584 90.8718 155.588 90.7944C155.594 90.6971 155.604 90.6019 155.606 90.5046C155.606 90.453 155.602 90.4033 155.602 90.3517C155.602 90.3001 155.609 90.2505 155.606 90.1989C155.606 90.1016 155.594 90.0063 155.588 89.9091C155.584 89.8316 155.58 89.7522 155.574 89.6748C155.566 89.5974 155.553 89.52 155.543 89.4406C155.341 87.8029 154.602 86.2843 153.392 85.0873C152.206 83.9141 150.696 83.1737 149.054 82.9275C148.887 82.8997 148.717 82.8779 148.547 82.862C148.393 82.8481 148.238 82.8442 148.082 82.8402C148.007 82.8382 147.931 82.8303 147.855 82.8303V78.0661H173.186C173.757 78.0661 174.219 78.5147 174.219 79.0685V103.642H167.381L167.379 103.64Z" fill="white"/>
<path d="M528.06 116.275L528.082 116.265C528.774 115.967 529.584 116.27 529.891 116.941L532.301 122.206C532.608 122.877 532.296 123.663 531.604 123.961L531.582 123.971C530.89 124.269 530.08 123.966 529.773 123.295L527.363 118.03C527.056 117.359 527.368 116.573 528.06 116.275Z" fill="white"/>
<path d="M555.639 111.468C553.011 102.898 549.535 95.1726 545.084 88.4074C544.583 87.3097 543.195 86.8948 542.072 87.1667C542.072 87.1667 541.229 87.4387 540.951 87.6888C540.646 87.9627 540.108 88.5126 540.108 88.5126C540.108 88.5126 529.385 103.591 524.071 105.425L528.524 116.01C533.429 112.532 543.283 113.624 553.369 114.823C554.433 114.692 554.996 114.418 554.996 114.418C556.128 113.93 556.14 112.562 555.639 111.464V111.468Z" stroke="white" stroke-width="2.18284" stroke-miterlimit="10"/>
<path d="M520.149 118.52C518.214 116.431 516.976 113.613 516.329 110.174C516.286 107.957 516.337 107.661 517.53 107.147L521.031 105.638C522.431 105.035 524.07 105.648 524.692 107.006L528.183 114.633C528.803 115.989 528.173 117.575 526.777 118.176L523.272 119.687C522.079 120.201 521.825 120.491 520.151 118.522L520.149 118.52Z" stroke="white" stroke-width="2.18284" stroke-miterlimit="10"/>
<path d="M509.151 76.709H564.395C566.955 76.709 569.034 78.7258 569.034 81.2092V129.075C569.034 131.559 566.955 133.576 564.395 133.576H509.151C506.591 133.576 504.512 131.559 504.512 129.075V81.2092C504.512 78.7258 506.591 76.709 509.151 76.709Z" stroke="white" stroke-width="2.18284" stroke-miterlimit="10"/>
<path d="M533.188 89.3911H504.512V86.9355H533.188C533.886 86.9355 534.452 87.4854 534.452 88.1623C534.452 88.8392 533.886 89.3891 533.188 89.3891V89.3911Z" fill="white"/>
<path d="M569.879 89.3911H551.323C550.625 89.3911 550.059 88.8412 550.059 88.1643C550.059 87.4874 550.625 86.9375 551.323 86.9375H569.879V89.393V89.3911Z" fill="white"/>
<path d="M357.643 90.4448C351.181 84.1759 341.637 82.6871 333.704 85.9665C332.84 86.3238 331.995 86.7307 331.177 87.2012C329.64 88.0826 328.191 89.1644 326.869 90.4448C325.2 92.0626 323.825 93.9147 322.779 95.9494C318.809 103.669 320.092 112.878 325.904 119.294C326.213 119.635 326.534 119.973 326.869 120.298C327.205 120.624 327.553 120.934 327.907 121.233C331.952 124.681 337.07 126.49 342.259 126.49C345.149 126.49 348.058 125.93 350.815 124.785C351.203 124.624 351.588 124.451 351.971 124.267C352.437 124.04 352.892 123.798 353.338 123.54C354.901 122.641 356.346 121.557 357.645 120.296C366.129 112.066 366.129 98.675 357.645 90.4428L357.643 90.4448ZM325.31 97.1742C326.219 95.4055 327.418 93.7956 328.871 92.3862C329.974 91.3163 331.181 90.4091 332.46 89.6587L334.823 94.1807C334.013 94.6889 333.252 95.2805 332.554 95.9574C331.502 96.9777 330.635 98.1449 329.974 99.4293C327.549 104.144 328.238 109.734 331.611 113.756L327.907 117.349C322.955 111.774 321.885 103.836 325.31 97.1742ZM353.147 105.371C353.147 108.193 352.014 110.845 349.957 112.84C349.476 113.307 348.953 113.72 348.398 114.089C347.989 114.361 347.563 114.613 347.117 114.828C346.71 115.024 346.294 115.187 345.875 115.33C342.4 116.521 338.545 115.921 335.627 113.742C335.255 113.464 334.895 113.168 334.557 112.838C334.22 112.511 333.913 112.16 333.626 111.8C331.107 108.626 330.628 104.309 332.509 100.652C333.033 99.6337 333.72 98.7087 334.557 97.8968C335.04 97.4283 335.564 97.0134 336.114 96.6462C336.9 96.1241 337.749 95.7132 338.639 95.4095C339.787 95.0184 341.003 94.8021 342.257 94.8021C345.167 94.8021 347.901 95.9018 349.957 97.8968C352.014 99.8918 353.147 102.546 353.147 105.369V105.371ZM329.908 119.29L333.606 115.703C336.09 117.662 339.153 118.687 342.257 118.687C343.909 118.687 345.57 118.391 347.162 117.799L349.528 122.327C342.918 125.001 335.329 123.822 329.906 119.29H329.908ZM355.642 118.355C354.555 119.409 353.354 120.322 352.055 121.087L349.685 116.551C350.5 116.04 351.265 115.453 351.958 114.782C354.549 112.267 355.977 108.926 355.977 105.371C355.977 101.815 354.549 98.4725 351.958 95.9594C349.368 93.4462 345.922 92.0607 342.257 92.0607C340.551 92.0607 338.893 92.3644 337.348 92.9381L334.987 88.418C337.309 87.485 339.783 87.0146 342.259 87.0146C347.107 87.0146 351.954 88.8051 355.644 92.3842C363.023 99.5444 363.025 111.195 355.644 118.355H355.642Z" fill="white"/>
<path d="M324.07 74.9258H310.657C309.902 74.9258 309.29 75.5195 309.29 76.2518V76.3888C309.29 77.1211 309.902 77.7148 310.657 77.7148H324.07C324.825 77.7148 325.437 77.1211 325.437 76.3888V76.2518C325.437 75.5195 324.825 74.9258 324.07 74.9258Z" fill="white"/>
<path d="M324.068 79.502H313.958C313.203 79.502 312.591 80.0956 312.591 80.828V80.965C312.591 81.6973 313.203 82.291 313.958 82.291H324.068C324.823 82.291 325.435 81.6973 325.435 80.965V80.828C325.435 80.0956 324.823 79.502 324.068 79.502Z" fill="white"/>
<path d="M321.24 127.998H307.827C307.072 127.998 306.46 128.592 306.46 129.324V129.461C306.46 130.193 307.072 130.787 307.827 130.787H321.24C321.995 130.787 322.607 130.193 322.607 129.461V129.324C322.607 128.592 321.995 127.998 321.24 127.998Z" fill="white"/>
<path d="M321.238 132.572H311.128C310.373 132.572 309.761 133.166 309.761 133.898V134.035C309.761 134.768 310.373 135.361 311.128 135.361H321.238C321.993 135.361 322.605 134.768 322.605 134.035V133.898C322.605 133.166 321.993 132.572 321.238 132.572Z" fill="white"/>
<path d="M363.006 76.7559H376.419C377.174 76.7559 377.786 77.3494 377.786 78.0819V78.2208C377.786 78.9533 377.174 79.5469 376.419 79.5469H363.006C362.25 79.5469 361.639 78.9533 361.639 78.2208V78.0819C361.639 77.3494 362.25 76.7559 363.006 76.7559Z" fill="white"/>
<path d="M373.118 81.3301H363.006C362.251 81.3301 361.639 81.9238 361.639 82.6561V82.7931C361.639 83.5254 362.251 84.1191 363.006 84.1191H373.118C373.873 84.1191 374.485 83.5254 374.485 82.7931V82.6561C374.485 81.9238 373.873 81.3301 373.118 81.3301Z" fill="white"/>
<path d="M333.241 126.106L333.172 125.987C332.799 125.358 331.971 125.142 331.322 125.503L327.221 127.788L324.846 129.112C324.553 129.275 324.373 129.578 324.373 129.906V132.554C324.373 133.279 324.979 133.868 325.728 133.868H325.869C326.616 133.868 327.223 133.281 327.223 132.554V130.976L332.744 127.899C333.393 127.538 333.616 126.734 333.243 126.104L333.241 126.106Z" fill="white"/>
<path d="M352.652 85.3162L352.529 85.2487C351.88 84.8874 351.657 84.0835 352.03 83.4542L354.385 79.4761L355.75 77.1714C355.918 76.8876 356.231 76.7129 356.568 76.7129H359.298C360.045 76.7129 360.653 77.3005 360.653 78.027V78.164C360.653 78.8885 360.047 79.4781 359.298 79.4781H357.671L354.5 84.8339C354.127 85.4631 353.298 85.6795 352.65 85.3182L352.652 85.3162Z" fill="white"/>
<path d="M322.591 92.6365L322.713 92.569C323.362 92.2078 323.585 91.4038 323.213 90.7745L320.858 86.7964L319.493 84.4917C319.325 84.2079 319.012 84.0332 318.674 84.0332H315.944C315.198 84.0332 314.59 84.6208 314.59 85.3473V85.4843C314.59 86.2088 315.195 86.7984 315.944 86.7984H317.571L320.743 92.1542C321.115 92.7834 321.944 92.9998 322.593 92.6385L322.591 92.6365Z" fill="white"/>
<path d="M522.922 327.998L520.462 329.618C521.029 330.563 521.657 331.468 522.342 332.33L524.8 330.71C524.108 329.854 523.48 328.947 522.922 327.996V327.998Z" fill="white"/>
<path d="M519.952 317.113C519.952 304.938 530.161 295.035 542.711 295.035C546.506 295.035 550.083 295.946 553.232 297.546L554.825 295.106C551.213 293.226 547.088 292.158 542.711 292.158C528.526 292.158 516.985 303.354 516.985 317.115C516.985 321.67 518.256 325.94 520.462 329.621L522.921 328.001C521.035 324.785 519.95 321.071 519.95 317.115L519.952 317.113Z" fill="white"/>
<path d="M568.375 315.486L565.433 315.883C565.455 316.29 565.469 316.699 565.469 317.11C565.469 329.285 555.261 339.188 542.711 339.188C535.447 339.188 528.972 335.865 524.802 330.708L522.345 332.328C527.053 338.243 534.43 342.065 542.713 342.065C556.898 342.065 568.438 330.869 568.438 317.108C568.438 316.562 568.414 316.02 568.379 315.482L568.375 315.486Z" fill="white"/>
<path d="M565.001 312.643L567.942 312.246C566.648 305.928 562.889 300.467 557.682 296.838L556.094 299.272C560.585 302.45 563.837 307.18 564.999 312.645L565.001 312.643Z" fill="white"/>
<path d="M541.234 315.939L541.05 316.221C541.035 316.245 541.025 316.27 541.013 316.294C540.704 316.638 540.54 317.1 540.61 317.587V317.593C540.739 318.484 541.588 319.107 542.509 318.982L542.637 318.964L565.435 315.881L568.377 315.484C568.304 314.383 568.16 313.301 567.943 312.243L565.003 312.64L545.668 315.254L556.098 299.266L557.686 296.833C556.775 296.197 555.824 295.616 554.829 295.1L553.237 297.539L541.238 315.935L541.234 315.939Z" fill="white"/>
<path d="M513.873 357.6C520.479 357.6 525.834 352.405 525.834 345.997C525.834 339.589 520.479 334.395 513.873 334.395C507.268 334.395 501.913 339.589 501.913 345.997C501.913 352.405 507.268 357.6 513.873 357.6Z" stroke="white" stroke-width="2.55871" stroke-miterlimit="10"/>
<path d="M517.773 346.691C517.423 346.18 516.988 345.809 516.466 345.579C515.946 345.349 515.293 345.15 514.514 344.983C514.483 344.978 514.452 344.972 514.422 344.966C514.391 344.96 514.36 344.954 514.33 344.948C514.323 344.948 514.317 344.948 514.311 344.944C514.305 344.94 514.299 344.94 514.293 344.94C513.775 344.833 513.368 344.727 513.069 344.626C512.77 344.525 512.521 344.364 512.322 344.142C512.122 343.921 512.021 343.616 512.021 343.229V343.219C512.021 342.77 512.203 342.423 512.566 342.175C512.928 341.926 513.437 341.803 514.088 341.803C514.55 341.803 515.029 341.897 515.525 342.085C516.02 342.274 516.499 342.544 516.961 342.895L518.033 340.817C517.638 340.531 517.223 340.285 516.781 340.082C516.341 339.88 515.891 339.723 515.432 339.616C515.316 339.588 515.201 339.574 515.087 339.554V338.004H512.557V339.62C512.22 339.695 511.903 339.794 511.616 339.925C510.933 340.239 510.411 340.694 510.051 341.291C509.691 341.889 509.511 342.607 509.511 343.451V343.461C509.511 344.416 509.703 345.152 510.088 345.668C510.472 346.184 510.935 346.542 511.473 346.738C512.011 346.935 512.715 347.111 513.583 347.266C513.601 347.266 513.621 347.266 513.642 347.27C513.662 347.272 513.683 347.278 513.701 347.284C513.714 347.29 513.728 347.294 513.742 347.294C513.757 347.294 513.771 347.298 513.783 347.302C514.213 347.379 514.569 347.467 514.845 347.562C515.121 347.657 515.349 347.806 515.525 348.011C515.7 348.213 515.788 348.489 515.788 348.835V348.842C515.788 349.339 515.594 349.722 515.201 349.994C514.81 350.266 514.26 350.401 513.552 350.401C512.899 350.401 512.271 350.29 511.663 350.065C511.058 349.841 510.517 349.523 510.043 349.11L508.87 351.135C509.085 351.409 509.445 351.671 509.95 351.919C510.456 352.167 511.029 352.368 511.674 352.519C511.972 352.588 512.265 352.64 512.555 352.678V354.198H515.085V352.596C515.455 352.519 515.801 352.418 516.114 352.281C516.824 351.971 517.366 351.518 517.739 350.929C518.111 350.337 518.297 349.627 518.297 348.797V348.779C518.297 347.896 518.121 347.199 517.771 346.687L517.773 346.691Z" fill="white"/>
<path d="M27.2126 248.464C30.282 248.464 32.8869 246.515 33.7914 243.829C33.9489 243.361 34.0553 242.872 34.1024 242.366C34.1208 242.162 34.1351 241.957 34.1351 241.749C34.1351 241.403 34.1003 241.068 34.0471 240.736C33.8139 239.25 33.0813 237.922 32.0131 236.921C31.5548 236.492 31.0392 236.123 30.4744 235.827C29.9935 235.577 29.4758 235.387 28.9356 235.25C28.3831 235.111 27.8061 235.029 27.2106 235.029C23.3923 235.029 20.2861 238.043 20.2861 241.747C20.2861 245.451 23.3923 248.464 27.2106 248.464H27.2126ZM27.2126 238.017C27.8613 238.017 28.4711 238.176 29.0072 238.452C30.2268 239.079 31.0576 240.32 31.0576 241.749C31.0576 241.925 31.0412 242.1 31.0146 242.271C30.7506 244.081 29.1484 245.481 27.2106 245.481C25.0886 245.481 23.3637 243.807 23.3637 241.749C23.3637 239.69 25.0886 238.017 27.2106 238.017H27.2126Z" fill="white"/>
<path d="M46.3835 238.725L46.3712 238.672C45.9579 236.867 44.3782 235.466 42.4752 235.408C40.4105 235.345 38.6426 236.76 38.3009 238.727C38.2743 238.878 38.2395 239.112 38.2395 239.386V248.405C38.2395 248.679 38.0103 248.903 37.7258 248.903H23.3755C20.5374 248.903 18.2354 251.134 18.2354 253.889V264.335C18.2354 265.057 18.7387 265.718 19.4692 265.855C20.4535 266.038 21.3129 265.312 21.3129 264.39V253.889C21.3129 252.784 22.2357 251.888 23.3755 251.888H38.7408C40.1629 251.888 41.315 250.771 41.315 249.391V239.388C41.315 239.337 41.3252 239.275 41.3334 239.224C41.4173 238.743 41.8409 238.394 42.3401 238.394C42.8394 238.394 43.263 238.741 43.3469 239.222C43.3551 239.273 43.3653 239.339 43.3653 239.388V249.391C43.3653 251.871 41.2945 253.879 38.7387 253.879H36.6966C35.563 253.879 34.6442 254.771 34.6442 255.87V256.865V271.108V271.356C34.6442 271.441 34.6564 271.523 34.6708 271.604C34.7935 272.309 35.4218 272.849 36.183 272.849C36.9442 272.849 37.5724 272.311 37.6951 271.604C37.7094 271.523 37.7218 271.441 37.7218 271.356V257.363C37.7218 257.089 37.9509 256.865 38.2354 256.865H38.7387C42.9929 256.865 46.4408 253.52 46.4408 249.393V239.39C46.4408 239.116 46.406 238.882 46.3794 238.729L46.3835 238.725Z" fill="white"/>
<path d="M39.2648 237.861H36.5453C35.4751 237.861 34.6055 238.703 34.6055 239.743C34.6055 240.783 35.4731 241.625 36.5453 241.625H39.2648V237.861Z" fill="white"/>
<path d="M50.9797 237.861H45.418V241.625H50.9797C52.0519 241.625 52.9195 240.783 52.9195 239.743C52.9195 238.703 52.0519 237.861 50.9797 237.861Z" fill="white"/>
<path d="M76.7193 245.061C76.1013 244.768 72.0681 244.615 72.0681 244.615C71.2701 244.561 70.5703 245.153 70.5171 245.927C70.4619 246.701 71.0716 247.38 71.8697 247.432L72.283 247.459C63.2488 253.605 63.214 253.645 63.1792 253.673L55.2623 253.692C55.1416 253.698 55.025 253.722 54.9124 253.756C54.7426 253.792 54.5768 253.855 54.4234 253.953L43.435 262.349C42.7659 262.776 42.5756 263.656 43.0155 264.305C43.4555 264.954 44.362 265.136 45.0311 264.712L55.7371 256.497L63.7502 256.472C64.1349 256.45 73.5885 250.006 73.5885 250.006C73.5578 250.633 73.9671 251.231 74.6117 251.424C75.377 251.652 76.1954 251.231 76.4328 250.489L77.6053 246.798C77.8324 246.082 77.4354 245.319 76.7213 245.059L76.7193 245.061Z" fill="white"/>
<path d="M61.706 262.322H61.1433C59.4639 262.322 58.1025 263.643 58.1025 265.272V269.5C58.1025 271.129 59.4639 272.45 61.1433 272.45H61.706C63.3853 272.45 64.7467 271.129 64.7467 269.5V265.272C64.7467 263.643 63.3853 262.322 61.706 262.322Z" stroke="white" stroke-width="2.654" stroke-miterlimit="10"/>
<path d="M72.8271 258.271H72.2644C70.585 258.271 69.2236 259.592 69.2236 261.221V269.501C69.2236 271.13 70.585 272.451 72.2644 272.451H72.8271C74.5064 272.451 75.8678 271.13 75.8678 269.501V261.221C75.8678 259.592 74.5064 258.271 72.8271 258.271Z" stroke="white" stroke-width="2.654" stroke-miterlimit="10"/>
<path d="M42.5674 303.938C52.0728 303.938 59.7784 296.463 59.7784 287.241C59.7784 278.02 52.0728 270.545 42.5674 270.545C33.062 270.545 25.3564 278.02 25.3564 287.241C25.3564 296.463 33.062 303.938 42.5674 303.938Z" stroke="white" stroke-width="2.654" stroke-miterlimit="10"/>
<path d="M38.6856 286.482L34.2043 294.78C34.0365 295.089 34.3783 295.425 34.6995 295.266L43.3449 290.994C44.6299 290.359 45.6817 289.356 46.3611 288.122L51.0265 279.626C51.1984 279.314 50.8526 278.976 50.5292 279.137L41.6772 283.59C40.3983 284.233 39.3527 285.243 38.6835 286.482H38.6856Z" stroke="white" stroke-width="2.654" stroke-miterlimit="10"/>
<path d="M41.8324 285.101L45.6937 288.847L44.1222 290.371L40.2609 286.625C39.8271 286.205 39.8271 285.522 40.2609 285.101C40.6947 284.68 41.3986 284.68 41.8324 285.101Z" fill="white"/>
<path d="M272.94 139.854H263.48V141.098H260.606V139.854H239.284C236.237 139.854 233.759 142.257 233.759 145.213V184.74H235.576V187.529H233.759V189.487C233.759 192.442 236.237 194.846 239.284 194.846H272.942C275.989 194.846 278.467 192.442 278.467 189.487V145.211C278.467 142.255 275.989 139.852 272.942 139.852L272.94 139.854ZM275.451 189.488C275.451 190.832 274.324 191.924 272.94 191.924H239.282C237.896 191.924 236.771 190.83 236.771 189.488V145.213C236.771 143.869 237.898 142.778 239.282 142.778H272.94C274.326 142.778 275.451 143.871 275.451 145.213V189.488Z" fill="white"/>
<path d="M268.96 145.533H243.742C241.992 145.533 240.57 146.913 240.57 148.61V157.267C240.57 158.964 241.992 160.344 243.742 160.344H268.96C270.709 160.344 272.132 158.964 272.132 157.267V148.61C272.132 146.913 270.709 145.533 268.96 145.533ZM269.324 157.267C269.324 157.462 269.16 157.622 268.958 157.622H243.74C243.537 157.622 243.374 157.464 243.374 157.267V148.61C243.374 148.416 243.537 148.255 243.74 148.255H268.958C269.16 148.255 269.324 148.414 269.324 148.61V157.267Z" fill="white"/>
<path d="M268.847 162.238H240.849V188.056L243.652 188.273H271.688V186.879V178.976V171.072V163.634V162.516C271.688 162.421 271.673 162.328 271.651 162.238H268.847ZM250.12 185.484H243.65V180.37H250.12V185.484ZM250.12 177.579H243.65V172.465H250.12V177.579ZM250.12 169.676H243.65V165.027H250.12V169.676ZM259.465 185.484H252.995V180.37H259.465V185.484ZM259.465 177.579H252.995V172.465H259.465V177.579ZM259.465 169.676H252.995V165.027H259.465V169.676ZM268.811 177.579V185.482H262.34V172.463H268.811V177.577V177.579ZM268.811 169.676H262.34V165.027H268.811V169.676Z" fill="white"/>
<path d="M235.576 184.741H216.208C214.624 184.741 213.337 183.27 213.337 181.464V137.319C213.337 136.805 213.767 136.39 214.295 136.39H218.915C222.083 136.39 224.661 133.669 224.661 130.324V128.718C224.661 128.204 225.091 127.789 225.618 127.789H257.732C259.316 127.789 260.603 129.26 260.603 131.066V141.101H263.478V131.066C263.478 127.722 260.9 125 257.732 125H224.552C223.259 125 222.011 125.461 221.045 126.296L212.224 132.913C211.102 133.883 210.46 135.273 210.46 136.73V181.464C210.46 184.809 213.038 187.53 216.206 187.53H235.573V184.741H235.576ZM221.786 129.393V130.324C221.786 132.13 220.499 133.601 218.915 133.601H215.749L221.786 129.393Z" fill="white"/>
<path d="M254.652 133.799H241.02C240.254 133.799 239.633 134.401 239.633 135.145V135.288C239.633 136.031 240.254 136.634 241.02 136.634H254.652C255.418 136.634 256.04 136.031 256.04 135.288V135.145C256.04 134.401 255.418 133.799 254.652 133.799Z" fill="white"/>
<path d="M231.188 145.412H218.516C217.796 145.412 217.208 145.948 217.141 146.631C217.086 146.776 217.051 146.931 217.051 147.095V170.547C217.051 170.948 217.235 171.303 217.521 171.552C217.773 171.804 218.125 171.961 218.516 171.961H231.188C231.956 171.961 232.576 171.357 232.576 170.613V170.472C232.576 169.727 231.954 169.126 231.188 169.126H226.717V154.293H231.188C231.956 154.293 232.576 153.69 232.576 152.945V152.805C232.576 152.06 231.954 151.459 231.188 151.459H226.717V148.249H231.188C231.956 148.249 232.576 147.645 232.576 146.901V146.76C232.576 146.016 231.954 145.414 231.188 145.414V145.412ZM223.793 169.122H219.973V154.289H223.793V169.122ZM223.793 151.457H219.973V148.247H223.793V151.457Z" fill="white"/>
<path d="M750 155.002H712.001C706.661 155.002 701.684 152.215 699.016 147.729L678.001 112.416C675.331 107.93 675.331 102.356 678.001 97.8698L699.016 62.5572C701.686 58.0709 706.663 55.2839 712.001 55.2839H750V54.2715H712.001C706.29 54.2715 700.966 57.2531 698.111 62.051L677.097 97.3636C674.24 102.162 674.24 108.125 677.097 112.925L698.111 148.237C700.968 153.035 706.29 156.017 712.001 156.017H750V155.004V155.002Z" fill="white"/>
<path opacity="0.3" d="M750 264.563H712.001C706.661 264.563 701.684 261.776 699.016 257.29L678.001 221.977C675.331 217.491 675.331 211.917 678.001 207.43L699.016 172.118C701.686 167.631 706.663 164.844 712.001 164.844H750V163.832H712.001C706.29 163.832 700.966 166.814 698.111 171.612L677.097 206.924C674.24 211.722 674.24 217.685 677.097 222.485L698.111 257.798C700.968 262.598 706.29 265.577 712.001 265.577H750V264.565V264.563Z" fill="white"/>
</g>
</svg>
