<svg width="65" height="70" viewBox="0 0 65 70" fill="none" xmlns="http://www.w3.org/2000/svg">
<path fill-rule="evenodd" clip-rule="evenodd" d="M38.1522 54.6045C43.5845 54.0606 49.1295 54.2879 54.5013 54.5483C55.6576 54.6083 56.5655 55.5901 56.4462 56.7232C56.4075 57.8715 55.4162 58.7507 54.3406 58.7052C49.1349 58.4482 43.7599 58.2083 38.5797 58.7408C37.4747 58.8596 36.4563 58.026 36.3274 56.8823C36.1984 55.7394 37.0471 54.7241 38.1522 54.6045Z" fill="#EF6634"/>
<path fill-rule="evenodd" clip-rule="evenodd" d="M24.7975 38.8558C34.6548 31.7491 45.3642 25.9366 55.1012 18.5703C55.9756 17.8761 57.276 18.0631 57.9461 18.9771C58.6161 19.8919 58.4648 21.2015 57.5096 21.8813C47.7681 29.2728 37.0543 35.1099 27.1924 42.242C26.2407 42.9021 24.9466 42.6824 24.2804 41.7464C23.6949 40.8256 23.8458 39.516 24.7975 38.8558Z" fill="#EF6634"/>
<path fill-rule="evenodd" clip-rule="evenodd" d="M17.019 9.44205C15.8968 14.318 14.775 19.1941 13.6526 24.0709C13.4511 25.1977 12.3257 25.8942 11.2046 25.6372C10.0837 25.3793 9.44797 24.2757 9.64967 23.1481C10.7734 18.264 11.8965 13.3805 13.02 8.49721C13.3024 7.38486 14.4264 6.69396 15.5463 6.95756C16.5854 7.20672 17.3012 8.33052 17.019 9.44205Z" fill="#EF6634"/>
</svg>
