<svg width="216" height="44" viewBox="0 0 216 44" fill="none" xmlns="http://www.w3.org/2000/svg">
<g clip-path="url(#clip0_6042_478)">
<path d="M15.7585 9.12502H10.0907C9.90817 9.12502 9.69288 9.097 9.56651 8.96625L7.63355 7.03757C7.50719 6.91148 7.46974 6.69667 7.46974 6.51921L7.46038 4.15156C7.46038 3.95075 7.30593 3.78263 7.10468 3.78263L3.98761 3.79197C3.78636 3.79197 3.62723 3.95075 3.62723 4.15156L3.60851 7.27107C3.60851 7.47187 3.76763 7.63532 3.96889 7.63532L6.3652 7.62131C6.54773 7.62131 6.75366 7.66334 6.88471 7.78943L8.81299 9.71343C8.94403 9.84419 8.98148 10.0497 8.98616 10.2318V15.8917C8.98616 16.2747 9.2857 16.5922 9.66948 16.5922H15.7351C16.1142 16.5922 16.4231 16.284 16.4278 15.9058L16.4606 9.82084C16.4606 9.43791 16.1517 9.12969 15.7726 9.12502H15.7585Z" fill="#509DEF"/>
<path d="M13.0627 2.9187L9.88945 2.97941C9.79116 2.97941 9.61331 3.01677 9.54311 2.94672L8.48068 1.88665C8.41048 1.8166 8.44792 1.64381 8.44792 1.54107L8.47132 0.210147C8.47132 0.102739 8.40111 -0.00933917 8.28879 -0.00466925H6.58516C6.47752 -0.00466925 6.39327 0.0793893 6.39327 0.186798L6.38391 1.89599C6.38391 2.00807 6.47284 2.0968 6.58516 2.0968L8.1437 2.12015C8.27007 2.12015 8.39643 2.17618 8.48536 2.26491L9.35589 3.13352C9.4261 3.20357 9.39334 3.37168 9.39802 3.47442L9.36994 6.60794C9.36994 6.81809 9.52438 7.00488 9.735 7.00488H13.058C13.2639 7.00955 13.4324 6.84611 13.4324 6.63596L13.4465 3.29697C13.4465 3.08682 13.278 2.9187 13.0674 2.9187H13.0627Z" fill="#509DEF"/>
<path d="M6.67409 9.29314L3.50086 9.35385C3.40257 9.35385 3.22472 9.39121 3.15451 9.32116L2.09209 8.26109C2.02188 8.19104 2.05933 8.01826 2.05933 7.91552L2.08273 6.58459C2.08273 6.47718 2.01252 6.3651 1.9002 6.36977H0.201252C0.0936058 6.36977 0.00936058 6.45383 0.00936058 6.56124L0 8.27977C0 8.39185 0.0889255 8.47591 0.201252 8.48058H1.5913C1.68958 8.48058 1.90488 8.45256 1.97508 8.52261L2.97198 9.5173C3.04219 9.58735 3.00943 9.75547 3.01411 9.8582L2.98602 12.9917C2.98602 13.2019 3.14047 13.3887 3.35109 13.3887H6.67409C6.8847 13.3933 7.04851 13.2299 7.04851 13.0197L7.06256 9.68075C7.06256 9.4706 6.89407 9.30248 6.68345 9.30248L6.67409 9.29314Z" fill="#509DEF"/>
<path d="M2.37759 1.45234H0.664608C0.491423 1.45234 0.351028 1.59243 0.351028 1.76523V3.47442C0.351028 3.64722 0.491423 3.7873 0.664608 3.7873H2.37759C2.55078 3.7873 2.69117 3.64722 2.69117 3.47442V1.76523C2.69117 1.59243 2.55078 1.45234 2.37759 1.45234Z" fill="#509DEF"/>
<path d="M9.19208 22.4483V43.2248H20.9958V32.979C20.9958 30.4712 24.2673 29.4952 25.6433 31.5967C25.6433 31.5967 18.2531 19.7818 9.19208 22.453V22.4483Z" fill="#003366"/>
<path d="M32.28 21.3602L45.9745 0.826576H32.3127L25.6667 11.3152C24.3094 13.454 20.9958 12.4967 20.9958 9.96561V0.826576H9.65077V0.859266C9.64141 1.22819 9.79585 1.5831 10.0673 1.83061L13.0767 1.75589C13.9379 1.76056 14.6353 2.45638 14.6306 3.31097L14.6166 6.6453C14.6166 7.19635 14.3217 7.67268 13.8864 7.94821H15.7679C16.8069 7.94821 17.6447 8.79346 17.64 9.82551L17.6073 15.9104C17.6026 16.9331 16.7648 17.8344 15.7351 17.8344L9.66949 17.8998C9.51972 17.8998 9.49632 17.8765 9.19678 17.8438V22.4483C18.2578 19.7771 25.648 31.592 25.648 31.592L33.2769 43.2248H47.2569L32.2846 21.3602H32.28Z" fill="#0271E8"/>
<path opacity="0.22" d="M9.19208 22.4483C9.19208 22.4483 16.3904 22.042 21.2625 31.8302C22.0676 30.2284 24.506 29.8548 25.6433 31.5967C25.6433 31.5967 18.2531 19.7818 9.19208 22.453V22.4483Z" fill="black"/>
<path d="M78.9097 24.6992V43.0053H68.4165V25.9181C68.4165 22.4109 67.1809 20.627 64.4429 20.627C61.2697 20.627 59.2899 22.8733 59.2899 26.7773V43.01H48.7967V1.6298H59.2899V14.6075C61.5318 12.8049 64.3867 11.7075 67.4242 11.7075C74.4166 11.7075 78.9097 16.8211 78.9097 24.6992Z" fill="#0271E8"/>
<path d="M116.478 12.5761V42.9726H108.367L107.469 40.8245C104.974 42.8419 101.815 44 98.2767 44C88.9629 44 82.3029 37.2193 82.3029 27.772C82.3029 18.3248 88.9629 11.6561 98.2767 11.6561C101.862 11.6561 105.068 12.8516 107.586 14.9204L108.658 12.5714H116.478V12.5761ZM106.495 27.8C106.495 23.854 103.608 20.8932 99.6761 20.8932C95.7447 20.8932 92.8569 23.8586 92.8569 27.8C92.8569 31.7415 95.7447 34.7302 99.6761 34.7302C103.608 34.7302 106.495 31.7648 106.495 27.8Z" fill="#0271E8"/>
<path d="M152.072 24.4704V43.0053H141.579V25.9181C141.579 22.3783 140.25 20.627 137.605 20.627C134.334 20.627 132.452 22.906 132.452 26.7773V43.01H121.959V12.6088H129.321L130.763 15.7423C133.033 13.2205 136.412 11.7075 140.352 11.7075C147.429 11.7075 152.072 16.723 152.072 24.4657V24.4704Z" fill="#0271E8"/>
<path d="M168.841 3.60051H179.864V43.0053H168.841V3.60051Z" fill="#003366"/>
<path d="M216 13.3747H205.273V43.0053H194.344V13.3747H183.617V3.60051H216V13.3747Z" fill="#003366"/>
</g>
<defs>
<clipPath id="clip0_6042_478">
<rect width="216" height="44" fill="white"/>
</clipPath>
</defs>
</svg>
