<svg width="48" height="47" viewBox="0 0 48 47" fill="none" xmlns="http://www.w3.org/2000/svg">
<path d="M56 7C56 -1.83656 48.8366 -9 40 -9H16C7.16344 -9 0 -1.83656 0 7V31C0 39.8366 7.16344 47 16 47H40C48.8366 47 56 39.8366 56 31V7Z" fill="#F45925" fill-opacity="0.06"/>
<g clip-path="url(#clip0_6040_357)">
<path d="M29.3337 35C28.6264 35 27.9481 34.719 27.448 34.219C26.9479 33.7189 26.667 33.0406 26.667 32.3333V24.3333C26.667 23.6261 26.9479 22.9478 27.448 22.4477C27.9481 21.9476 28.6264 21.6667 29.3337 21.6667C29.6873 21.6667 30.0264 21.5262 30.2765 21.2761C30.5265 21.0261 30.667 20.687 30.667 20.3333V19C30.667 18.2928 30.386 17.6145 29.8859 17.1144C29.3858 16.6143 28.7076 16.3333 28.0003 16.3333C27.6467 16.3333 27.3076 16.1929 27.0575 15.9428C26.8075 15.6928 26.667 15.3536 26.667 15V12.3333C26.667 11.9797 26.8075 11.6406 27.0575 11.3905C27.3076 11.1405 27.6467 11 28.0003 11C30.1221 11 32.1569 11.8429 33.6572 13.3431C35.1575 14.8434 36.0003 16.8783 36.0003 19V32.3333C36.0003 33.0406 35.7194 33.7189 35.2193 34.219C34.7192 34.719 34.0409 35 33.3337 35H29.3337Z" stroke="#F45925" stroke-width="1.5" stroke-linecap="round" stroke-linejoin="round"/>
<path d="M14.6667 35C13.9594 35 13.2811 34.719 12.781 34.219C12.281 33.7189 12 33.0406 12 32.3333L12 24.3333C12 23.6261 12.281 22.9478 12.781 22.4477C13.2811 21.9476 13.9594 21.6667 14.6667 21.6667C15.0203 21.6667 15.3594 21.5262 15.6095 21.2761C15.8595 21.0261 16 20.687 16 20.3333V19C16 18.2928 15.719 17.6145 15.219 17.1144C14.7189 16.6143 14.0406 16.3333 13.3333 16.3333C12.9797 16.3333 12.6406 16.1929 12.3905 15.9428C12.1405 15.6928 12 15.3536 12 15L12 12.3333C12 11.9797 12.1405 11.6406 12.3905 11.3905C12.6406 11.1405 12.9797 11 13.3333 11C15.4551 11 17.4899 11.8429 18.9902 13.3431C20.4905 14.8434 21.3333 16.8783 21.3333 19V32.3333C21.3333 33.0406 21.0524 33.7189 20.5523 34.219C20.0522 34.719 19.3739 35 18.6667 35H14.6667Z" stroke="#F45925" stroke-width="1.5" stroke-linecap="round" stroke-linejoin="round"/>
</g>
<defs>
<clipPath id="clip0_6040_357">
<rect width="32" height="32" fill="white" transform="matrix(1 0 0 -1 8 39)"/>
</clipPath>
</defs>
</svg>
