<svg width="56" height="56" viewBox="0 0 56 56" fill="none" xmlns="http://www.w3.org/2000/svg">
<g clip-path="url(#clip0_6040_293)">
<path d="M24.259 15.2608C24.1022 14.9992 23.8756 14.7865 23.6047 14.6465C23.3338 14.5064 23.0293 14.4446 22.7252 14.4679L9.39301 15.4978C8.04323 15.6021 6.84088 16.3095 6.09407 17.4389L0.499039 25.9014C-0.0671912 26.758 -0.157316 27.8297 0.258087 28.7686C0.673381 29.7074 1.52705 30.3616 2.54149 30.5188L13.352 32.1932C13.6665 32.2418 13.9883 32.198 14.2784 32.0671C14.5684 31.9361 14.8141 31.7237 14.9855 31.4556L24.2339 16.9872C24.3981 16.7302 24.4875 16.4325 24.4919 16.1276C24.4963 15.8226 24.4157 15.5224 24.259 15.2608Z" fill="#E45A6E"/>
<path d="M40.7408 31.7409C40.4791 31.5842 40.179 31.5035 39.874 31.508C39.569 31.5124 39.2713 31.6018 39.0143 31.766L24.5461 41.0144C24.278 41.1858 24.0655 41.4315 23.9345 41.7215C23.8035 42.0115 23.7597 42.3334 23.8084 42.6479L25.4827 53.4584C25.6398 54.473 26.2941 55.3265 27.2331 55.7419C27.6158 55.9117 28.0298 55.9996 28.4485 55.9998C29.0361 55.9994 29.6105 55.8259 30.1001 55.501L38.5627 49.9058C39.6921 49.1592 40.3997 47.9568 40.5038 46.6069L41.5337 33.2748C41.5572 32.9707 41.4954 32.6661 41.3554 32.3951C41.2153 32.1241 41.0025 31.8976 40.7408 31.7409Z" fill="#D82E44"/>
<path d="M21.0946 45.0926C21.7476 45.7455 22.6754 46.051 23.5862 45.8986C36.9421 43.6654 47.5108 32.6073 51.5343 24.8283C56.0022 16.1905 56.1677 7.06262 55.9341 2.78171C55.8541 1.31479 54.6848 0.145467 53.2178 0.0654053C48.9369 -0.167999 39.8091 -0.00251595 31.1713 4.46531C23.3924 8.48886 12.3342 19.0576 10.101 32.4135C9.94876 33.3242 10.2541 34.252 10.9071 34.905L21.0946 45.0926Z" fill="#F1F1FB"/>
<path d="M55.0952 0.90329L16 39.9985L21.0938 45.0923C21.7467 45.7453 22.6746 46.0506 23.5853 45.8984C36.9412 43.6652 47.5099 32.607 51.5335 24.8281C56.0013 16.1904 56.1668 7.06248 55.9333 2.78157C55.8955 2.07347 55.597 1.40441 55.0952 0.90329Z" fill="#D6D5FB"/>
<path d="M38.3606 25.8379C36.2596 25.838 34.1595 25.0385 32.5601 23.4391C31.0107 21.8898 30.1574 19.8297 30.1574 17.6386C30.1574 15.4475 31.0107 13.3875 32.5601 11.8382C35.7583 8.63988 40.9625 8.63977 44.1609 11.8382C45.7103 13.3875 46.5635 15.4475 46.5635 17.6386C46.5635 19.8297 45.7103 21.8898 44.1609 23.4391C42.5619 25.0381 40.4609 25.8377 38.3606 25.8379ZM10.101 32.413C9.94876 33.3238 10.2541 34.2516 10.9071 34.9046L21.0946 45.0921C21.7476 45.7451 22.6754 46.0504 23.5862 45.8982C26.4924 45.4122 29.2663 44.5082 31.8699 43.3113L12.6879 24.1295C11.491 26.7329 10.587 29.5069 10.101 32.413Z" fill="#466288"/>
<path d="M1.67348 46.1493C2.09326 46.1493 2.51325 45.9891 2.8335 45.6688L8.18988 40.3124C8.8306 39.6718 8.8306 38.6329 8.18988 37.9922C7.54928 37.3515 6.51055 37.3515 5.86973 37.9922L0.513457 43.3486C-0.127257 43.9892 -0.127257 45.028 0.513457 45.6688C0.665602 45.8214 0.846412 45.9424 1.04549 46.0249C1.24457 46.1073 1.45799 46.1496 1.67348 46.1493ZM13.0987 42.9012C12.4581 42.2605 11.4193 42.2605 10.7785 42.9012L0.480535 53.1992C-0.160178 53.8398 -0.160178 54.8786 0.480535 55.5193C0.800892 55.8397 1.22078 55.9998 1.64067 55.9998C2.06055 55.9998 2.48044 55.8396 2.80069 55.5192L13.0987 45.2212C13.7394 44.5806 13.7394 43.5418 13.0987 42.9012Z" fill="#FDB43A"/>
<path d="M18.0075 47.8093C17.3669 47.1687 16.328 47.1687 15.6873 47.8093L10.331 53.1656C9.69032 53.8062 9.69032 54.845 10.331 55.4857C10.6514 55.8061 11.0713 55.9663 11.4911 55.9663C11.9108 55.9663 12.3308 55.8061 12.6511 55.4857L18.0075 50.1293C18.6482 49.4887 18.6482 48.4499 18.0075 47.8093ZM0.480469 55.5186C0.800826 55.839 1.22071 55.9991 1.6406 55.9991C2.06049 55.9991 2.48038 55.8389 2.80062 55.5185L13.0986 45.2205C13.7394 44.5799 13.7394 43.5411 13.0986 42.9004L0.480469 55.5186Z" fill="#F57A21"/>
<path d="M16 39.999L21.0938 45.0927C21.7467 45.7457 22.6746 46.0511 23.5853 45.8988C26.4915 45.4129 29.2654 44.5088 31.869 43.3119L22.2781 33.721L16 39.999ZM32.5592 23.4397C34.1586 25.0391 36.2587 25.8387 38.3597 25.8385C40.46 25.8383 42.5611 25.0387 44.16 23.4397C45.7094 21.8903 46.5626 19.8304 46.5626 17.6393C46.5626 15.4482 45.7094 13.3881 44.16 11.8388L32.5592 23.4397Z" fill="#354A67"/>
<path d="M38.3594 12.7197C37.099 12.7197 35.8386 13.1994 34.8792 14.159C33.9496 15.0885 33.4375 16.3245 33.4375 17.6392C33.4375 18.9539 33.9496 20.1898 34.8792 21.1194C36.7982 23.0384 39.9208 23.0385 41.8398 21.1194C42.7694 20.1897 43.2814 18.9537 43.2814 17.6391C43.2814 16.3244 42.7694 15.0884 41.8398 14.1589C40.8802 13.1994 39.6199 12.7197 38.3594 12.7197Z" fill="#4BBEFD"/>
<path d="M41.8394 14.1591L34.8789 21.1197C36.7979 23.0386 39.9205 23.0388 41.8394 21.1197C42.769 20.19 43.281 18.954 43.281 17.6394C43.281 16.3247 42.7691 15.0887 41.8394 14.1591Z" fill="#0590FB"/>
</g>
<defs>
<clipPath id="clip0_6040_293">
<rect width="56" height="56" fill="white"/>
</clipPath>
</defs>
</svg>
