<svg width="56" height="56" viewBox="0 0 56 56" fill="none" xmlns="http://www.w3.org/2000/svg">
<path d="M54.9895 13.9531C54.1948 7.80927 50.8527 0 36.6817 0C26.8951 0 26.7629 4.68781 16.3389 2.36359C8.74247 0.669922 1.18925 6.25723 0.139251 14.0625C-0.993437 22.4826 5.09733 26.3425 7.07461 33.4072C9.20753 41.0275 10.7394 56 20.2299 56C30.6947 56 31.235 47.9024 38.0133 39.0172C44.5352 30.4678 56.6755 26.9877 54.9895 13.9531Z" fill="url(#paint0_linear_6040_419)"/>
<path d="M49.3191 35.257L48.7722 35.8039H5.22236L4.67657 35.257V14.9756L5.22236 14.4287H48.7722L49.3191 14.9756V35.257Z" fill="#FFC498"/>
<path d="M49.3204 25.7286V34.2468C48.9977 34.3222 48.6608 34.3627 48.3152 34.3627C47.1252 34.3627 46.0468 33.8869 45.2582 33.1158L39.1682 37.5805C39.7782 38.4007 40.1122 39.3934 40.1219 40.4155H30.4127C30.428 39.0275 31.0274 37.7807 31.9746 36.9057L27.3699 31.636C27.2463 31.6404 27.1227 31.6425 26.998 31.6425C22.6733 31.6425 18.9535 29.0558 17.3008 25.3458L11.0763 27.763C11.1627 28.1054 11.2086 28.4641 11.2086 28.8338C11.2086 31.2499 9.24973 33.2088 6.83363 33.2088C6.04941 33.2088 5.31332 33.0021 4.67676 32.6411V25.0264C5.31332 24.6655 6.04941 24.4588 6.83363 24.4588C8.49285 24.4588 9.9366 25.383 10.6782 26.7447L16.9082 24.3243C16.5618 23.2612 16.3857 22.1501 16.3864 21.0321C16.3864 19.7163 16.6271 18.4574 17.0646 17.2947L13.3108 14.335C12.5759 14.8519 11.6991 15.1289 10.8007 15.128C8.38457 15.128 6.42566 13.1691 6.42566 10.753C6.42566 10.5649 6.4377 10.3789 6.46066 10.1963H15.1407C15.1636 10.3789 15.1757 10.5649 15.1757 10.753C15.1757 11.8358 14.7819 12.8257 14.13 13.5891L17.5185 16.26C19.2652 12.7972 22.8538 10.4205 26.998 10.4205C32.8583 10.4205 37.6096 15.1718 37.6096 21.0321C37.6096 26.3094 33.7552 30.6866 28.7086 31.5047L32.8594 36.2571C33.5693 35.8502 34.3907 35.6172 35.2679 35.6172C36.4688 35.6172 37.5669 36.0536 38.4146 36.7766L44.5757 32.2605C44.1587 31.5758 43.9388 30.7894 43.9402 29.9877C43.9402 27.5716 45.898 25.6127 48.3152 25.6127C48.6608 25.6127 48.9977 25.6532 49.3204 25.7286Z" fill="#FFAA66"/>
<path d="M49.3194 11.29V14.976H4.67578V11.29C4.67578 10.6863 5.16578 10.1963 5.76953 10.1963H48.2256C48.8294 10.1963 49.3194 10.6863 49.3194 11.29Z" fill="#FFAA66"/>
<path d="M14.1302 13.5891C14.8064 12.799 15.1773 11.7929 15.1758 10.753C15.1758 10.5649 15.1637 10.3789 15.1408 10.1963H6.46078C6.43781 10.3789 6.42578 10.5649 6.42578 10.753C6.42578 12.7732 7.79516 14.4729 9.65562 14.976H11.9459C12.4414 14.8414 12.9019 14.6216 13.3109 14.335L14.1236 14.976H15.89L14.1302 13.5891ZM41.7419 10.1963V14.4291C41.7419 14.7321 41.4969 14.976 41.195 14.976H31.7253C31.4234 14.976 31.1784 14.7321 31.1784 14.4291V10.1963H41.7419Z" fill="#FF9C33"/>
<path d="M49.3192 35.2571V39.3215C49.3192 39.9252 48.8292 40.4152 48.2254 40.4152H5.76932C5.16557 40.4152 4.67557 39.9252 4.67557 39.3215V35.2571H49.3192Z" fill="#6C6CFF"/>
<path d="M39.1686 37.58C39.7786 38.4002 40.1125 39.3928 40.1223 40.415H30.4131C30.4284 39.027 31.0278 37.7801 31.975 36.9051L30.5345 35.2568H31.987L32.8598 36.2565C33.5697 35.8496 34.3911 35.6167 35.2682 35.6167C36.4692 35.6167 37.5673 36.0531 38.415 36.7761L40.4876 35.2568H42.3372L39.1686 37.58Z" fill="#4D4DFF"/>
<path d="M20.4715 40.4152H33.5232V46.8617H20.4715V40.4152Z" fill="#B2B2FF"/>
<path d="M33.5228 40.415V45.0044C31.7028 44.3033 30.4111 42.5391 30.4111 40.4719V40.415H33.5228Z" fill="#9393FF"/>
<path d="M20.4717 40.415H33.5234V43.04H20.4717V40.415Z" fill="#9393FF"/>
<path d="M35.3076 49.3008H18.6885C18.5144 49.3008 18.3475 49.2317 18.2244 49.1086C18.1014 48.9855 18.0322 48.8186 18.0322 48.6446V47.5186C18.0322 47.3445 18.1014 47.1776 18.2244 47.0545C18.3475 46.9314 18.5144 46.8623 18.6885 46.8623H35.3076C35.4816 46.8623 35.6485 46.9314 35.7716 47.0545C35.8947 47.1776 35.9638 47.3445 35.9638 47.5186V48.6446C35.9638 48.8186 35.8947 48.9855 35.7716 49.1086C35.6485 49.2317 35.4816 49.3008 35.3076 49.3008Z" fill="#D8D8FF"/>
<path d="M18.1222 15.4002C17.9967 15.4003 17.875 15.3571 17.7777 15.2778L13.4636 11.7278C13.3537 11.6355 13.2844 11.5037 13.2708 11.3608C13.2572 11.2179 13.3002 11.0753 13.3908 10.9639C13.4813 10.8525 13.612 10.7811 13.7546 10.7652C13.8973 10.7493 14.0405 10.7901 14.1533 10.8788L18.4674 14.4288C18.5551 14.5001 18.6185 14.5967 18.649 14.7055C18.6795 14.8143 18.6756 14.9299 18.6377 15.0363C18.5999 15.1428 18.53 15.2349 18.4377 15.3001C18.3454 15.3652 18.2352 15.4002 18.1222 15.4002Z" fill="#FF7300"/>
<path d="M10.7998 12.5029C13.2161 12.5029 15.1748 10.5442 15.1748 8.12793C15.1748 5.71168 13.2161 3.75293 10.7998 3.75293C8.38356 3.75293 6.4248 5.71168 6.4248 8.12793C6.4248 10.5442 8.38356 12.5029 10.7998 12.5029Z" fill="#FFC498"/>
<path d="M12.8866 9.44132L12.0162 8.57091C12.3793 7.8778 12.27 6.99985 11.6883 6.41808C10.9719 5.70179 9.80636 5.70179 9.08996 6.41808C8.37366 7.13438 8.37366 8.3001 9.08996 9.01639C9.26046 9.18708 9.463 9.32241 9.68595 9.4146C9.90889 9.5068 10.1479 9.55405 10.3891 9.55364C10.6864 9.55386 10.9793 9.48203 11.2428 9.3443L12.1132 10.2147C12.2201 10.3215 12.3599 10.3748 12.4999 10.3748C12.6399 10.3748 12.7798 10.3215 12.8867 10.2147C12.9892 10.1121 13.0468 9.97303 13.0468 9.82799C13.0468 9.68295 12.9892 9.54386 12.8866 9.44132ZM9.86346 8.243C9.72426 8.10345 9.64609 7.9144 9.64609 7.71729C9.64609 7.52019 9.72426 7.33113 9.86346 7.19158C10.0084 7.04666 10.1988 6.97414 10.3892 6.97414C10.5796 6.97414 10.77 7.04666 10.915 7.19158C11.2048 7.48143 11.2048 7.95316 10.915 8.243C10.6251 8.53285 10.1534 8.53296 9.86346 8.243Z" fill="white"/>
<path d="M48.2266 10.1963H5.77051C5.16676 10.1963 4.67676 10.6863 4.67676 11.29V39.3218C4.67676 39.9255 5.16676 40.4155 5.77051 40.4155H48.2266C48.8304 40.4155 49.3204 39.9255 49.3204 39.3218V11.29C49.3204 10.6863 48.8304 10.1963 48.2266 10.1963Z" fill="url(#paint1_linear_6040_419)"/>
<path d="M41.5342 44.9379C41.4561 44.938 41.379 44.9214 41.3079 44.8891C41.2368 44.8569 41.1734 44.8097 41.1221 44.7509L37.7539 40.8682C37.6624 40.7584 37.6174 40.6172 37.6287 40.4747C37.6399 40.3322 37.7065 40.1998 37.8141 40.1058C37.9217 40.0118 38.0619 39.9636 38.2046 39.9716C38.3473 39.9795 38.4812 40.0431 38.5777 40.1485L41.9459 44.0312C42.0149 44.1103 42.0597 44.2076 42.0749 44.3115C42.0902 44.4154 42.0752 44.5214 42.0318 44.617C41.9884 44.7126 41.9184 44.7937 41.8302 44.8506C41.7419 44.9075 41.6392 44.9378 41.5342 44.9379Z" fill="#FF4D4D"/>
<path d="M33.1598 35.3851C33.0817 35.3852 33.0046 35.3685 32.9335 35.3363C32.8624 35.304 32.799 35.2569 32.7477 35.198L26.6797 28.2686C26.5881 28.1588 26.5432 28.0176 26.5544 27.8751C26.5657 27.7326 26.6323 27.6002 26.7399 27.5062C26.8475 27.4121 26.9877 27.364 27.1304 27.3719C27.2731 27.3799 27.407 27.4434 27.5035 27.5489L33.5715 34.4784C33.6405 34.5575 33.6853 34.6548 33.7005 34.7586C33.7157 34.8625 33.7008 34.9686 33.6574 35.0642C33.614 35.1598 33.544 35.2408 33.4558 35.2977C33.3675 35.3546 33.2648 35.385 33.1598 35.3851Z" fill="#8282FF"/>
<path d="M38.817 35.0817C38.7016 35.0819 38.5892 35.0455 38.4958 34.9779C38.4023 34.9103 38.3326 34.8149 38.2967 34.7053C38.2608 34.5956 38.2605 34.4775 38.2958 34.3677C38.3311 34.2579 38.4002 34.162 38.4932 34.0939L44.5663 29.6423C44.6834 29.559 44.8285 29.5251 44.9704 29.548C45.1122 29.5709 45.2394 29.6487 45.3244 29.7645C45.4093 29.8804 45.4453 30.0251 45.4244 30.1673C45.4035 30.3095 45.3276 30.4377 45.2129 30.5243L39.1399 34.9759C39.0463 35.0448 38.9332 35.0819 38.817 35.0817Z" fill="#FF4D4D"/>
<path d="M35.2676 42.7024C37.9492 42.7024 40.123 40.5286 40.123 37.8469C40.123 35.1653 37.9492 32.9915 35.2676 32.9915C32.586 32.9915 30.4121 35.1653 30.4121 37.8469C30.4121 40.5286 32.586 42.7024 35.2676 42.7024Z" fill="#B2B2FF"/>
<path d="M37.0843 37.2116C37.0843 36.2097 36.2691 35.3945 35.2672 35.3945C34.2654 35.3945 33.4502 36.2097 33.4502 37.2116C33.4502 37.7057 33.649 38.1538 33.9703 38.4817C33.649 38.8097 33.4502 39.2578 33.4502 39.7519C33.4502 40.054 33.695 40.2988 33.9971 40.2988C34.2992 40.2988 34.5439 40.054 34.5439 39.7519C34.5439 39.3531 34.8685 39.0286 35.2672 39.0286C35.666 39.0286 35.9905 39.3531 35.9905 39.7519C35.9905 40.054 36.2353 40.2988 36.5374 40.2988C36.8395 40.2988 37.0843 40.054 37.0843 39.7519C37.0843 39.2578 36.8854 38.8097 36.5642 38.4817C36.8854 38.1538 37.0843 37.7057 37.0843 37.2116ZM35.2672 36.4883C35.666 36.4883 35.9905 36.8128 35.9905 37.2116C35.9905 37.6104 35.666 37.9349 35.2672 37.9349C34.8685 37.9349 34.5439 37.6104 34.5439 37.2116C34.5439 36.8128 34.8683 36.4883 35.2672 36.4883Z" fill="white"/>
<path d="M10.6062 25.3055C10.4787 25.3055 10.3551 25.2609 10.257 25.1794C10.1588 25.0979 10.0923 24.9847 10.0688 24.8593C10.0453 24.734 10.0663 24.6043 10.1283 24.4928C10.1903 24.3813 10.2892 24.295 10.4081 24.2488L16.8932 21.705C17.0284 21.6527 17.1789 21.6561 17.3116 21.7146C17.4443 21.773 17.5484 21.8817 17.6011 22.0169C17.6536 22.1521 17.6502 22.3026 17.5918 22.4354C17.5333 22.5681 17.4245 22.6722 17.2892 22.7247L10.8042 25.2685C10.741 25.293 10.6739 25.3055 10.6062 25.3055Z" fill="#FF4D4D"/>
<path d="M44.46 52.0195C46.8762 52.0195 48.835 50.0608 48.835 47.6445C48.835 45.2283 46.8762 43.2695 44.46 43.2695C42.0437 43.2695 40.085 45.2283 40.085 47.6445C40.085 50.0608 42.0437 52.0195 44.46 52.0195Z" fill="#FF6C6C"/>
<path d="M46.5467 48.9579L45.6763 48.0875C46.0395 47.3944 45.9302 46.5164 45.3484 45.9347C44.632 45.2184 43.4665 45.2184 42.7501 45.9347C42.0338 46.651 42.0338 47.8167 42.7501 48.533C42.9206 48.7037 43.1232 48.839 43.3461 48.9312C43.5691 49.0234 43.808 49.0707 44.0493 49.0702C44.3466 49.0705 44.6395 48.9986 44.9029 48.8609L45.7734 49.7313C45.8802 49.8381 46.0201 49.8914 46.1601 49.8914C46.3001 49.8914 46.44 49.8381 46.5468 49.7313C46.6493 49.6287 46.7069 49.4896 46.7069 49.3446C46.7069 49.1996 46.6493 49.0605 46.5467 48.9579ZM43.5236 47.7597C43.3844 47.6202 43.3062 47.4311 43.3062 47.234C43.3062 47.0369 43.3844 46.8478 43.5236 46.7083C43.6685 46.5634 43.859 46.4909 44.0494 46.4909C44.2398 46.4909 44.4301 46.5634 44.5751 46.7083C44.865 46.9981 44.865 47.4699 44.5751 47.7597C44.2853 48.0496 43.8135 48.0496 43.5236 47.7597Z" fill="white"/>
<path d="M48.3145 31.7373C50.7307 31.7373 52.6895 29.7786 52.6895 27.3623C52.6895 24.9461 50.7307 22.9873 48.3145 22.9873C45.8982 22.9873 43.9395 24.9461 43.9395 27.3623C43.9395 29.7786 45.8982 31.7373 48.3145 31.7373Z" fill="#FF6C6C"/>
<path d="M50.4012 28.6757L49.5308 27.8053C49.8939 27.1122 49.7847 26.2342 49.2029 25.6525C48.4865 24.9362 47.321 24.9362 46.6046 25.6525C45.8883 26.3688 45.8883 27.5345 46.6046 28.2508C46.7751 28.4215 46.9777 28.5568 47.2006 28.649C47.4235 28.7412 47.6625 28.7884 47.9038 28.788C48.2011 28.7882 48.494 28.7164 48.7574 28.5787L49.6278 29.4491C49.7347 29.5558 49.8746 29.6092 50.0146 29.6092C50.1546 29.6092 50.2945 29.5558 50.4013 29.4491C50.5038 29.3465 50.5614 29.2074 50.5614 29.0624C50.5613 28.9173 50.5037 28.7783 50.4012 28.6757ZM47.3781 27.4774C47.2389 27.3378 47.1607 27.1488 47.1607 26.9517C47.1607 26.7546 47.2389 26.5655 47.3781 26.426C47.523 26.281 47.7134 26.2085 47.9039 26.2085C48.0943 26.2085 48.2846 26.281 48.4296 26.426C48.7195 26.7158 48.7195 27.1875 48.4296 27.4774C48.1398 27.7672 47.6679 27.7673 47.3781 27.4774Z" fill="white"/>
<path d="M6.83377 30.5833C9.25002 30.5833 11.2088 28.6245 11.2088 26.2083C11.2088 23.792 9.25002 21.8333 6.83377 21.8333C4.41752 21.8333 2.45877 23.792 2.45877 26.2083C2.45877 28.6245 4.41752 30.5833 6.83377 30.5833Z" fill="#FF6C6C"/>
<path d="M8.92052 27.5216L8.05011 26.6512C8.41324 25.9581 8.30397 25.0802 7.72221 24.4984C7.0058 23.7821 5.8403 23.7821 5.12389 24.4984C4.4076 25.2147 4.4076 26.3804 5.12389 27.0967C5.2944 27.2674 5.49694 27.4027 5.71988 27.4949C5.94283 27.5871 6.18179 27.6344 6.42305 27.634C6.72034 27.6342 7.01326 27.5624 7.27672 27.4246L8.14713 28.295C8.25399 28.4018 8.39388 28.4552 8.53388 28.4552C8.67388 28.4552 8.81377 28.4018 8.92063 28.295C9.02317 28.1925 9.08076 28.0533 9.08074 27.9083C9.08072 27.7633 9.02309 27.6242 8.92052 27.5216ZM5.89739 26.3234C5.75819 26.1839 5.68002 25.9948 5.68002 25.7977C5.68002 25.6006 5.75819 25.4116 5.89739 25.272C6.04231 25.1271 6.23274 25.0546 6.42316 25.0546C6.61358 25.0546 6.80389 25.1271 6.94892 25.272C7.23877 25.5619 7.23877 26.0336 6.94892 26.3234C6.65908 26.6133 6.18724 26.6133 5.89739 26.3234Z" fill="white"/>
<path d="M12.1123 48.1198C11.9673 48.1198 11.8282 48.0622 11.7256 47.9596C11.623 47.8571 11.5654 47.718 11.5654 47.5729C11.5654 47.2413 11.2955 46.9714 10.9639 46.9714C10.6618 46.9714 10.417 46.7266 10.417 46.4245C10.417 46.1224 10.6618 45.8776 10.9639 45.8776C11.2955 45.8776 11.5654 45.6077 11.5654 45.2761C11.5654 44.974 11.8102 44.7292 12.1123 44.7292C12.4144 44.7292 12.6592 44.974 12.6592 45.2761C12.6592 45.6077 12.9291 45.8776 13.2607 45.8776C13.5628 45.8776 13.8076 46.1224 13.8076 46.4245C13.8076 46.7266 13.5628 46.9714 13.2607 46.9714C13.1013 46.9716 12.9484 47.035 12.8356 47.1478C12.7228 47.2606 12.6594 47.4134 12.6592 47.5729C12.6592 47.718 12.6016 47.8571 12.499 47.9596C12.3964 48.0622 12.2573 48.1198 12.1123 48.1198ZM21.2481 5.99512C21.103 5.99512 20.9639 5.9375 20.8614 5.83494C20.7588 5.73238 20.7012 5.59328 20.7012 5.44824C20.7012 5.11662 20.4313 4.84668 20.0996 4.84668C19.7975 4.84668 19.5528 4.6019 19.5528 4.2998C19.5528 3.99771 19.7975 3.75293 20.0996 3.75293C20.4313 3.75293 20.7012 3.48299 20.7012 3.15137C20.7012 2.84927 20.946 2.60449 21.2481 2.60449C21.5502 2.60449 21.7949 2.84927 21.7949 3.15137C21.7949 3.48299 22.0649 3.75293 22.3965 3.75293C22.6986 3.75293 22.9434 3.99771 22.9434 4.2998C22.9434 4.6019 22.6986 4.84668 22.3965 4.84668C22.237 4.84688 22.0841 4.91033 21.9714 5.0231C21.8586 5.13587 21.7951 5.28876 21.7949 5.44824C21.7949 5.59328 21.7373 5.73238 21.6348 5.83494C21.5322 5.9375 21.3931 5.99512 21.2481 5.99512Z" fill="#FF6C6C"/>
<path d="M6.99219 51.0508C6.84715 51.0508 6.70805 50.9932 6.60549 50.8906C6.50293 50.788 6.44531 50.6489 6.44531 50.5039C6.44531 50.1723 6.17537 49.9023 5.84375 49.9023C5.54166 49.9023 5.29688 49.6576 5.29688 49.3555C5.29688 49.0534 5.54166 48.8086 5.84375 48.8086C6.17537 48.8086 6.44531 48.5387 6.44531 48.207C6.44531 47.9049 6.69009 47.6602 6.99219 47.6602C7.29428 47.6602 7.53906 47.9049 7.53906 48.207C7.53906 48.5387 7.809 48.8086 8.14062 48.8086C8.44272 48.8086 8.6875 49.0534 8.6875 49.3555C8.6875 49.6576 8.44272 49.9023 8.14062 49.9023C7.98114 49.9025 7.82825 49.966 7.71548 50.0788C7.60271 50.1915 7.53926 50.3444 7.53906 50.5039C7.53906 50.6489 7.48145 50.788 7.37889 50.8906C7.27633 50.9932 7.13723 51.0508 6.99219 51.0508Z" fill="#FF9C33"/>
<path d="M47.0937 7.57615C47.0219 7.57625 46.9508 7.56215 46.8844 7.53465C46.818 7.50715 46.7578 7.46679 46.7071 7.41591L45.5586 6.26747C45.5079 6.21671 45.4676 6.15643 45.4401 6.09009C45.4126 6.02375 45.3984 5.95264 45.3984 5.88083C45.3984 5.80902 45.4126 5.73792 45.4401 5.67157C45.4676 5.60523 45.5079 5.54496 45.5586 5.49419L46.7071 4.34576C46.7578 4.29496 46.8181 4.25467 46.8845 4.22718C46.9508 4.1997 47.0219 4.18555 47.0937 4.18555C47.1655 4.18555 47.2366 4.1997 47.303 4.22718C47.3693 4.25467 47.4296 4.29496 47.4804 4.34576L48.6288 5.49419C48.6796 5.54496 48.7199 5.60523 48.7474 5.67157C48.7749 5.73792 48.789 5.80902 48.789 5.88083C48.789 5.95264 48.7749 6.02375 48.7474 6.09009C48.7199 6.15643 48.6796 6.21671 48.6288 6.26747L47.4804 7.41591C47.4296 7.46676 47.3694 7.5071 47.303 7.5346C47.2367 7.56209 47.1655 7.57621 47.0937 7.57615ZM46.7187 5.88083L47.0937 6.25588L47.4688 5.88083L47.0937 5.50579L46.7187 5.88083ZM52.346 45.3337C52.2742 45.3338 52.2031 45.3197 52.1367 45.2922C52.0703 45.2647 52.0101 45.2244 51.9594 45.1735L50.8109 44.025C50.7602 43.9743 50.7199 43.914 50.6924 43.8476C50.6649 43.7813 50.6507 43.7102 50.6507 43.6384C50.6507 43.5666 50.6649 43.4955 50.6924 43.4291C50.7199 43.3628 50.7602 43.3025 50.8109 43.2518L51.9594 42.1033C52.0101 42.0525 52.0704 42.0122 52.1368 41.9847C52.2031 41.9573 52.2742 41.9431 52.346 41.9431C52.4178 41.9431 52.4889 41.9573 52.5553 41.9847C52.6216 42.0122 52.6819 42.0525 52.7327 42.1033L53.8811 43.2518C53.9319 43.3025 53.9722 43.3628 53.9997 43.4291C54.0272 43.4955 54.0413 43.5666 54.0413 43.6384C54.0413 43.7102 54.0272 43.7813 53.9997 43.8476C53.9722 43.914 53.9319 43.9743 53.8811 44.025L52.7327 45.1735C52.682 45.2244 52.6217 45.2647 52.5554 45.2922C52.489 45.3197 52.4179 45.3338 52.346 45.3337ZM51.9711 43.6384L52.3461 44.0134L52.7212 43.6384L52.3461 43.2633L51.9711 43.6384Z" fill="#6C6CFF"/>
<path d="M26.9977 29.0179C32.858 29.0179 37.6087 24.2672 37.6087 18.4069C37.6087 12.5466 32.858 7.7959 26.9977 7.7959C21.1374 7.7959 16.3867 12.5466 16.3867 18.4069C16.3867 24.2672 21.1374 29.0179 26.9977 29.0179Z" fill="#6C6CFF"/>
<path d="M37.0423 14.976H31.7256C31.4237 14.976 31.1787 14.7321 31.1787 14.4291V10.1963H33.7195C35.2332 11.4355 36.397 13.086 37.0423 14.976Z" fill="#4D4DFF"/>
<path d="M26.9977 26.6174C31.5322 26.6174 35.2082 22.9414 35.2082 18.4069C35.2082 13.8723 31.5322 10.1963 26.9977 10.1963C22.4631 10.1963 18.7871 13.8723 18.7871 18.4069C18.7871 22.9414 22.4631 26.6174 26.9977 26.6174Z" fill="#8282FF"/>
<path d="M34.46 14.9756H31.7256C31.4237 14.9756 31.1787 14.7317 31.1787 14.4287V11.3389C32.6161 12.1902 33.7605 13.4586 34.46 14.9756Z" fill="#6C6CFF"/>
<path d="M28.1647 17.1416C28.4668 17.1416 28.7116 16.8968 28.7116 16.5947C28.7116 16.2926 28.4668 16.0479 28.1647 16.0479H25.8817C25.7367 16.0479 25.5976 16.1055 25.495 16.208C25.3925 16.3106 25.3348 16.4497 25.3348 16.5947V20.2189C25.3348 20.3639 25.3925 20.503 25.495 20.6056C25.5976 20.7081 25.7367 20.7657 25.8817 20.7657H28.1647C28.4668 20.7657 28.7116 20.521 28.7116 20.2189C28.7116 19.9168 28.4668 19.672 28.1647 19.672H26.4286V18.9537H27.6755C27.9776 18.9537 28.2223 18.7089 28.2223 18.4069C28.2223 18.1048 27.9776 17.86 27.6755 17.86H26.4286V17.1417H28.1647V17.1416ZM31.38 16.0479H30.7372C29.9834 16.0479 29.3702 16.661 29.3702 17.4148V19.3988C29.3702 20.1526 29.9834 20.7657 30.7372 20.7657H31.38C32.1338 20.7657 32.747 20.1526 32.747 19.3988V17.4148C32.747 16.661 32.1337 16.0479 31.38 16.0479ZM31.6532 19.3987C31.6531 19.4711 31.6243 19.5405 31.5731 19.5918C31.5219 19.643 31.4524 19.6718 31.38 19.6719H30.7372C30.6648 19.6718 30.5953 19.643 30.5441 19.5918C30.4929 19.5405 30.4641 19.4711 30.464 19.3987V17.4148C30.4641 17.3424 30.4929 17.2729 30.5441 17.2217C30.5953 17.1705 30.6648 17.1417 30.7372 17.1416H31.38C31.4524 17.1417 31.5219 17.1705 31.5731 17.2217C31.6243 17.2729 31.6531 17.3424 31.6532 17.4148V19.3987ZM22.7009 17.1416H23.8335C24.1355 17.1416 24.3803 16.8968 24.3803 16.5947C24.3803 16.2926 24.1355 16.0479 23.8335 16.0479H22.7009C21.8998 16.0479 21.248 16.6996 21.248 17.5008C21.248 18.3019 21.8998 18.9536 22.7009 18.9536H22.9274C23.1255 18.9536 23.2866 19.1148 23.2866 19.3128C23.2866 19.5108 23.1254 19.6719 22.9274 19.6719H21.7949C21.4928 19.6719 21.248 19.9167 21.248 20.2188C21.248 20.5209 21.4928 20.7656 21.7949 20.7656H22.9274C23.7286 20.7656 24.3803 20.1139 24.3803 19.3128C24.3803 18.5116 23.7286 17.8599 22.9274 17.8599H22.7009C22.5028 17.8599 22.3418 17.6988 22.3418 17.5008C22.3418 17.3028 22.5029 17.1416 22.7009 17.1416Z" fill="white"/>
<path d="M41.1945 12.3511H31.7256C31.5806 12.3511 31.4415 12.2935 31.3389 12.191C31.2364 12.0884 31.1788 11.9493 31.1788 11.8043V4.72375C31.1788 4.57871 31.2364 4.43961 31.3389 4.33706C31.4415 4.2345 31.5806 4.17688 31.7256 4.17688H41.1945C41.3395 4.17688 41.4786 4.2345 41.5812 4.33706C41.6837 4.43961 41.7413 4.57871 41.7413 4.72375V11.8043C41.7413 11.9493 41.6837 12.0884 41.5812 12.191C41.4786 12.2935 41.3395 12.3511 41.1945 12.3511Z" fill="#FF6C6C"/>
<path d="M33.4023 9.38686C33.4023 9.5319 33.46 9.671 33.5625 9.77356C33.6651 9.87612 33.8042 9.93373 33.9492 9.93373H39.1917C39.3367 9.93373 39.4758 9.87612 39.5784 9.77356C39.6809 9.671 39.7385 9.5319 39.7385 9.38686C39.7385 9.24182 39.6809 9.10272 39.5784 9.00016C39.4758 8.8976 39.3367 8.83998 39.1917 8.83998H33.9492C33.8042 8.83998 33.6651 8.8976 33.5625 9.00016C33.46 9.10272 33.4023 9.24182 33.4023 9.38686ZM33.4023 7.14063C33.4023 7.28567 33.46 7.42476 33.5625 7.52732C33.6651 7.62988 33.8042 7.6875 33.9492 7.6875H37.0042C37.1492 7.6875 37.2883 7.62988 37.3909 7.52732C37.4934 7.42476 37.551 7.28567 37.551 7.14063C37.551 6.99558 37.4934 6.85648 37.3909 6.75393C37.2883 6.65137 37.1492 6.59375 37.0042 6.59375H33.9492C33.8042 6.59375 33.6651 6.65137 33.5625 6.75393C33.46 6.85648 33.4023 6.99558 33.4023 7.14063Z" fill="white"/>
<defs>
<linearGradient id="paint0_linear_6040_419" x1="3.42313" y1="42.4943" x2="46.0483" y2="-0.13092" gradientUnits="userSpaceOnUse">
<stop stop-color="#FFD8D8" stop-opacity="0"/>
<stop offset="0.998" stop-color="#FFB2B2"/>
</linearGradient>
<linearGradient id="paint1_linear_6040_419" x1="26.9986" y1="40.4155" x2="26.9986" y2="10.1963" gradientUnits="userSpaceOnUse">
<stop stop-color="#FF4D4D" stop-opacity="0.4"/>
<stop offset="0.146" stop-color="#FF4D4D" stop-opacity="0.342"/>
<stop offset="1" stop-color="#FF4D4D" stop-opacity="0"/>
</linearGradient>
</defs>
</svg>
