<svg width="132" height="20" viewBox="0 0 132 20" fill="none" xmlns="http://www.w3.org/2000/svg">
<g clip-path="url(#clip0_6040_365)">
<path d="M9.60416 1.91249C9.64068 1.83871 9.69709 1.7766 9.76704 1.73318C9.83698 1.68976 9.91767 1.66675 9.99999 1.66675C10.0823 1.66675 10.163 1.68976 10.233 1.73318C10.3029 1.7766 10.3593 1.83871 10.3958 1.91249L12.3208 5.81166C12.4476 6.0683 12.6348 6.29033 12.8663 6.4587C13.0979 6.62707 13.3668 6.73675 13.65 6.77833L17.955 7.40833C18.0366 7.42015 18.1132 7.45455 18.1762 7.50766C18.2393 7.56076 18.2862 7.63045 18.3117 7.70883C18.3372 7.78721 18.3402 7.87116 18.3205 7.95119C18.3007 8.03121 18.259 8.10412 18.2 8.16166L15.0867 11.1933C14.8813 11.3934 14.7277 11.6404 14.639 11.913C14.5503 12.1856 14.5292 12.4757 14.5775 12.7583L15.3125 17.0417C15.3269 17.1232 15.3181 17.2071 15.2871 17.2839C15.2561 17.3607 15.2041 17.4272 15.1371 17.4758C15.0701 17.5245 14.9908 17.5533 14.9082 17.5591C14.8256 17.5648 14.7431 17.5472 14.67 17.5083L10.8217 15.485C10.5681 15.3518 10.286 15.2823 9.99958 15.2823C9.71318 15.2823 9.43106 15.3518 9.17749 15.485L5.32999 17.5083C5.25694 17.547 5.17449 17.5644 5.09204 17.5585C5.00958 17.5527 4.93043 17.5238 4.86357 17.4752C4.79672 17.4266 4.74485 17.3601 4.71387 17.2835C4.68289 17.2069 4.67404 17.1231 4.68833 17.0417L5.42249 12.7592C5.47099 12.4764 5.44998 12.1862 5.36128 11.9134C5.27257 11.6406 5.11883 11.3935 4.91333 11.1933L1.79999 8.16249C1.74049 8.10502 1.69832 8.03199 1.6783 7.95172C1.65827 7.87145 1.66119 7.78717 1.68673 7.70849C1.71226 7.6298 1.75938 7.55986 1.82272 7.50665C1.88607 7.45343 1.96308 7.41907 2.04499 7.40749L6.34916 6.77833C6.63271 6.73708 6.90199 6.62754 7.13381 6.45915C7.36564 6.29076 7.55308 6.06855 7.67999 5.81166L9.60416 1.91249Z" fill="#F45925" stroke="#F45925" stroke-width="2" stroke-linecap="round" stroke-linejoin="round"/>
</g>
<g clip-path="url(#clip1_6040_365)">
<path d="M37.6042 1.91249C37.6407 1.83871 37.6971 1.7766 37.767 1.73318C37.837 1.68976 37.9177 1.66675 38 1.66675C38.0823 1.66675 38.163 1.68976 38.233 1.73318C38.3029 1.7766 38.3593 1.83871 38.3958 1.91249L40.3208 5.81166C40.4476 6.0683 40.6348 6.29033 40.8663 6.4587C41.0979 6.62707 41.3668 6.73675 41.65 6.77833L45.955 7.40833C46.0366 7.42015 46.1132 7.45455 46.1762 7.50766C46.2393 7.56076 46.2862 7.63045 46.3117 7.70883C46.3372 7.78721 46.3402 7.87116 46.3205 7.95119C46.3007 8.03121 46.259 8.10412 46.2 8.16166L43.0867 11.1933C42.8813 11.3934 42.7277 11.6404 42.639 11.913C42.5503 12.1856 42.5292 12.4757 42.5775 12.7583L43.3125 17.0417C43.3269 17.1232 43.3181 17.2071 43.2871 17.2839C43.2561 17.3607 43.2041 17.4272 43.1371 17.4758C43.0701 17.5245 42.9908 17.5533 42.9082 17.5591C42.8256 17.5648 42.7431 17.5472 42.67 17.5083L38.8217 15.485C38.5681 15.3518 38.286 15.2823 37.9996 15.2823C37.7132 15.2823 37.4311 15.3518 37.1775 15.485L33.33 17.5083C33.2569 17.547 33.1745 17.5644 33.092 17.5585C33.0096 17.5527 32.9304 17.5238 32.8636 17.4752C32.7967 17.4266 32.7449 17.3601 32.7139 17.2835C32.6829 17.2069 32.674 17.1231 32.6883 17.0417L33.4225 12.7592C33.471 12.4764 33.45 12.1862 33.3613 11.9134C33.2726 11.6406 33.1188 11.3935 32.9133 11.1933L29.8 8.16249C29.7405 8.10502 29.6983 8.03199 29.6783 7.95172C29.6583 7.87145 29.6612 7.78717 29.6867 7.70849C29.7123 7.6298 29.7594 7.55986 29.8227 7.50665C29.8861 7.45343 29.9631 7.41907 30.045 7.40749L34.3492 6.77833C34.6327 6.73708 34.902 6.62754 35.1338 6.45915C35.3656 6.29076 35.5531 6.06855 35.68 5.81166L37.6042 1.91249Z" fill="#F45925" stroke="#F45925" stroke-width="2" stroke-linecap="round" stroke-linejoin="round"/>
</g>
<g clip-path="url(#clip2_6040_365)">
<path d="M65.6042 1.91249C65.6407 1.83871 65.6971 1.7766 65.767 1.73318C65.837 1.68976 65.9177 1.66675 66 1.66675C66.0823 1.66675 66.163 1.68976 66.233 1.73318C66.3029 1.7766 66.3593 1.83871 66.3958 1.91249L68.3208 5.81166C68.4476 6.0683 68.6348 6.29033 68.8663 6.4587C69.0979 6.62707 69.3668 6.73675 69.65 6.77833L73.955 7.40833C74.0366 7.42015 74.1132 7.45455 74.1762 7.50766C74.2393 7.56076 74.2862 7.63045 74.3117 7.70883C74.3372 7.78721 74.3402 7.87116 74.3205 7.95119C74.3007 8.03121 74.259 8.10412 74.2 8.16166L71.0867 11.1933C70.8813 11.3934 70.7277 11.6404 70.639 11.913C70.5503 12.1856 70.5292 12.4757 70.5775 12.7583L71.3125 17.0417C71.3269 17.1232 71.3181 17.2071 71.2871 17.2839C71.2561 17.3607 71.2041 17.4272 71.1371 17.4758C71.0701 17.5245 70.9908 17.5533 70.9082 17.5591C70.8256 17.5648 70.7431 17.5472 70.67 17.5083L66.8217 15.485C66.5681 15.3518 66.286 15.2823 65.9996 15.2823C65.7132 15.2823 65.4311 15.3518 65.1775 15.485L61.33 17.5083C61.2569 17.547 61.1745 17.5644 61.092 17.5585C61.0096 17.5527 60.9304 17.5238 60.8636 17.4752C60.7967 17.4266 60.7449 17.3601 60.7139 17.2835C60.6829 17.2069 60.674 17.1231 60.6883 17.0417L61.4225 12.7592C61.471 12.4764 61.45 12.1862 61.3613 11.9134C61.2726 11.6406 61.1188 11.3935 60.9133 11.1933L57.8 8.16249C57.7405 8.10502 57.6983 8.03199 57.6783 7.95172C57.6583 7.87145 57.6612 7.78717 57.6867 7.70849C57.7123 7.6298 57.7594 7.55986 57.8227 7.50665C57.8861 7.45343 57.9631 7.41907 58.045 7.40749L62.3492 6.77833C62.6327 6.73708 62.902 6.62754 63.1338 6.45915C63.3656 6.29076 63.5531 6.06855 63.68 5.81166L65.6042 1.91249Z" fill="#F45925" stroke="#F45925" stroke-width="2" stroke-linecap="round" stroke-linejoin="round"/>
</g>
<g clip-path="url(#clip3_6040_365)">
<path d="M93.6042 1.91249C93.6407 1.83871 93.6971 1.7766 93.767 1.73318C93.837 1.68976 93.9177 1.66675 94 1.66675C94.0823 1.66675 94.163 1.68976 94.233 1.73318C94.3029 1.7766 94.3593 1.83871 94.3958 1.91249L96.3208 5.81166C96.4476 6.0683 96.6348 6.29033 96.8663 6.4587C97.0979 6.62707 97.3668 6.73675 97.65 6.77833L101.955 7.40833C102.037 7.42015 102.113 7.45455 102.176 7.50766C102.239 7.56076 102.286 7.63045 102.312 7.70883C102.337 7.78721 102.34 7.87116 102.32 7.95119C102.301 8.03121 102.259 8.10412 102.2 8.16166L99.0867 11.1933C98.8813 11.3934 98.7277 11.6404 98.639 11.913C98.5503 12.1856 98.5292 12.4757 98.5775 12.7583L99.3125 17.0417C99.3269 17.1232 99.3181 17.2071 99.2871 17.2839C99.2561 17.3607 99.2041 17.4272 99.1371 17.4758C99.0701 17.5245 98.9908 17.5533 98.9082 17.5591C98.8256 17.5648 98.7431 17.5472 98.67 17.5083L94.8217 15.485C94.5681 15.3518 94.286 15.2823 93.9996 15.2823C93.7132 15.2823 93.4311 15.3518 93.1775 15.485L89.33 17.5083C89.2569 17.547 89.1745 17.5644 89.092 17.5585C89.0096 17.5527 88.9304 17.5238 88.8636 17.4752C88.7967 17.4266 88.7449 17.3601 88.7139 17.2835C88.6829 17.2069 88.674 17.1231 88.6883 17.0417L89.4225 12.7592C89.471 12.4764 89.45 12.1862 89.3613 11.9134C89.2726 11.6406 89.1188 11.3935 88.9133 11.1933L85.8 8.16249C85.7405 8.10502 85.6983 8.03199 85.6783 7.95172C85.6583 7.87145 85.6612 7.78717 85.6867 7.70849C85.7123 7.6298 85.7594 7.55986 85.8227 7.50665C85.8861 7.45343 85.9631 7.41907 86.045 7.40749L90.3492 6.77833C90.6327 6.73708 90.902 6.62754 91.1338 6.45915C91.3656 6.29076 91.5531 6.06855 91.68 5.81166L93.6042 1.91249Z" fill="#F45925" stroke="#F45925" stroke-width="2" stroke-linecap="round" stroke-linejoin="round"/>
</g>
<g clip-path="url(#clip4_6040_365)">
<path d="M121.604 1.91249C121.641 1.83871 121.697 1.7766 121.767 1.73318C121.837 1.68976 121.918 1.66675 122 1.66675C122.082 1.66675 122.163 1.68976 122.233 1.73318C122.303 1.7766 122.359 1.83871 122.396 1.91249L124.321 5.81166C124.448 6.0683 124.635 6.29033 124.866 6.4587C125.098 6.62707 125.367 6.73675 125.65 6.77833L129.955 7.40833C130.037 7.42015 130.113 7.45455 130.176 7.50766C130.239 7.56076 130.286 7.63045 130.312 7.70883C130.337 7.78721 130.34 7.87116 130.32 7.95119C130.301 8.03121 130.259 8.10412 130.2 8.16166L127.087 11.1933C126.881 11.3934 126.728 11.6404 126.639 11.913C126.55 12.1856 126.529 12.4757 126.577 12.7583L127.312 17.0417C127.327 17.1232 127.318 17.2071 127.287 17.2839C127.256 17.3607 127.204 17.4272 127.137 17.4758C127.07 17.5245 126.991 17.5533 126.908 17.5591C126.826 17.5648 126.743 17.5472 126.67 17.5083L122.822 15.485C122.568 15.3518 122.286 15.2823 122 15.2823C121.713 15.2823 121.431 15.3518 121.177 15.485L117.33 17.5083C117.257 17.547 117.174 17.5644 117.092 17.5585C117.01 17.5527 116.93 17.5238 116.864 17.4752C116.797 17.4266 116.745 17.3601 116.714 17.2835C116.683 17.2069 116.674 17.1231 116.688 17.0417L117.422 12.7592C117.471 12.4764 117.45 12.1862 117.361 11.9134C117.273 11.6406 117.119 11.3935 116.913 11.1933L113.8 8.16249C113.74 8.10502 113.698 8.03199 113.678 7.95172C113.658 7.87145 113.661 7.78717 113.687 7.70849C113.712 7.6298 113.759 7.55986 113.823 7.50665C113.886 7.45343 113.963 7.41907 114.045 7.40749L118.349 6.77833C118.633 6.73708 118.902 6.62754 119.134 6.45915C119.366 6.29076 119.553 6.06855 119.68 5.81166L121.604 1.91249Z" fill="#F45925" stroke="#F45925" stroke-width="2" stroke-linecap="round" stroke-linejoin="round"/>
</g>
<defs>
<clipPath id="clip0_6040_365">
<rect width="20" height="20" fill="white"/>
</clipPath>
<clipPath id="clip1_6040_365">
<rect width="20" height="20" fill="white" transform="translate(28)"/>
</clipPath>
<clipPath id="clip2_6040_365">
<rect width="20" height="20" fill="white" transform="translate(56)"/>
</clipPath>
<clipPath id="clip3_6040_365">
<rect width="20" height="20" fill="white" transform="translate(84)"/>
</clipPath>
<clipPath id="clip4_6040_365">
<rect width="20" height="20" fill="white" transform="translate(112)"/>
</clipPath>
</defs>
</svg>
