<svg width="21" height="21" viewBox="0 0 21 21" fill="none" xmlns="http://www.w3.org/2000/svg">
<g clip-path="url(#clip0_6040_329)">
<g clip-path="url(#clip1_6040_329)">
<path d="M10.1499 18.6094C14.8214 18.6094 18.6084 14.8224 18.6084 10.1509C18.6084 5.47938 14.8214 1.69238 10.1499 1.69238C5.47841 1.69238 1.69141 5.47938 1.69141 10.1509C1.69141 14.8224 5.47841 18.6094 10.1499 18.6094Z" stroke="#2685EE" stroke-width="2" stroke-linecap="round" stroke-linejoin="round"/>
<path d="M10.1493 15.2254C12.9522 15.2254 15.2244 12.9532 15.2244 10.1503C15.2244 7.3474 12.9522 5.0752 10.1493 5.0752C7.34642 5.0752 5.07422 7.3474 5.07422 10.1503C5.07422 12.9532 7.34642 15.2254 10.1493 15.2254Z" stroke="#2685EE" stroke-width="2" stroke-linecap="round" stroke-linejoin="round"/>
<path d="M10.1487 11.8424C11.083 11.8424 11.8404 11.085 11.8404 10.1507C11.8404 9.21638 11.083 8.45898 10.1487 8.45898C9.21443 8.45898 8.45703 9.21638 8.45703 10.1507C8.45703 11.085 9.21443 11.8424 10.1487 11.8424Z" stroke="#2685EE" stroke-width="2" stroke-linecap="round" stroke-linejoin="round"/>
</g>
</g>
<defs>
<clipPath id="clip0_6040_329">
<rect width="20.3004" height="20.3004" fill="white"/>
</clipPath>
<clipPath id="clip1_6040_329">
<rect width="20.3004" height="20.3004" fill="white"/>
</clipPath>
</defs>
</svg>
