<svg width="56" height="56" viewBox="0 0 56 56" fill="none" xmlns="http://www.w3.org/2000/svg">
<g clip-path="url(#clip0_6040_637)">
<path d="M44.4073 4.375V51.625C44.4073 54.0411 42.4484 56 40.0323 56H15.9677C13.5516 56 11.5927 54.0411 11.5927 51.625V18.795L18.2787 0H40.0323C42.4484 0 44.4073 1.95891 44.4073 4.375Z" fill="#51888E"/>
<path d="M44.4074 17.0361V46.9359C43.1802 47.2498 41.8939 47.4172 40.5683 47.4172C35.783 47.4172 31.5058 45.2385 28.6756 41.8193C28.3241 41.3946 27.676 41.3946 27.3245 41.8193C24.4943 45.2385 20.2171 47.4172 15.4318 47.4172C14.1062 47.4172 12.82 47.2498 11.5928 46.9359V17.0361C12.82 16.7222 14.1062 16.5548 15.4318 16.5548C20.6151 16.5548 25.2023 19.1109 28.0001 23.032C30.7979 19.1109 35.3851 16.5548 40.5684 16.5548C41.8939 16.5548 43.1802 16.7222 44.4074 17.0361Z" fill="#3B7C7F"/>
<path d="M38.9388 26.9103V50.5308H36.6817C35.1716 50.5308 33.9474 51.755 33.9474 53.2652C33.9474 54.7753 35.1716 55.9995 36.6817 55.9995H40.0326C42.4488 55.9995 44.4076 54.0407 44.4076 51.6245V26.9103C44.4076 25.4001 43.1833 24.1759 41.6732 24.1759C40.163 24.1759 38.9388 25.4001 38.9388 26.9103ZM29.0893 50.5308H25.0879C23.5549 50.5308 22.2634 51.7853 22.2925 53.318C22.3207 54.8037 23.5339 55.9995 25.0263 55.9995H29.0893C30.5994 55.9995 31.8236 54.7753 31.8236 53.2652C31.8236 51.755 30.5994 50.5308 29.0893 50.5308Z" fill="#3B7C7F"/>
<path d="M44.4072 46.0807V26.9111C44.4072 25.401 43.183 24.1768 41.6729 24.1768C40.1627 24.1768 38.9385 25.401 38.9385 26.9111V46.0806C38.9385 47.5908 40.1627 48.815 41.6729 48.815C43.183 48.8151 44.4072 47.5909 44.4072 46.0807Z" fill="#266D6B"/>
<path d="M21.0131 2.73438C21.0131 4.24484 19.7892 5.46875 18.2787 5.46875H17.0614V8.22172H11.5927V4.375C11.5927 1.95891 13.5516 0 15.9677 0H18.2787C19.0334 0 19.7181 0.30625 20.2125 0.800625C20.7069 1.295 21.0131 1.97969 21.0131 2.73438Z" fill="#679CA5"/>
<path d="M11.5928 8.22168V14.4894C11.5928 15.9996 12.817 17.2238 14.3271 17.2238C15.8373 17.2238 17.0615 15.9996 17.0615 14.4894V8.22168C17.0615 6.71154 15.8373 5.4873 14.3271 5.4873C12.817 5.4873 11.5928 6.71154 11.5928 8.22168Z" fill="#80B1BC"/>
<path d="M23.9326 2.68359H27.0553V5.96484H23.9326C23.027 5.96484 22.292 5.22984 22.292 4.32422C22.2918 4.10873 22.3342 3.89532 22.4166 3.69621C22.499 3.49709 22.6198 3.31618 22.7722 3.1638C22.9246 3.01143 23.1055 2.89058 23.3046 2.80819C23.5037 2.72579 23.7171 2.68345 23.9326 2.68359ZM33.7086 4.32422C33.7086 4.77703 33.5248 5.18719 33.2284 5.48359C32.9309 5.78109 32.5207 5.96484 32.0679 5.96484H29.2568V2.68359H32.0679C32.9736 2.68359 33.7086 3.4175 33.7086 4.32422Z" fill="#145956"/>
<path d="M29.2565 2.68372H26.7434C25.8373 2.68372 25.1028 3.41828 25.1028 4.32434C25.1028 5.2304 25.8373 5.96497 26.7434 5.96497H29.2565C30.1626 5.96497 30.8971 5.2304 30.8971 4.32434C30.8971 3.41828 30.1627 2.68372 29.2565 2.68372Z" fill="#266D6B"/>
<path d="M30.8627 28.0001C30.8627 36.5226 23.9546 43.4318 15.4321 43.4318C9.70848 43.4318 4.71223 40.3157 2.04785 35.687H2.05004L3.29035 22.5816L11.0035 13.2148L11.0024 13.2137C12.4057 12.7937 13.8921 12.5684 15.4321 12.5684C23.9546 12.5684 30.8627 19.4776 30.8627 28.0001Z" fill="#FFAF40"/>
<path d="M14.1192 15.5502V15.5983C14.1192 16.6691 13.4214 17.6152 12.3966 17.9247C11.239 18.2744 10.1508 18.8217 9.17984 19.5424L5.87125 19.8519L5.38344 24.8777C5.38234 24.8788 5.38234 24.8799 5.38344 24.881C5.075 25.8665 4.90984 26.9143 4.90984 28.0004C4.90984 29.9112 5.42172 31.7049 6.31641 33.2504C6.86 34.1899 6.69047 35.3799 5.92812 36.1532C5.91719 36.1652 5.90516 36.1762 5.89422 36.1882C4.76328 37.3355 2.85359 37.084 2.04969 35.6872C0.745937 33.4243 0 30.7993 0 28.0004C0 26.4101 0.240625 24.8744 0.689063 23.4307V23.4362L5.38234 18.6324L6.28578 15.5721V15.571C7.71103 14.5202 9.30688 13.7232 11.0031 13.2151C12.5584 12.7491 14.1192 13.9271 14.1192 15.5502Z" fill="#FFC751"/>
<path d="M5.38379 24.8809C6.05546 22.7217 7.40515 20.8586 9.18304 19.5417C10.1575 18.8199 10.4714 17.5049 9.90547 16.4325L9.88249 16.389C9.18753 15.0737 7.48325 14.6882 6.28592 15.5708C3.66234 17.5048 1.67379 20.2498 0.68898 23.436C0.201167 25.0144 1.38559 26.6137 3.03759 26.6137C4.11515 26.6139 5.06365 25.91 5.38379 24.8809Z" fill="#FFE059"/>
<path d="M25.7154 30.225C24.9121 33.9415 22.1395 36.9335 18.5485 38.0498C17.5191 38.3698 16.8152 39.3184 16.8152 40.3963C16.8152 42.0573 18.4269 43.231 20.0132 42.7384C25.2687 41.1064 29.3208 36.7412 30.507 31.3049C30.8419 29.77 29.6801 28.3164 28.1091 28.3164C26.9637 28.3163 25.9574 29.1053 25.7154 30.225Z" fill="#FF993A"/>
<path d="M21.7982 36.369C20.8137 37.1219 19.7033 37.6943 18.5188 38.0594C17.5027 38.3718 16.8154 39.3191 16.8154 40.3822C16.8154 42.0321 18.4086 43.2337 19.9852 42.7474C21.744 42.205 23.3673 41.3555 24.7946 40.2625C25.938 39.3869 26.0586 37.7062 25.0583 36.6701L25.024 36.6346C24.1679 35.7478 22.7778 35.6208 21.7982 36.369Z" fill="#F97C15"/>
<path d="M56.0004 28.0001C56.0004 36.5226 49.0912 43.4318 40.5687 43.4318C34.8451 43.4318 29.8488 40.3157 27.1855 35.687H27.1866L28.2585 22.5827L36.1412 13.2148L36.1401 13.2137C37.5423 12.7937 39.0298 12.5684 40.5687 12.5684C49.0912 12.5684 56.0004 19.4776 56.0004 28.0001Z" fill="#229BFF"/>
<path d="M39.2569 15.5502V15.5983C39.2569 16.6691 38.558 17.6152 37.5343 17.9247C33.2074 19.2307 30.0475 23.2535 30.0475 28.0004C30.0475 29.9112 30.5594 31.7049 31.453 33.2504C31.9966 34.1899 31.8282 35.3799 31.0658 36.1532C31.0549 36.1652 31.0429 36.1762 31.0308 36.1882C29.901 37.3355 27.9902 37.084 27.1863 35.6872C25.8836 33.4243 25.1377 30.7993 25.1377 28.0004C25.1377 26.4101 25.3783 24.8766 25.8257 23.4329L25.8268 23.4362L30.8624 18.6324L31.4235 15.5721V15.571C32.8487 14.5202 34.4446 13.7232 36.1408 13.2151C37.695 12.7491 39.2569 13.9271 39.2569 15.5502Z" fill="#48ACFF"/>
<path d="M30.5214 24.8809C31.1931 22.7217 32.5428 20.8586 34.3207 19.5417C35.2951 18.8199 35.609 17.5049 35.0431 16.4325L35.0201 16.389C34.3252 15.0737 32.6209 14.6882 31.4236 15.5708C28.8 17.5048 26.8114 20.2498 25.8266 23.436C25.3388 25.0144 26.5232 26.6137 28.1752 26.6137C29.2529 26.6139 30.2013 25.91 30.5214 24.8809Z" fill="#7CBAF7"/>
<path d="M50.8533 30.225C50.05 33.9415 47.2774 36.9335 43.6864 38.0498C42.6571 38.3698 41.9531 39.3184 41.9531 40.3963C41.9531 42.0573 43.5649 43.231 45.1511 42.7384C50.4066 41.1064 54.4587 36.7412 55.6449 31.3049C55.9798 29.77 54.818 28.3164 53.2471 28.3164C52.1016 28.3163 51.0952 29.1053 50.8533 30.225Z" fill="#037CFF"/>
<path d="M46.9359 36.369C45.9514 37.1219 44.841 37.6943 43.6565 38.0594C42.6404 38.3718 41.9531 39.3191 41.9531 40.3822C41.9531 42.0321 43.5463 43.2337 45.1229 42.7474C46.8817 42.205 48.505 41.3555 49.9323 40.2625C51.0757 39.3869 51.1963 37.7062 50.196 36.6701C50.1846 36.6582 50.1732 36.6464 50.1617 36.6346C49.3058 35.7478 47.9155 35.6208 46.9359 36.369Z" fill="#0066F9"/>
<path d="M48.0733 17.4213L48.0415 17.459C47.2362 18.4142 47.2908 19.8192 48.1561 20.7204C48.8165 21.4076 49.3808 22.181 49.8339 23.0195C50.3972 24.0626 51.6086 24.5736 52.74 24.2201C54.2138 23.7597 54.9017 22.0702 54.171 20.7102C53.4999 19.4621 52.6606 18.3121 51.6765 17.2924C50.6783 16.2573 49.0002 16.322 48.0733 17.4213Z" fill="#037CFF"/>
<path d="M35.902 30.6541C35.902 30.7706 35.8557 30.8824 35.7732 30.9649C35.6908 31.0473 35.579 31.0936 35.4624 31.0937H33.3478C33.2312 31.0936 33.1194 31.0473 33.037 30.9649C32.9546 30.8824 32.9082 30.7706 32.9082 30.6541V22.4834C32.9082 22.2804 32.8275 22.0856 32.684 21.9421C32.5404 21.7985 32.3456 21.7178 32.1426 21.7178H30.3926C30.1895 21.7178 29.9948 21.7985 29.8512 21.9421C29.7076 22.0856 29.627 22.2804 29.627 22.4834V30.6541C29.627 32.709 31.2928 34.3749 33.3478 34.3749H35.4625C37.5175 34.3749 39.1834 32.709 39.1834 30.6541V22.4834C39.1834 22.2804 39.1027 22.0856 38.9591 21.9421C38.8155 21.7985 38.6208 21.7178 38.4177 21.7178H36.6677C36.4647 21.7178 36.27 21.7985 36.1264 21.9421C35.9828 22.0856 35.9021 22.2804 35.9021 22.4834L35.902 30.6541ZM51.1919 22.9712L49.6955 21.8021C49.6095 21.735 49.5112 21.6854 49.4061 21.6562C49.3009 21.627 49.1911 21.6189 49.0828 21.6322C48.9745 21.6455 48.8699 21.68 48.7749 21.7337C48.68 21.7874 48.5965 21.8593 48.5294 21.9453L46.0937 25.0628L43.658 21.9453C43.5909 21.8593 43.5074 21.7874 43.4125 21.7337C43.3175 21.68 43.2129 21.6455 43.1046 21.6322C42.9963 21.6189 42.8865 21.627 42.7813 21.6562C42.6762 21.6854 42.5778 21.735 42.4919 21.8021L40.9955 22.9712C40.9095 23.0384 40.8376 23.1219 40.7839 23.2168C40.7302 23.3118 40.6957 23.4164 40.6824 23.5247C40.6691 23.633 40.6772 23.7428 40.7064 23.8479C40.7356 23.9531 40.7851 24.0514 40.8523 24.1374L43.8345 27.9545L40.8523 31.7716C40.7167 31.9452 40.6556 32.1656 40.6824 32.3843C40.7093 32.603 40.8219 32.8021 40.9955 32.9377L42.4919 34.1068C42.6655 34.2425 42.8859 34.3036 43.1046 34.2767C43.3233 34.2499 43.5224 34.1373 43.658 33.9637L46.0937 30.8461L48.5294 33.9637C48.5965 34.0496 48.68 34.1215 48.7749 34.1753C48.8699 34.229 48.9745 34.2635 49.0828 34.2768C49.1911 34.2901 49.3009 34.2819 49.4061 34.2528C49.5112 34.2236 49.6095 34.174 49.6955 34.1068L51.1919 32.9377C51.2779 32.8706 51.3498 32.7871 51.4035 32.6922C51.4572 32.5972 51.4917 32.4926 51.505 32.3843C51.5183 32.276 51.5101 32.1662 51.481 32.061C51.4518 31.9559 51.4022 31.8575 51.335 31.7716L48.3528 27.9545L51.335 24.1374C51.4022 24.0514 51.4518 23.9531 51.481 23.8479C51.5101 23.7428 51.5183 23.633 51.505 23.5247C51.4917 23.4164 51.4572 23.3118 51.4035 23.2168C51.3498 23.1219 51.2779 23.0384 51.1919 22.9712Z" fill="#F8FFFC"/>
<path d="M14.2615 30.6081C14.2615 30.7247 14.2151 30.8365 14.1327 30.9189C14.0503 31.0014 13.9385 31.0477 13.8219 31.0477H11.7072C11.5906 31.0477 11.4788 31.0014 11.3964 30.9189C11.3139 30.8365 11.2676 30.7247 11.2676 30.6081V22.4375C11.2676 22.2344 11.1869 22.0397 11.0433 21.8961C10.8997 21.7525 10.705 21.6719 10.502 21.6719H8.75195C8.5489 21.6719 8.35416 21.7525 8.21057 21.8961C8.06699 22.0397 7.98633 22.2344 7.98633 22.4375V30.6081C7.98633 32.6631 9.65222 34.329 11.7072 34.329H13.8219C15.8769 34.329 17.5428 32.6631 17.5428 30.6081V22.4375C17.5428 22.2344 17.4621 22.0397 17.3185 21.8961C17.1749 21.7525 16.9802 21.6719 16.7771 21.6719H15.0271C14.8241 21.6719 14.6293 21.7525 14.4857 21.8961C14.3422 22.0397 14.2615 22.2344 14.2615 22.4375V30.6081ZM20.3607 34.1452H22.1107C22.3137 34.1452 22.5085 34.0646 22.6521 33.921C22.7957 33.7774 22.8763 33.5826 22.8763 33.3796V22.4375C22.8763 22.2344 22.7957 22.0397 22.6521 21.8961C22.5085 21.7525 22.3137 21.6719 22.1107 21.6719H20.3607C20.1576 21.6719 19.9629 21.7525 19.8193 21.8961C19.6757 22.0397 19.5951 22.2344 19.5951 22.4375V33.3796C19.5951 33.5826 19.6757 33.7774 19.8193 33.921C19.9629 34.0646 20.1576 34.1452 20.3607 34.1452Z" fill="#F8FFFC"/>
</g>
<defs>
<clipPath id="clip0_6040_637">
<rect width="56" height="56" fill="white"/>
</clipPath>
</defs>
</svg>
