<svg width="21" height="21" viewBox="0 0 21 21" fill="none" xmlns="http://www.w3.org/2000/svg">
<g clip-path="url(#clip0_6040_320)">
<g clip-path="url(#clip1_6040_320)">
<path d="M13.5333 17.7636V16.0719C13.5333 15.1745 13.1768 14.314 12.5423 13.6795C11.9078 13.0449 11.0472 12.6885 10.1499 12.6885H5.07481C4.17747 12.6885 3.31689 13.0449 2.68238 13.6795C2.04787 14.314 1.69141 15.1745 1.69141 16.0719V17.7636" stroke="#2685EE" stroke-width="2" stroke-linecap="round" stroke-linejoin="round"/>
<path d="M7.61387 9.30489C9.48247 9.30489 10.9973 7.79009 10.9973 5.92149C10.9973 4.05289 9.48247 2.53809 7.61387 2.53809C5.74527 2.53809 4.23047 4.05289 4.23047 5.92149C4.23047 7.79009 5.74527 9.30489 7.61387 9.30489Z" stroke="#2685EE" stroke-width="2" stroke-linecap="round" stroke-linejoin="round"/>
<path d="M18.6079 17.763V16.0713C18.6073 15.3216 18.3578 14.5934 17.8985 14.0009C17.4392 13.4084 16.7962 12.9853 16.0703 12.7979" stroke="#2685EE" stroke-width="2" stroke-linecap="round" stroke-linejoin="round"/>
<path d="M13.5352 2.64746C14.2629 2.8338 14.908 3.25707 15.3687 3.85052C15.8293 4.44398 16.0793 5.17387 16.0793 5.92513C16.0793 6.67639 15.8293 7.40628 15.3687 7.99974C14.908 8.5932 14.2629 9.01646 13.5352 9.2028" stroke="#2685EE" stroke-width="2" stroke-linecap="round" stroke-linejoin="round"/>
</g>
</g>
<defs>
<clipPath id="clip0_6040_320">
<rect width="20.3004" height="20.3004" fill="white"/>
</clipPath>
<clipPath id="clip1_6040_320">
<rect width="20.3004" height="20.3004" fill="white"/>
</clipPath>
</defs>
</svg>
