<svg width="53" height="53" viewBox="0 0 53 53" fill="none" xmlns="http://www.w3.org/2000/svg">
<path d="M51.4097 10.2921L49.0255 9.70667C48.7995 8.75294 48.4214 7.84186 47.9055 7.00849L49.1782 4.90424C49.3394 4.63273 49.297 4.28485 49.0764 4.06424L47.8715 2.85939C47.7626 2.75181 47.621 2.68344 47.4689 2.66501C47.3169 2.64659 47.1631 2.67914 47.0315 2.75758L44.9273 4.0303C44.1043 3.52121 43.1964 3.13939 42.2291 2.9103L41.6437 0.526061C41.606 0.37648 41.5198 0.243639 41.3985 0.148416C41.2771 0.0531927 41.1276 0.000985619 40.9734 0H39.2679C38.954 0 38.674 0.212121 38.6061 0.517576L38.0206 2.90182C37.0534 3.13091 36.1455 3.51273 35.3225 4.02182L33.2182 2.74909C33.0867 2.67066 32.9328 2.6381 32.7808 2.65653C32.6288 2.67496 32.4872 2.74332 32.3782 2.85091L31.1564 4.06424C30.9358 4.28485 30.8934 4.63273 31.0546 4.90424L32.3273 7.00849C31.8182 7.83152 31.4364 8.73939 31.2073 9.70667L28.8231 10.2921C28.5176 10.3685 28.3055 10.64 28.3055 10.9539V12.6594C28.3055 12.9733 28.5176 13.2533 28.8231 13.3212L31.2073 13.9067C31.4364 14.8739 31.8182 15.7818 32.3273 16.5964L31.0546 18.7006C30.8934 18.9721 30.9358 19.32 31.1564 19.5406L32.3612 20.7455C32.5818 20.9661 32.9297 21.0085 33.2012 20.8473L35.3055 19.5745C36.1285 20.0836 37.0364 20.4655 38.0037 20.6945L38.5891 23.0788C38.6655 23.3842 38.937 23.5964 39.2509 23.5964H40.9564C41.2703 23.5964 41.5503 23.3842 41.6182 23.0788L42.2037 20.6945C43.1709 20.4655 44.0788 20.0836 44.9018 19.5745L47.0061 20.8473C47.2776 21.0085 47.6255 20.9661 47.8461 20.7455L49.0509 19.5406C49.2715 19.32 49.314 18.9721 49.1528 18.7006L47.88 16.5964C48.3891 15.7733 48.7709 14.8655 49 13.9067L51.3843 13.3212C51.6897 13.2449 51.9018 12.9733 51.9018 12.6594V10.9539C51.9124 10.803 51.8686 10.6533 51.7784 10.5319C51.6881 10.4105 51.5573 10.3254 51.4097 10.2921ZM40.1164 16.7576C39.4668 16.7576 38.8235 16.6296 38.2234 16.381C37.6232 16.1324 37.0779 15.7681 36.6186 15.3087C36.1592 14.8494 35.7949 14.3041 35.5463 13.7039C35.2977 13.1038 35.1697 12.4605 35.1697 11.8109C35.1697 11.1613 35.2977 10.5181 35.5463 9.9179C35.7949 9.31775 36.1592 8.77243 36.6186 8.31309C37.0779 7.85375 37.6232 7.48938 38.2234 7.24079C38.8235 6.99219 39.4668 6.86424 40.1164 6.86424C41.4283 6.86424 42.6865 7.38541 43.6142 8.31309C44.5419 9.24077 45.0631 10.499 45.0631 11.8109C45.0631 13.1228 44.5419 14.3811 43.6142 15.3087C42.6865 16.2364 41.4283 16.7576 40.1164 16.7576Z" fill="#FF4823"/>
<path d="M41.9067 15.1195C41.9067 14.1777 41.143 13.4141 40.2012 13.4141H1.70545C0.763636 13.4141 0 14.1777 0 15.1195V38.3425H41.9067V15.1195Z" fill="#009AFF"/>
<path opacity="0.35" d="M40.2011 13.4141H16.8848C16.8848 15.2892 18.4036 16.808 20.2787 16.808H38.5126V21.3559C38.5126 23.231 40.0314 24.7498 41.9066 24.7498V15.1195C41.9066 14.1777 41.143 13.4141 40.2011 13.4141Z" fill="white"/>
<path d="M0 38.3428V43.9513C0 44.8931 0.763636 45.6567 1.70545 45.6567H40.2012C41.143 45.6567 41.9067 44.8931 41.9067 43.9513V38.3428H0Z" fill="#E6E9EE"/>
<path opacity="0.1" d="M32.2339 40.6173C17.1733 40.6173 4.97212 28.4076 4.97212 13.3555H1.70545C0.763636 13.3555 0 14.1191 0 15.0609V43.884C0 44.8258 0.763636 45.5894 1.70545 45.5894H40.1927C41.1345 45.5894 41.8982 44.8258 41.8982 43.884V40.6173H32.2339Z" fill="black"/>
<path d="M14.7129 45.6572H27.1941V49.1954H14.7129V45.6572Z" fill="#AAB2BD"/>
<path d="M30.6982 49.1952H11.217C10.2752 49.1952 9.51154 49.9588 9.51154 50.9006V52.6061H32.4037V50.9006C32.4037 49.9588 31.64 49.1952 30.6982 49.1952Z" fill="#E6E9EE"/>
<path d="M50.8501 23.3164H25.9301C24.9882 23.3164 24.2246 24.08 24.2246 25.0219V28.9419H52.564V25.0219C52.5607 24.5691 52.3787 24.136 52.0578 23.8166C51.7368 23.4973 51.3028 23.3175 50.8501 23.3164Z" fill="#FEC200"/>
<path opacity="0.1" d="M29.9261 27.0328C27.8727 27.0328 26.2097 25.3697 26.2097 23.3164H25.9976C25.0557 23.3164 24.2921 24.08 24.2921 25.0219V28.9419H52.6315V27.0243H29.9261V27.0328Z" fill="black"/>
<path d="M7.16119 27.7624C6.94058 27.7624 6.72846 27.6776 6.55877 27.5163L3.67392 24.6315C3.5127 24.4703 3.42786 24.2582 3.42786 24.0291C3.42786 23.8 3.52119 23.5879 3.67392 23.4267L6.55877 20.5418C6.63732 20.4632 6.73058 20.4009 6.83321 20.3584C6.93585 20.3159 7.04585 20.294 7.15695 20.294C7.26804 20.294 7.37804 20.3159 7.48068 20.3584C7.58332 20.4009 7.67657 20.4632 7.75513 20.5418C7.83368 20.6204 7.896 20.7136 7.93851 20.8163C7.98102 20.9189 8.0029 21.0289 8.0029 21.14C8.0029 21.2511 7.98102 21.3611 7.93851 21.4637C7.896 21.5664 7.83368 21.6596 7.75513 21.7382L5.46422 24.0291L7.75513 26.32C8.08604 26.6509 8.08604 27.1854 7.75513 27.5163C7.678 27.5955 7.58557 27.6582 7.48346 27.7005C7.38135 27.7428 7.2717 27.7638 7.16119 27.7624ZM15.8836 27.7624C15.663 27.7624 15.4509 27.6776 15.2812 27.5163C15.2025 27.4379 15.1401 27.3446 15.0975 27.242C15.055 27.1393 15.0331 27.0293 15.0331 26.9182C15.0331 26.807 15.055 26.697 15.0975 26.5944C15.1401 26.4917 15.2025 26.3985 15.2812 26.32L17.5721 24.0291L15.2812 21.7382C15.2026 21.6596 15.1403 21.5664 15.0978 21.4637C15.0553 21.3611 15.0334 21.2511 15.0334 21.14C15.0334 21.0289 15.0553 20.9189 15.0978 20.8163C15.1403 20.7136 15.2026 20.6204 15.2812 20.5418C15.3597 20.4632 15.453 20.4009 15.5556 20.3584C15.6583 20.3159 15.7683 20.294 15.8794 20.294C15.9905 20.294 16.1005 20.3159 16.2031 20.3584C16.3057 20.4009 16.399 20.4632 16.4776 20.5418L19.3624 23.4267C19.5236 23.5879 19.6085 23.8 19.6085 24.0291C19.6085 24.2582 19.5151 24.4703 19.3624 24.6315L16.4776 27.5163C16.3163 27.686 16.1042 27.7624 15.8836 27.7624ZM8.95998 30.3757C8.81756 30.376 8.67739 30.3402 8.55254 30.2717C8.42769 30.2032 8.32223 30.1041 8.24599 29.9838C8.16975 29.8636 8.12521 29.7259 8.11653 29.5838C8.10785 29.4416 8.1353 29.2996 8.19634 29.1709L13.3212 18.183C13.5163 17.7588 14.0254 17.5721 14.4497 17.7757C14.8739 17.9709 15.0606 18.48 14.8569 18.9042L9.7321 29.8921C9.58786 30.1891 9.2824 30.3757 8.95998 30.3757Z" fill="white"/>
<path d="M24.2246 28.9502V50.9005C24.2246 51.8423 24.9882 52.606 25.9301 52.606H50.8585C51.8004 52.606 52.564 51.8423 52.564 50.9005V28.9502H24.2246Z" fill="#5D5B68"/>
<path d="M48.2954 32.3613H28.4833C28.0166 32.3613 27.6348 32.7431 27.6348 33.2098V41.0838C27.6348 41.5504 28.0166 41.9322 28.4833 41.9322H48.2954C48.762 41.9322 49.1439 41.5504 49.1439 41.0838V33.2098C49.1439 32.7347 48.7705 32.3613 48.2954 32.3613Z" fill="#FF4823"/>
<path opacity="0.1" d="M49.1445 41.0834V41.0071L40.473 37.1465L49.1445 33.2859V33.201C49.1445 32.7344 48.7627 32.3525 48.296 32.3525H47.0573L38.3857 36.2131L29.7142 32.3525H28.4754C28.0088 32.3525 27.627 32.7344 27.627 33.201V33.2859L36.2985 37.1465L27.627 41.0071V41.0834C27.627 41.5501 28.0088 41.9319 28.4754 41.9319H29.7142L38.3857 38.0713L47.0573 41.9319H48.296C48.7712 41.9319 49.1445 41.5501 49.1445 41.0834Z" fill="black"/>
<path d="M27.8638 26.9903C28.3371 26.9903 28.7208 26.6066 28.7208 26.1333C28.7208 25.66 28.3371 25.2764 27.8638 25.2764C27.3905 25.2764 27.0068 25.66 27.0068 26.1333C27.0068 26.6066 27.3905 26.9903 27.8638 26.9903Z" fill="white"/>
<path d="M30.9353 26.9903C31.4086 26.9903 31.7923 26.6066 31.7923 26.1333C31.7923 25.66 31.4086 25.2764 30.9353 25.2764C30.462 25.2764 30.0784 25.66 30.0784 26.1333C30.0784 26.6066 30.462 26.9903 30.9353 26.9903Z" fill="white"/>
<path d="M34.0064 26.9903C34.4797 26.9903 34.8634 26.6066 34.8634 26.1333C34.8634 25.66 34.4797 25.2764 34.0064 25.2764C33.5331 25.2764 33.1494 25.66 33.1494 26.1333C33.1494 26.6066 33.5331 26.9903 34.0064 26.9903Z" fill="white"/>
<path d="M35.8062 46.4118H27.6268C27.1601 46.4118 26.7783 46.03 26.7783 45.5633C26.7783 45.0967 27.1601 44.7148 27.6268 44.7148H35.8062C36.2729 44.7148 36.6547 45.0967 36.6547 45.5633C36.6547 46.03 36.2729 46.4118 35.8062 46.4118ZM31.5383 50.1791H27.6268C27.1601 50.1791 26.7783 49.7973 26.7783 49.3306C26.7783 48.8639 27.1601 48.4821 27.6268 48.4821H31.5383C32.005 48.4821 32.3868 48.8639 32.3868 49.3306C32.3868 49.7973 32.005 50.1791 31.5383 50.1791ZM49.1444 46.5476H40.965C40.4983 46.5476 40.1165 46.1658 40.1165 45.6991C40.1165 45.2324 40.4983 44.8506 40.965 44.8506H49.1444C49.611 44.8506 49.9929 45.2324 49.9929 45.6991C49.9929 46.1658 49.6195 46.5476 49.1444 46.5476ZM44.8765 50.1791H40.965C40.4983 50.1791 40.1165 49.7973 40.1165 49.3306C40.1165 48.8639 40.4983 48.4821 40.965 48.4821H44.8765C45.3432 48.4821 45.725 48.8639 45.725 49.3306C45.725 49.7973 45.3517 50.1791 44.8765 50.1791Z" fill="white"/>
<path d="M20.9576 42.8565C21.4308 42.8565 21.8145 42.4728 21.8145 41.9995C21.8145 41.5263 21.4308 41.1426 20.9576 41.1426C20.4843 41.1426 20.1006 41.5263 20.1006 41.9995C20.1006 42.4728 20.4843 42.8565 20.9576 42.8565Z" fill="#009AFF"/>
<path opacity="0.1" d="M47.8801 48.1511C37.274 48.1511 28.6704 39.5475 28.6704 28.9414H24.2158V50.8917C24.2158 51.8335 24.9795 52.5972 25.9213 52.5972H50.8498C51.7916 52.5972 52.5552 51.8335 52.5552 50.8917V48.1426H47.8801V48.1511Z" fill="black"/>
</svg>
